SplineFontDB: 3.2
FontName: CSLSans-Regular
FullName: CSL Sans
FamilyName: CSL Sans
Weight: Book
Copyright: Copyright (c) 2019 IBM Corp. with Reserved Font Name "Plex"  Copyright (c) 2019 The HMI Sans Project Authors (https://github.com/somegoodpixels/hmi-sans) Copyright (c) 2021 The CSL Sans Project Authors (https://github.com/cssobral2013/CSL-Sans) This Font Software is licensed under the SIL Open Font License, Version 1.1. This license is copied below, and is also available with a FAQ at: http://scripts.sil.org/OFL.
Version: 2.001;January 21, 2022;FontCreator 14.0.0.2808 64-bit
ItalicAngle: 0
UnderlinePosition: -165
UnderlineWidth: 60
Ascent: 800
Descent: 200
InvalidEm: 0
sfntRevision: 0x00020041
LayerCount: 2
Layer: 0 1 "Back" 1
Layer: 1 1 "Fore" 0
XUID: [1021 651 537639564 14579]
StyleMap: 0x0040
FSType: 0
OS2Version: 3
OS2_WeightWidthSlopeOnly: 0
OS2_UseTypoMetrics: 0
CreationTime: 1550580396
ModificationTime: 1642760240
PfmFamily: 81
TTFWeight: 400
TTFWidth: 5
LineGap: 0
VLineGap: 0
Panose: 0 0 5 0 0 0 0 0 0 0
OS2TypoAscent: 1000
OS2TypoAOffset: 0
OS2TypoDescent: -220
OS2TypoDOffset: 0
OS2TypoLinegap: 0
OS2WinAscent: 1000
OS2WinAOffset: 0
OS2WinDescent: 220
OS2WinDOffset: 0
HheadAscent: 1000
HheadAOffset: 0
HheadDescent: -220
HheadDOffset: 0
OS2SubXSize: 650
OS2SubYSize: 600
OS2SubXOff: 0
OS2SubYOff: 75
OS2SupXSize: 650
OS2SupYSize: 600
OS2SupXOff: 0
OS2SupYOff: 350
OS2StrikeYSize: 60
OS2StrikeYPos: 309
OS2CapHeight: 698
OS2XHeight: 516
OS2Vendor: 'UKWN'
OS2CodePages: 2000019f.00000000
OS2UnicodeRanges: a10002ff.5000a07b.00000000.00000000
Lookup: 258 0 0 "'kern' Kerning Horizontal lookup 0" { "'kern' Kerning Horizontal lookup 0 per glyph data 0"  "'kern' Kerning Horizontal lookup 0 kerning class 1"  "'kern' Kerning Horizontal lookup 0 kerning class 2"  "'kern' Kerning Horizontal lookup 0 kerning class 3"  } ['kern' ('DFLT' <'dflt' > 'cyrl' <'dflt' > 'grek' <'dflt' > 'latn' <'dflt' > ) ]
DEI: 91125

StartChar: .notdef
Encoding: 65536 -1 0
Width: 472
Flags: W
LayerCount: 2
Fore
SplineSet
440 0 m 1,0,-1
 440 780 l 1,1,-1
 32 780 l 1,2,-1
 32 0 l 1,3,-1
 440 0 l 1,0,-1
380 60 m 1,4,-1
 92 60 l 1,5,-1
 92 720 l 1,6,-1
 380 720 l 1,7,-1
 380 60 l 1,4,-1
EndSplineSet
EndChar

StartChar: A
Encoding: 65 65 2
Width: 641
GlyphClass: 1
Flags: W
LayerCount: 2
Fore
SplineSet
618 0 m 1,0,-1
 374 698 l 1,1,-1
 267 698 l 1,2,-1
 23 0 l 1,3,-1
 108 0 l 1,4,-1
 178 206 l 1,5,-1
 460 206 l 1,6,-1
 530 0 l 1,7,-1
 618 0 l 1,0,-1
439 280 m 1,8,-1
 198 280 l 1,9,-1
 316 620 l 1,10,-1
 321 620 l 1,11,-1
 439 280 l 1,8,-1
EndSplineSet
EndChar

StartChar: Aacute
Encoding: 193 193 3
Width: 641
GlyphClass: 7
Flags: W
LayerCount: 2
Fore
SplineSet
618 0 m 1,0,-1
 374 698 l 1,1,-1
 267 698 l 1,2,-1
 23 0 l 1,3,-1
 108 0 l 1,4,-1
 178 206 l 1,5,-1
 460 206 l 1,6,-1
 530 0 l 1,7,-1
 618 0 l 1,0,-1
439 280 m 1,8,-1
 198 280 l 1,9,-1
 316 620 l 1,10,-1
 321 620 l 1,11,-1
 439 280 l 1,8,-1
329 755 m 1,12,-1
 435 914 l 1,13,-1
 362 949 l 1,14,-1
 277 779 l 1,15,-1
 329 755 l 1,12,-1
EndSplineSet
EndChar

StartChar: Abreve
Encoding: 258 258 4
Width: 641
GlyphClass: 5
Flags: W
LayerCount: 2
Fore
SplineSet
618 0 m 1,0,-1
 374 698 l 1,1,-1
 267 698 l 1,2,-1
 23 0 l 1,3,-1
 108 0 l 1,4,-1
 178 206 l 1,5,-1
 460 206 l 1,6,-1
 530 0 l 1,7,-1
 618 0 l 1,0,-1
439 280 m 1,8,-1
 198 280 l 1,9,-1
 316 620 l 1,10,-1
 321 620 l 1,11,-1
 439 280 l 1,8,-1
322 766 m 0,12,13
 395 766 395 766 432 808 c 0,14,15
 463 847 463 847 474 891 c 1,16,-1
 429 913 l 1,17,-1
 408 880 l 2,18,19
 395 857 395 857 377.5 843 c 128,-1,20
 360 829 360 829 322 829 c 256,21,22
 284 829 284 829 266 843.5 c 128,-1,23
 248 858 248 858 236 880 c 2,24,-1
 215 913 l 1,25,-1
 170 891 l 1,26,27
 203 766 203 766 322 766 c 0,12,13
EndSplineSet
EndChar

StartChar: Abreveacute
Encoding: 7854 7854 5
Width: 641
Flags: W
LayerCount: 2
Fore
SplineSet
618 0 m 1,0,-1
 374 698 l 1,1,-1
 267 698 l 1,2,-1
 23 0 l 1,3,-1
 108 0 l 1,4,-1
 178 206 l 1,5,-1
 460 206 l 1,6,-1
 530 0 l 1,7,-1
 618 0 l 1,0,-1
439 280 m 1,8,-1
 198 280 l 1,9,-1
 316 620 l 1,10,-1
 321 620 l 1,11,-1
 439 280 l 1,8,-1
322 756 m 0,12,13
 395 756 395 756 432 798 c 0,14,15
 463 837 463 837 474 881 c 1,16,-1
 429 903 l 1,17,18
 419 884 419 884 408 863.5 c 128,-1,19
 397 843 397 843 378.5 828.5 c 128,-1,20
 360 814 360 814 322 814 c 256,21,22
 284 814 284 814 265.5 828.5 c 128,-1,23
 247 843 247 843 236.5 863.5 c 128,-1,24
 226 884 226 884 215 903 c 1,25,-1
 170 881 l 1,26,27
 203 756 203 756 322 756 c 0,12,13
326 868 m 1,28,-1
 432 1027 l 1,29,-1
 362 1061 l 1,30,-1
 277 891 l 1,31,-1
 326 868 l 1,28,-1
EndSplineSet
EndChar

StartChar: Abrevedotbelow
Encoding: 7862 7862 6
Width: 641
Flags: W
LayerCount: 2
Fore
SplineSet
618 0 m 1,0,-1
 374 698 l 1,1,-1
 267 698 l 1,2,-1
 23 0 l 1,3,-1
 108 0 l 1,4,-1
 178 206 l 1,5,-1
 460 206 l 1,6,-1
 530 0 l 1,7,-1
 618 0 l 1,0,-1
439 280 m 1,8,-1
 198 280 l 1,9,-1
 316 620 l 1,10,-1
 321 620 l 1,11,-1
 439 280 l 1,8,-1
322 766 m 0,12,13
 395 766 395 766 432 808 c 0,14,15
 463 847 463 847 474 891 c 1,16,-1
 429 913 l 1,17,-1
 408 880 l 2,18,19
 395 857 395 857 377.5 843 c 128,-1,20
 360 829 360 829 322 829 c 256,21,22
 284 829 284 829 266 843.5 c 128,-1,23
 248 858 248 858 236 880 c 2,24,-1
 215 913 l 1,25,-1
 170 891 l 1,26,27
 203 766 203 766 322 766 c 0,12,13
322 -169 m 256,28,29
 373 -169 373 -169 373 -123 c 2,30,-1
 373 -112 l 2,31,32
 373 -66 373 -66 322 -66 c 256,33,34
 271 -66 271 -66 271 -112 c 2,35,-1
 271 -123 l 2,36,37
 271 -169 271 -169 322 -169 c 256,28,29
EndSplineSet
EndChar

StartChar: Abrevegrave
Encoding: 7856 7856 7
Width: 641
GlyphClass: 3
Flags: W
LayerCount: 2
Fore
SplineSet
618 0 m 1,0,-1
 374 698 l 1,1,-1
 267 698 l 1,2,-1
 23 0 l 1,3,-1
 108 0 l 1,4,-1
 178 206 l 1,5,-1
 460 206 l 1,6,-1
 530 0 l 1,7,-1
 618 0 l 1,0,-1
439 280 m 1,8,-1
 198 280 l 1,9,-1
 316 620 l 1,10,-1
 321 620 l 1,11,-1
 439 280 l 1,8,-1
322 756 m 0,12,13
 395 756 395 756 432 798 c 0,14,15
 463 837 463 837 474 881 c 1,16,-1
 429 903 l 1,17,18
 419 884 419 884 408 863.5 c 128,-1,19
 397 843 397 843 378.5 828.5 c 128,-1,20
 360 814 360 814 322 814 c 256,21,22
 284 814 284 814 265.5 828.5 c 128,-1,23
 247 843 247 843 236.5 863.5 c 128,-1,24
 226 884 226 884 215 903 c 1,25,-1
 170 881 l 1,26,27
 203 756 203 756 322 756 c 0,12,13
318 868 m 1,28,-1
 367 891 l 1,29,-1
 282 1061 l 1,30,-1
 212 1027 l 1,31,-1
 318 868 l 1,28,-1
EndSplineSet
EndChar

StartChar: Abrevehookabove
Encoding: 7858 7858 8
Width: 641
Flags: W
LayerCount: 2
Fore
SplineSet
618 0 m 1,0,-1
 374 698 l 1,1,-1
 267 698 l 1,2,-1
 23 0 l 1,3,-1
 108 0 l 1,4,-1
 178 206 l 1,5,-1
 460 206 l 1,6,-1
 530 0 l 1,7,-1
 618 0 l 1,0,-1
439 280 m 1,8,-1
 198 280 l 1,9,-1
 316 620 l 1,10,-1
 321 620 l 1,11,-1
 439 280 l 1,8,-1
324 862 m 1,12,-1
 348 892 l 2,13,14
 397 952 397 952 397 995 c 0,15,16
 397 1050 397 1050 327 1050 c 2,17,-1
 233 1050 l 1,18,-1
 233 992 l 1,19,-1
 340 992 l 1,20,-1
 280 885 l 1,21,-1
 324 862 l 1,12,-1
322 756 m 0,22,23
 395 756 395 756 432 798 c 0,24,25
 463 837 463 837 474 881 c 1,26,-1
 429 903 l 1,27,28
 419 884 419 884 408 863.5 c 128,-1,29
 397 843 397 843 378.5 828.5 c 128,-1,30
 360 814 360 814 322 814 c 256,31,32
 284 814 284 814 265.5 828.5 c 128,-1,33
 247 843 247 843 236.5 863.5 c 128,-1,34
 226 884 226 884 215 903 c 1,35,-1
 170 881 l 1,36,37
 203 756 203 756 322 756 c 0,22,23
EndSplineSet
EndChar

StartChar: Abrevetilde
Encoding: 7860 7860 9
Width: 641
Flags: W
LayerCount: 2
Fore
SplineSet
618 0 m 1,0,-1
 374 698 l 1,1,-1
 267 698 l 1,2,-1
 23 0 l 1,3,-1
 108 0 l 1,4,-1
 178 206 l 1,5,-1
 460 206 l 1,6,-1
 530 0 l 1,7,-1
 618 0 l 1,0,-1
439 280 m 1,8,-1
 198 280 l 1,9,-1
 316 620 l 1,10,-1
 321 620 l 1,11,-1
 439 280 l 1,8,-1
394 942 m 0,12,13
 454 942 454 942 489 995 c 1,14,-1
 458 1031 l 1,15,16
 443 1018 443 1018 430 1011 c 128,-1,17
 417 1004 417 1004 400 1004 c 0,18,19
 373 1004 373 1004 323 1031 c 0,20,21
 309 1040 309 1040 291.5 1047 c 128,-1,22
 274 1054 274 1054 250 1054 c 0,23,24
 190 1054 190 1054 155 1001 c 1,25,-1
 186 965 l 1,26,27
 201 978 201 978 214 985 c 128,-1,28
 227 992 227 992 244 992 c 0,29,30
 271 992 271 992 321 965 c 0,31,32
 335 956 335 956 352.5 949 c 128,-1,33
 370 942 370 942 394 942 c 0,12,13
322 756 m 0,34,35
 395 756 395 756 432 798 c 0,36,37
 463 837 463 837 474 881 c 1,38,-1
 429 903 l 1,39,40
 419 884 419 884 408 863.5 c 128,-1,41
 397 843 397 843 378.5 828.5 c 128,-1,42
 360 814 360 814 322 814 c 256,43,44
 284 814 284 814 265.5 828.5 c 128,-1,45
 247 843 247 843 236.5 863.5 c 128,-1,46
 226 884 226 884 215 903 c 1,47,-1
 170 881 l 1,48,49
 203 756 203 756 322 756 c 0,34,35
EndSplineSet
EndChar

StartChar: Acircumflex
Encoding: 194 194 10
Width: 641
GlyphClass: 3
Flags: W
LayerCount: 2
Fore
SplineSet
618 0 m 1,0,-1
 374 698 l 1,1,-1
 267 698 l 1,2,-1
 23 0 l 1,3,-1
 108 0 l 1,4,-1
 178 206 l 1,5,-1
 460 206 l 1,6,-1
 530 0 l 1,7,-1
 618 0 l 1,0,-1
439 280 m 1,8,-1
 198 280 l 1,9,-1
 316 620 l 1,10,-1
 321 620 l 1,11,-1
 439 280 l 1,8,-1
439 761 m 1,12,-1
 483 792 l 1,13,-1
 372 935 l 1,14,-1
 272 935 l 1,15,-1
 161 792 l 1,16,-1
 205 761 l 1,17,-1
 322 878 l 1,18,-1
 439 761 l 1,12,-1
EndSplineSet
EndChar

StartChar: Acircumflexacute
Encoding: 7844 7844 11
Width: 641
Flags: W
LayerCount: 2
Fore
SplineSet
618 0 m 1,0,-1
 374 698 l 1,1,-1
 267 698 l 1,2,-1
 23 0 l 1,3,-1
 108 0 l 1,4,-1
 178 206 l 1,5,-1
 460 206 l 1,6,-1
 530 0 l 1,7,-1
 618 0 l 1,0,-1
439 280 m 1,8,-1
 198 280 l 1,9,-1
 316 620 l 1,10,-1
 321 620 l 1,11,-1
 439 280 l 1,8,-1
476 868 m 1,12,-1
 582 1027 l 1,13,-1
 512 1061 l 1,14,-1
 427 891 l 1,15,-1
 476 868 l 1,12,-1
441 751 m 1,16,-1
 482 781 l 1,17,-1
 372 915 l 1,18,-1
 272 915 l 1,19,-1
 162 781 l 1,20,-1
 203 751 l 1,21,-1
 322 863 l 1,22,-1
 441 751 l 1,16,-1
EndSplineSet
EndChar

StartChar: Acircumflexdotbelow
Encoding: 7852 7852 12
Width: 641
Flags: W
LayerCount: 2
Fore
SplineSet
618 0 m 1,0,-1
 374 698 l 1,1,-1
 267 698 l 1,2,-1
 23 0 l 1,3,-1
 108 0 l 1,4,-1
 178 206 l 1,5,-1
 460 206 l 1,6,-1
 530 0 l 1,7,-1
 618 0 l 1,0,-1
439 280 m 1,8,-1
 198 280 l 1,9,-1
 316 620 l 1,10,-1
 321 620 l 1,11,-1
 439 280 l 1,8,-1
439 761 m 1,12,-1
 483 792 l 1,13,-1
 372 935 l 1,14,-1
 272 935 l 1,15,-1
 161 792 l 1,16,-1
 205 761 l 1,17,-1
 322 878 l 1,18,-1
 439 761 l 1,12,-1
322 -169 m 256,19,20
 373 -169 373 -169 373 -123 c 2,21,-1
 373 -112 l 2,22,23
 373 -66 373 -66 322 -66 c 256,24,25
 271 -66 271 -66 271 -112 c 2,26,-1
 271 -123 l 2,27,28
 271 -169 271 -169 322 -169 c 256,19,20
EndSplineSet
EndChar

StartChar: Acircumflexgrave
Encoding: 7846 7846 13
Width: 641
GlyphClass: 3
Flags: W
LayerCount: 2
Fore
SplineSet
618 0 m 1,0,-1
 374 698 l 1,1,-1
 267 698 l 1,2,-1
 23 0 l 1,3,-1
 108 0 l 1,4,-1
 178 206 l 1,5,-1
 460 206 l 1,6,-1
 530 0 l 1,7,-1
 618 0 l 1,0,-1
439 280 m 1,8,-1
 198 280 l 1,9,-1
 316 620 l 1,10,-1
 321 620 l 1,11,-1
 439 280 l 1,8,-1
168 868 m 1,12,-1
 217 891 l 1,13,-1
 132 1061 l 1,14,-1
 62 1027 l 1,15,-1
 168 868 l 1,12,-1
441 751 m 1,16,-1
 482 781 l 1,17,-1
 372 915 l 1,18,-1
 272 915 l 1,19,-1
 162 781 l 1,20,-1
 203 751 l 1,21,-1
 322 863 l 1,22,-1
 441 751 l 1,16,-1
EndSplineSet
EndChar

StartChar: Acircumflexhookabove
Encoding: 7848 7848 14
Width: 641
Flags: W
LayerCount: 2
Fore
SplineSet
618 0 m 1,0,-1
 374 698 l 1,1,-1
 267 698 l 1,2,-1
 23 0 l 1,3,-1
 108 0 l 1,4,-1
 178 206 l 1,5,-1
 460 206 l 1,6,-1
 530 0 l 1,7,-1
 618 0 l 1,0,-1
439 280 m 1,8,-1
 198 280 l 1,9,-1
 316 620 l 1,10,-1
 321 620 l 1,11,-1
 439 280 l 1,8,-1
478 862 m 1,12,-1
 502 892 l 2,13,14
 551 952 551 952 551 995 c 0,15,16
 551 1050 551 1050 481 1050 c 2,17,-1
 372 1050 l 1,18,-1
 372 992 l 1,19,-1
 494 992 l 1,20,-1
 434 885 l 1,21,-1
 478 862 l 1,12,-1
441 751 m 1,22,-1
 482 781 l 1,23,-1
 372 915 l 1,24,-1
 272 915 l 1,25,-1
 162 781 l 1,26,-1
 203 751 l 1,27,-1
 322 863 l 1,28,-1
 441 751 l 1,22,-1
EndSplineSet
EndChar

StartChar: Acircumflextilde
Encoding: 7850 7850 15
Width: 641
Flags: W
LayerCount: 2
Fore
SplineSet
618 0 m 1,0,-1
 374 698 l 1,1,-1
 267 698 l 1,2,-1
 23 0 l 1,3,-1
 108 0 l 1,4,-1
 178 206 l 1,5,-1
 460 206 l 1,6,-1
 530 0 l 1,7,-1
 618 0 l 1,0,-1
439 280 m 1,8,-1
 198 280 l 1,9,-1
 316 620 l 1,10,-1
 321 620 l 1,11,-1
 439 280 l 1,8,-1
394 942 m 0,12,13
 454 942 454 942 489 995 c 1,14,-1
 458 1031 l 1,15,16
 443 1018 443 1018 430 1011 c 128,-1,17
 417 1004 417 1004 400 1004 c 0,18,19
 373 1004 373 1004 323 1031 c 0,20,21
 309 1040 309 1040 291.5 1047 c 128,-1,22
 274 1054 274 1054 250 1054 c 0,23,24
 190 1054 190 1054 155 1001 c 1,25,-1
 186 965 l 1,26,27
 201 978 201 978 214 985 c 128,-1,28
 227 992 227 992 244 992 c 0,29,30
 271 992 271 992 321 965 c 0,31,32
 335 956 335 956 352.5 949 c 128,-1,33
 370 942 370 942 394 942 c 0,12,13
441 751 m 1,34,-1
 482 781 l 1,35,-1
 372 915 l 1,36,-1
 272 915 l 1,37,-1
 162 781 l 1,38,-1
 203 751 l 1,39,-1
 322 863 l 1,40,-1
 441 751 l 1,34,-1
EndSplineSet
EndChar

StartChar: Adieresis
Encoding: 196 196 16
Width: 641
GlyphClass: 3
Flags: W
LayerCount: 2
Fore
SplineSet
618 0 m 1,0,-1
 374 698 l 1,1,-1
 267 698 l 1,2,-1
 23 0 l 1,3,-1
 108 0 l 1,4,-1
 178 206 l 1,5,-1
 460 206 l 1,6,-1
 530 0 l 1,7,-1
 618 0 l 1,0,-1
439 280 m 1,8,-1
 198 280 l 1,9,-1
 316 620 l 1,10,-1
 321 620 l 1,11,-1
 439 280 l 1,8,-1
229 788 m 256,12,13
 279 788 279 788 279 835 c 2,14,-1
 279 847 l 2,15,16
 279 894 279 894 229 894 c 256,17,18
 179 894 179 894 179 847 c 2,19,-1
 179 835 l 2,20,21
 179 788 179 788 229 788 c 256,12,13
415 788 m 256,22,23
 465 788 465 788 465 835 c 2,24,-1
 465 847 l 2,25,26
 465 894 465 894 415 894 c 256,27,28
 365 894 365 894 365 847 c 2,29,-1
 365 835 l 2,30,31
 365 788 365 788 415 788 c 256,22,23
EndSplineSet
EndChar

StartChar: Adotbelow
Encoding: 7840 7840 17
Width: 641
GlyphClass: 5
Flags: W
LayerCount: 2
Fore
SplineSet
618 0 m 1,0,-1
 374 698 l 1,1,-1
 267 698 l 1,2,-1
 23 0 l 1,3,-1
 108 0 l 1,4,-1
 178 206 l 1,5,-1
 460 206 l 1,6,-1
 530 0 l 1,7,-1
 618 0 l 1,0,-1
439 280 m 1,8,-1
 198 280 l 1,9,-1
 316 620 l 1,10,-1
 321 620 l 1,11,-1
 439 280 l 1,8,-1
322 -169 m 256,12,13
 373 -169 373 -169 373 -123 c 2,14,-1
 373 -112 l 2,15,16
 373 -66 373 -66 322 -66 c 256,17,18
 271 -66 271 -66 271 -112 c 2,19,-1
 271 -123 l 2,20,21
 271 -169 271 -169 322 -169 c 256,12,13
EndSplineSet
EndChar

StartChar: Agrave
Encoding: 192 192 18
Width: 641
Flags: W
LayerCount: 2
Fore
SplineSet
618 0 m 1,0,-1
 374 698 l 1,1,-1
 267 698 l 1,2,-1
 23 0 l 1,3,-1
 108 0 l 1,4,-1
 178 206 l 1,5,-1
 460 206 l 1,6,-1
 530 0 l 1,7,-1
 618 0 l 1,0,-1
439 280 m 1,8,-1
 198 280 l 1,9,-1
 316 620 l 1,10,-1
 321 620 l 1,11,-1
 439 280 l 1,8,-1
315 755 m 1,12,-1
 367 779 l 1,13,-1
 282 949 l 1,14,-1
 209 914 l 1,15,-1
 315 755 l 1,12,-1
EndSplineSet
EndChar

StartChar: Ahookabove
Encoding: 7842 7842 19
Width: 641
Flags: W
LayerCount: 2
Fore
SplineSet
618 0 m 1,0,-1
 374 698 l 1,1,-1
 267 698 l 1,2,-1
 23 0 l 1,3,-1
 108 0 l 1,4,-1
 178 206 l 1,5,-1
 460 206 l 1,6,-1
 530 0 l 1,7,-1
 618 0 l 1,0,-1
439 280 m 1,8,-1
 198 280 l 1,9,-1
 316 620 l 1,10,-1
 321 620 l 1,11,-1
 439 280 l 1,8,-1
344 747 m 1,12,-1
 368 777 l 2,13,14
 417 837 417 837 417 880 c 0,15,16
 417 935 417 935 347 935 c 2,17,-1
 238 935 l 1,18,-1
 238 874 l 1,19,-1
 356 874 l 1,20,-1
 298 770 l 1,21,-1
 344 747 l 1,12,-1
EndSplineSet
EndChar

StartChar: Amacron
Encoding: 256 256 20
Width: 641
Flags: W
LayerCount: 2
Fore
SplineSet
618 0 m 1,0,-1
 374 698 l 1,1,-1
 267 698 l 1,2,-1
 23 0 l 1,3,-1
 108 0 l 1,4,-1
 178 206 l 1,5,-1
 460 206 l 1,6,-1
 530 0 l 1,7,-1
 618 0 l 1,0,-1
439 280 m 1,8,-1
 198 280 l 1,9,-1
 316 620 l 1,10,-1
 321 620 l 1,11,-1
 439 280 l 1,8,-1
462 807 m 1,12,-1
 462 875 l 1,13,-1
 182 875 l 1,14,-1
 182 807 l 1,15,-1
 462 807 l 1,12,-1
EndSplineSet
EndChar

StartChar: Aogonek
Encoding: 260 260 21
Width: 641
GlyphClass: 2
Flags: W
LayerCount: 2
Fore
SplineSet
551 -207 m 0,0,1
 586 -207 586 -207 608 -195.5 c 128,-1,2
 630 -184 630 -184 639 -168 c 1,3,-1
 599 -129 l 1,4,5
 580 -153 580 -153 551 -153 c 0,6,7
 520 -153 520 -153 520 -123 c 0,8,9
 520 -106 520 -106 538 -81.5 c 128,-1,10
 556 -57 556 -57 618 0 c 1,11,-1
 374 698 l 1,12,-1
 267 698 l 1,13,-1
 23 0 l 1,14,-1
 108 0 l 1,15,-1
 178 206 l 1,16,-1
 460 206 l 1,17,-1
 530 0 l 1,18,-1
 556 0 l 1,19,-1
 557 -4 l 1,20,21
 516 -33 516 -33 486 -63 c 128,-1,22
 456 -93 456 -93 456 -131 c 0,23,24
 456 -171 456 -171 484 -189 c 128,-1,25
 512 -207 512 -207 551 -207 c 0,0,1
439 280 m 1,26,-1
 198 280 l 1,27,-1
 316 620 l 1,28,-1
 321 620 l 1,29,-1
 439 280 l 1,26,-1
EndSplineSet
EndChar

StartChar: Aring
Encoding: 197 197 22
Width: 641
Flags: W
LayerCount: 2
Fore
SplineSet
618 0 m 1,0,-1
 374 698 l 1,1,-1
 267 698 l 1,2,-1
 23 0 l 1,3,-1
 108 0 l 1,4,-1
 178 206 l 1,5,-1
 460 206 l 1,6,-1
 530 0 l 1,7,-1
 618 0 l 1,0,-1
439 280 m 1,8,-1
 198 280 l 1,9,-1
 316 620 l 1,10,-1
 321 620 l 1,11,-1
 439 280 l 1,8,-1
322 746 m 256,12,13
 370 746 370 746 404 779 c 128,-1,14
 438 812 438 812 438 861 c 0,15,16
 438 911 438 911 405 944 c 0,17,18
 370 976 370 976 322 976 c 256,19,20
 274 976 274 976 240 943.5 c 128,-1,21
 206 911 206 911 206 861 c 0,22,23
 206 812 206 812 240 779 c 128,-1,24
 274 746 274 746 322 746 c 256,12,13
322 795 m 0,25,26
 268 795 268 795 264 850 c 1,27,-1
 264 872 l 2,28,29
 264 925 264 925 322 927 c 0,30,31
 376 927 376 927 380 872 c 1,32,-1
 380 850 l 2,33,34
 380 798 380 798 322 795 c 0,25,26
EndSplineSet
EndChar

StartChar: Aringacute
Encoding: 506 506 23
Width: 641
GlyphClass: 2
Flags: W
LayerCount: 2
Fore
SplineSet
618 0 m 1,0,-1
 374 698 l 1,1,-1
 267 698 l 1,2,-1
 23 0 l 1,3,-1
 108 0 l 1,4,-1
 178 206 l 1,5,-1
 460 206 l 1,6,-1
 530 0 l 1,7,-1
 618 0 l 1,0,-1
439 280 m 1,8,-1
 198 280 l 1,9,-1
 316 620 l 1,10,-1
 321 620 l 1,11,-1
 439 280 l 1,8,-1
336 987 m 1,12,-1
 432 1094 l 1,13,-1
 362 1119 l 1,14,-1
 289 1006 l 1,15,-1
 336 987 l 1,12,-1
322 736 m 256,16,17
 370 736 370 736 404 769 c 128,-1,18
 438 802 438 802 438 851 c 0,19,20
 438 901 438 901 405 934 c 0,21,22
 370 966 370 966 322 966 c 256,23,24
 274 966 274 966 240 933.5 c 128,-1,25
 206 901 206 901 206 851 c 0,26,27
 206 802 206 802 240 769 c 128,-1,28
 274 736 274 736 322 736 c 256,16,17
322 785 m 0,29,30
 268 785 268 785 264 840 c 1,31,-1
 264 862 l 2,32,33
 264 915 264 915 322 917 c 0,34,35
 376 917 376 917 380 862 c 1,36,-1
 380 840 l 2,37,38
 380 788 380 788 322 785 c 0,29,30
EndSplineSet
EndChar

StartChar: Atilde
Encoding: 195 195 24
Width: 641
Flags: W
LayerCount: 2
Fore
SplineSet
618 0 m 1,0,-1
 374 698 l 1,1,-1
 267 698 l 1,2,-1
 23 0 l 1,3,-1
 108 0 l 1,4,-1
 178 206 l 1,5,-1
 460 206 l 1,6,-1
 530 0 l 1,7,-1
 618 0 l 1,0,-1
439 280 m 1,8,-1
 198 280 l 1,9,-1
 316 620 l 1,10,-1
 321 620 l 1,11,-1
 439 280 l 1,8,-1
395 782 m 0,12,13
 455 782 455 782 490 835 c 1,14,-1
 457 875 l 1,15,16
 442 862 442 862 429 855 c 128,-1,17
 416 848 416 848 399 848 c 0,18,19
 372 848 372 848 322 875 c 0,20,21
 308 884 308 884 290.5 891 c 128,-1,22
 273 898 273 898 249 898 c 0,23,24
 189 898 189 898 154 845 c 1,25,-1
 187 805 l 1,26,27
 202 818 202 818 215 825 c 128,-1,28
 228 832 228 832 245 832 c 0,29,30
 272 832 272 832 322 805 c 0,31,32
 336 796 336 796 353.5 789 c 128,-1,33
 371 782 371 782 395 782 c 0,12,13
EndSplineSet
EndChar

StartChar: B
Encoding: 66 66 25
Width: 653
Flags: W
LayerCount: 2
Fore
SplineSet
410 0 m 2,0,1
 488 0 488 0 539 58.5 c 128,-1,2
 590 117 590 117 590 202 c 0,3,4
 590 281 590 281 540 326 c 0,5,6
 494 364 494 364 453 364 c 1,7,-1
 453 370 l 1,8,9
 490 374 490 374 527 408 c 0,10,11
 566 446 566 446 566 518 c 0,12,13
 566 600 566 600 516.5 649 c 128,-1,14
 467 698 467 698 380 698 c 2,15,-1
 93 698 l 1,16,-1
 93 0 l 1,17,-1
 410 0 l 2,0,1
384 74 m 2,18,-1
 177 74 l 1,19,-1
 177 324 l 1,20,-1
 384 324 l 2,21,22
 438 324 438 324 469 296.5 c 128,-1,23
 500 269 500 269 500 216 c 2,24,-1
 500 182 l 2,25,26
 500 129 500 129 469 101.5 c 128,-1,27
 438 74 438 74 384 74 c 2,18,-1
370 396 m 2,28,-1
 177 396 l 1,29,-1
 177 624 l 1,30,-1
 370 624 l 2,31,32
 420 624 420 624 448 599 c 128,-1,33
 476 574 476 574 476 527 c 2,34,-1
 476 493 l 2,35,36
 476 399 476 399 370 396 c 2,28,-1
EndSplineSet
EndChar

StartChar: C
Encoding: 67 67 26
Width: 621
GlyphClass: 1
Flags: W
LayerCount: 2
Fore
SplineSet
339 -12 m 0,0,1
 427 -12 427 -12 489 30 c 128,-1,2
 551 72 551 72 584 147 c 1,3,-1
 517 189 l 1,4,5
 496 131 496 131 451 97 c 128,-1,6
 406 63 406 63 339 63 c 0,7,8
 248 63 248 63 198 124 c 128,-1,9
 148 185 148 185 148 293 c 2,10,-1
 148 397 l 2,11,12
 148 505 148 505 198.5 570 c 128,-1,13
 249 635 249 635 339 635 c 0,14,15
 404 635 404 635 447 603 c 128,-1,16
 490 571 490 571 511 516 c 1,17,-1
 579 557 l 1,18,19
 510 710 510 710 339 710 c 0,20,21
 206 710 206 710 132 615.5 c 128,-1,22
 58 521 58 521 58 345 c 256,23,24
 58 169 58 169 132 78.5 c 128,-1,25
 206 -12 206 -12 339 -12 c 0,0,1
EndSplineSet
EndChar

StartChar: Cacute
Encoding: 262 262 27
Width: 621
Flags: W
LayerCount: 2
Fore
SplineSet
339 -12 m 0,0,1
 427 -12 427 -12 489 30 c 128,-1,2
 551 72 551 72 584 147 c 1,3,-1
 517 189 l 1,4,5
 496 131 496 131 451 97 c 128,-1,6
 406 63 406 63 339 63 c 0,7,8
 248 63 248 63 198 124 c 128,-1,9
 148 185 148 185 148 293 c 2,10,-1
 148 397 l 2,11,12
 148 505 148 505 198.5 570 c 128,-1,13
 249 635 249 635 339 635 c 0,14,15
 404 635 404 635 447 603 c 128,-1,16
 490 571 490 571 511 516 c 1,17,-1
 579 557 l 1,18,19
 510 710 510 710 339 710 c 0,20,21
 206 710 206 710 132 615.5 c 128,-1,22
 58 521 58 521 58 345 c 256,23,24
 58 169 58 169 132 78.5 c 128,-1,25
 206 -12 206 -12 339 -12 c 0,0,1
345 755 m 1,26,-1
 451 914 l 1,27,-1
 378 949 l 1,28,-1
 293 779 l 1,29,-1
 345 755 l 1,26,-1
EndSplineSet
EndChar

StartChar: Ccaron
Encoding: 268 268 28
Width: 621
GlyphClass: 2
Flags: W
LayerCount: 2
Fore
SplineSet
339 -12 m 0,0,1
 427 -12 427 -12 489 30 c 128,-1,2
 551 72 551 72 584 147 c 1,3,-1
 517 189 l 1,4,5
 496 131 496 131 451 97 c 128,-1,6
 406 63 406 63 339 63 c 0,7,8
 248 63 248 63 198 124 c 128,-1,9
 148 185 148 185 148 293 c 2,10,-1
 148 397 l 2,11,12
 148 505 148 505 198.5 570 c 128,-1,13
 249 635 249 635 339 635 c 0,14,15
 404 635 404 635 447 603 c 128,-1,16
 490 571 490 571 511 516 c 1,17,-1
 579 557 l 1,18,19
 510 710 510 710 339 710 c 0,20,21
 206 710 206 710 132 615.5 c 128,-1,22
 58 521 58 521 58 345 c 256,23,24
 58 169 58 169 132 78.5 c 128,-1,25
 206 -12 206 -12 339 -12 c 0,0,1
388 769 m 1,26,-1
 499 912 l 1,27,-1
 455 943 l 1,28,-1
 338 826 l 1,29,-1
 221 943 l 1,30,-1
 177 912 l 1,31,-1
 288 769 l 1,32,-1
 388 769 l 1,26,-1
EndSplineSet
EndChar

StartChar: Ccedilla
Encoding: 199 199 29
Width: 621
Flags: W
LayerCount: 2
Fore
SplineSet
350 -207 m 0,0,1
 394 -207 394 -207 427.5 -186.5 c 128,-1,2
 461 -166 461 -166 461 -124 c 0,3,4
 461 -92 461 -92 441.5 -75 c 128,-1,5
 422 -58 422 -58 393 -58 c 0,6,7
 374 -58 374 -58 354 -64 c 1,8,-1
 351 -61 l 1,9,-1
 361 -11 l 1,10,11
 521 4 521 4 584 147 c 1,12,-1
 517 189 l 1,13,14
 496 131 496 131 451 97 c 128,-1,15
 406 63 406 63 339 63 c 0,16,17
 248 63 248 63 198 124 c 128,-1,18
 148 185 148 185 148 293 c 2,19,-1
 148 397 l 2,20,21
 148 505 148 505 198.5 570 c 128,-1,22
 249 635 249 635 339 635 c 0,23,24
 404 635 404 635 447 603 c 128,-1,25
 490 571 490 571 511 516 c 1,26,-1
 579 557 l 1,27,28
 510 710 510 710 339 710 c 0,29,30
 206 710 206 710 132 615.5 c 128,-1,31
 58 521 58 521 58 345 c 0,32,33
 58 178 58 178 124 88 c 128,-1,34
 190 -2 190 -2 311 -11 c 1,35,-1
 298 -77 l 1,36,-1
 326 -81 l 2,37,38
 368 -87 368 -87 381 -97.5 c 128,-1,39
 394 -108 394 -108 394 -122 c 0,40,41
 394 -138 394 -138 381.5 -145.5 c 128,-1,42
 369 -153 369 -153 350 -153 c 0,43,44
 311 -153 311 -153 289 -125 c 1,45,-1
 251 -166 l 1,46,47
 281 -207 281 -207 350 -207 c 0,0,1
EndSplineSet
EndChar

StartChar: Ccircumflex
Encoding: 264 264 30
Width: 621
GlyphClass: 2
Flags: W
LayerCount: 2
Fore
SplineSet
339 -12 m 0,0,1
 427 -12 427 -12 489 30 c 128,-1,2
 551 72 551 72 584 147 c 1,3,-1
 517 189 l 1,4,5
 496 131 496 131 451 97 c 128,-1,6
 406 63 406 63 339 63 c 0,7,8
 248 63 248 63 198 124 c 128,-1,9
 148 185 148 185 148 293 c 2,10,-1
 148 397 l 2,11,12
 148 505 148 505 198.5 570 c 128,-1,13
 249 635 249 635 339 635 c 0,14,15
 404 635 404 635 447 603 c 128,-1,16
 490 571 490 571 511 516 c 1,17,-1
 579 557 l 1,18,19
 510 710 510 710 339 710 c 0,20,21
 206 710 206 710 132 615.5 c 128,-1,22
 58 521 58 521 58 345 c 256,23,24
 58 169 58 169 132 78.5 c 128,-1,25
 206 -12 206 -12 339 -12 c 0,0,1
455 761 m 1,26,-1
 499 792 l 1,27,-1
 388 935 l 1,28,-1
 288 935 l 1,29,-1
 177 792 l 1,30,-1
 221 761 l 1,31,-1
 338 878 l 1,32,-1
 455 761 l 1,26,-1
EndSplineSet
EndChar

StartChar: Cdot
Encoding: 266 266 31
Width: 621
GlyphClass: 5
Flags: W
LayerCount: 2
Fore
SplineSet
339 -12 m 0,0,1
 427 -12 427 -12 489 30 c 128,-1,2
 551 72 551 72 584 147 c 1,3,-1
 517 189 l 1,4,5
 496 131 496 131 451 97 c 128,-1,6
 406 63 406 63 339 63 c 0,7,8
 248 63 248 63 198 124 c 128,-1,9
 148 185 148 185 148 293 c 2,10,-1
 148 397 l 2,11,12
 148 505 148 505 198.5 570 c 128,-1,13
 249 635 249 635 339 635 c 0,14,15
 404 635 404 635 447 603 c 128,-1,16
 490 571 490 571 511 516 c 1,17,-1
 579 557 l 1,18,19
 510 710 510 710 339 710 c 0,20,21
 206 710 206 710 132 615.5 c 128,-1,22
 58 521 58 521 58 345 c 256,23,24
 58 169 58 169 132 78.5 c 128,-1,25
 206 -12 206 -12 339 -12 c 0,0,1
338 780 m 256,26,27
 394 780 394 780 394 833 c 2,28,-1
 394 847 l 2,29,30
 394 900 394 900 338 900 c 256,31,32
 282 900 282 900 282 847 c 2,33,-1
 282 833 l 2,34,35
 282 780 282 780 338 780 c 256,26,27
EndSplineSet
EndChar

StartChar: D
Encoding: 68 68 32
Width: 671
GlyphClass: 3
Flags: W
LayerCount: 2
Fore
SplineSet
327 0 m 2,0,1
 458 0 458 0 535.5 87.5 c 128,-1,2
 613 175 613 175 613 349 c 256,3,4
 613 523 613 523 535.5 610.5 c 128,-1,5
 458 698 458 698 327 698 c 2,6,-1
 93 698 l 1,7,-1
 93 0 l 1,8,-1
 327 0 l 2,0,1
327 74 m 2,9,-1
 177 74 l 1,10,-1
 177 624 l 1,11,-1
 327 624 l 2,12,13
 413 624 413 624 468 567 c 128,-1,14
 523 510 523 510 523 406 c 2,15,-1
 523 292 l 2,16,17
 523 189 523 189 468 131.5 c 128,-1,18
 413 74 413 74 327 74 c 2,9,-1
EndSplineSet
EndChar

StartChar: Dcaron
Encoding: 270 270 33
Width: 671
Flags: W
LayerCount: 2
Fore
SplineSet
327 0 m 2,0,1
 458 0 458 0 535.5 87.5 c 128,-1,2
 613 175 613 175 613 349 c 256,3,4
 613 523 613 523 535.5 610.5 c 128,-1,5
 458 698 458 698 327 698 c 2,6,-1
 93 698 l 1,7,-1
 93 0 l 1,8,-1
 327 0 l 2,0,1
327 74 m 2,9,-1
 177 74 l 1,10,-1
 177 624 l 1,11,-1
 327 624 l 2,12,13
 413 624 413 624 468 567 c 128,-1,14
 523 510 523 510 523 406 c 2,15,-1
 523 292 l 2,16,17
 523 189 523 189 468 131.5 c 128,-1,18
 413 74 413 74 327 74 c 2,9,-1
357 769 m 1,19,-1
 468 912 l 1,20,-1
 424 943 l 1,21,-1
 307 826 l 1,22,-1
 190 943 l 1,23,-1
 146 912 l 1,24,-1
 257 769 l 1,25,-1
 357 769 l 1,19,-1
EndSplineSet
EndChar

StartChar: E
Encoding: 69 69 34
Width: 583
GlyphClass: 5
Flags: W
LayerCount: 2
Fore
SplineSet
519 0 m 1,0,-1
 519 74 l 1,1,-1
 177 74 l 1,2,-1
 177 316 l 1,3,-1
 499 316 l 1,4,-1
 499 390 l 1,5,-1
 177 390 l 1,6,-1
 177 624 l 1,7,-1
 519 624 l 1,8,-1
 519 698 l 1,9,-1
 93 698 l 1,10,-1
 93 0 l 1,11,-1
 519 0 l 1,0,-1
EndSplineSet
EndChar

StartChar: Eacute
Encoding: 201 201 35
Width: 583
GlyphClass: 7
Flags: W
LayerCount: 2
Fore
SplineSet
519 0 m 1,0,-1
 519 74 l 1,1,-1
 177 74 l 1,2,-1
 177 316 l 1,3,-1
 499 316 l 1,4,-1
 499 390 l 1,5,-1
 177 390 l 1,6,-1
 177 624 l 1,7,-1
 519 624 l 1,8,-1
 519 698 l 1,9,-1
 93 698 l 1,10,-1
 93 0 l 1,11,-1
 519 0 l 1,0,-1
311 755 m 1,12,-1
 417 914 l 1,13,-1
 344 949 l 1,14,-1
 259 779 l 1,15,-1
 311 755 l 1,12,-1
EndSplineSet
EndChar

StartChar: Ebreve
Encoding: 276 276 36
Width: 583
Flags: W
LayerCount: 2
Fore
SplineSet
519 0 m 1,0,-1
 519 74 l 1,1,-1
 177 74 l 1,2,-1
 177 316 l 1,3,-1
 499 316 l 1,4,-1
 499 390 l 1,5,-1
 177 390 l 1,6,-1
 177 624 l 1,7,-1
 519 624 l 1,8,-1
 519 698 l 1,9,-1
 93 698 l 1,10,-1
 93 0 l 1,11,-1
 519 0 l 1,0,-1
304 766 m 0,12,13
 377 766 377 766 414 808 c 0,14,15
 445 847 445 847 456 891 c 1,16,-1
 411 913 l 1,17,-1
 390 880 l 2,18,19
 377 857 377 857 359.5 843 c 128,-1,20
 342 829 342 829 304 829 c 256,21,22
 266 829 266 829 248 843.5 c 128,-1,23
 230 858 230 858 218 880 c 2,24,-1
 197 913 l 1,25,-1
 152 891 l 1,26,27
 185 766 185 766 304 766 c 0,12,13
EndSplineSet
EndChar

StartChar: Ecaron
Encoding: 282 282 37
Width: 583
Flags: W
LayerCount: 2
Fore
SplineSet
519 0 m 1,0,-1
 519 74 l 1,1,-1
 177 74 l 1,2,-1
 177 316 l 1,3,-1
 499 316 l 1,4,-1
 499 390 l 1,5,-1
 177 390 l 1,6,-1
 177 624 l 1,7,-1
 519 624 l 1,8,-1
 519 698 l 1,9,-1
 93 698 l 1,10,-1
 93 0 l 1,11,-1
 519 0 l 1,0,-1
354 769 m 1,12,-1
 465 912 l 1,13,-1
 421 943 l 1,14,-1
 304 826 l 1,15,-1
 187 943 l 1,16,-1
 143 912 l 1,17,-1
 254 769 l 1,18,-1
 354 769 l 1,12,-1
EndSplineSet
EndChar

StartChar: Ecircumflex
Encoding: 202 202 38
Width: 583
Flags: W
LayerCount: 2
Fore
SplineSet
519 0 m 1,0,-1
 519 74 l 1,1,-1
 177 74 l 1,2,-1
 177 316 l 1,3,-1
 499 316 l 1,4,-1
 499 390 l 1,5,-1
 177 390 l 1,6,-1
 177 624 l 1,7,-1
 519 624 l 1,8,-1
 519 698 l 1,9,-1
 93 698 l 1,10,-1
 93 0 l 1,11,-1
 519 0 l 1,0,-1
421 761 m 1,12,-1
 465 792 l 1,13,-1
 354 935 l 1,14,-1
 254 935 l 1,15,-1
 143 792 l 1,16,-1
 187 761 l 1,17,-1
 304 878 l 1,18,-1
 421 761 l 1,12,-1
EndSplineSet
EndChar

StartChar: Ecircumflexacute
Encoding: 7870 7870 39
Width: 583
GlyphClass: 2
Flags: W
LayerCount: 2
Fore
SplineSet
519 0 m 1,0,-1
 519 74 l 1,1,-1
 177 74 l 1,2,-1
 177 316 l 1,3,-1
 499 316 l 1,4,-1
 499 390 l 1,5,-1
 177 390 l 1,6,-1
 177 624 l 1,7,-1
 519 624 l 1,8,-1
 519 698 l 1,9,-1
 93 698 l 1,10,-1
 93 0 l 1,11,-1
 519 0 l 1,0,-1
458 868 m 1,12,-1
 564 1027 l 1,13,-1
 494 1061 l 1,14,-1
 409 891 l 1,15,-1
 458 868 l 1,12,-1
423 751 m 1,16,-1
 464 781 l 1,17,-1
 354 915 l 1,18,-1
 254 915 l 1,19,-1
 144 781 l 1,20,-1
 185 751 l 1,21,-1
 304 863 l 1,22,-1
 423 751 l 1,16,-1
EndSplineSet
EndChar

StartChar: Ecircumflexdotbelow
Encoding: 7878 7878 40
Width: 583
Flags: W
LayerCount: 2
Fore
SplineSet
519 0 m 1,0,-1
 519 74 l 1,1,-1
 177 74 l 1,2,-1
 177 316 l 1,3,-1
 499 316 l 1,4,-1
 499 390 l 1,5,-1
 177 390 l 1,6,-1
 177 624 l 1,7,-1
 519 624 l 1,8,-1
 519 698 l 1,9,-1
 93 698 l 1,10,-1
 93 0 l 1,11,-1
 519 0 l 1,0,-1
421 761 m 1,12,-1
 465 792 l 1,13,-1
 354 935 l 1,14,-1
 254 935 l 1,15,-1
 143 792 l 1,16,-1
 187 761 l 1,17,-1
 304 878 l 1,18,-1
 421 761 l 1,12,-1
304 -169 m 256,19,20
 355 -169 355 -169 355 -123 c 2,21,-1
 355 -112 l 2,22,23
 355 -66 355 -66 304 -66 c 256,24,25
 253 -66 253 -66 253 -112 c 2,26,-1
 253 -123 l 2,27,28
 253 -169 253 -169 304 -169 c 256,19,20
EndSplineSet
EndChar

StartChar: Ecircumflexgrave
Encoding: 7872 7872 41
Width: 583
GlyphClass: 5
Flags: W
LayerCount: 2
Fore
SplineSet
519 0 m 1,0,-1
 519 74 l 1,1,-1
 177 74 l 1,2,-1
 177 316 l 1,3,-1
 499 316 l 1,4,-1
 499 390 l 1,5,-1
 177 390 l 1,6,-1
 177 624 l 1,7,-1
 519 624 l 1,8,-1
 519 698 l 1,9,-1
 93 698 l 1,10,-1
 93 0 l 1,11,-1
 519 0 l 1,0,-1
150 868 m 1,12,-1
 199 891 l 1,13,-1
 114 1061 l 1,14,-1
 44 1027 l 1,15,-1
 150 868 l 1,12,-1
423 751 m 1,16,-1
 464 781 l 1,17,-1
 354 915 l 1,18,-1
 254 915 l 1,19,-1
 144 781 l 1,20,-1
 185 751 l 1,21,-1
 304 863 l 1,22,-1
 423 751 l 1,16,-1
EndSplineSet
EndChar

StartChar: Ecircumflexhookabove
Encoding: 7874 7874 42
Width: 583
Flags: W
LayerCount: 2
Fore
SplineSet
519 0 m 1,0,-1
 519 74 l 1,1,-1
 177 74 l 1,2,-1
 177 316 l 1,3,-1
 499 316 l 1,4,-1
 499 390 l 1,5,-1
 177 390 l 1,6,-1
 177 624 l 1,7,-1
 519 624 l 1,8,-1
 519 698 l 1,9,-1
 93 698 l 1,10,-1
 93 0 l 1,11,-1
 519 0 l 1,0,-1
460 862 m 1,12,-1
 484 892 l 2,13,14
 533 952 533 952 533 995 c 0,15,16
 533 1050 533 1050 463 1050 c 2,17,-1
 354 1050 l 1,18,-1
 354 992 l 1,19,-1
 476 992 l 1,20,-1
 416 885 l 1,21,-1
 460 862 l 1,12,-1
423 751 m 1,22,-1
 464 781 l 1,23,-1
 354 915 l 1,24,-1
 254 915 l 1,25,-1
 144 781 l 1,26,-1
 185 751 l 1,27,-1
 304 863 l 1,28,-1
 423 751 l 1,22,-1
EndSplineSet
EndChar

StartChar: Ecircumflextilde
Encoding: 7876 7876 43
Width: 583
Flags: W
LayerCount: 2
Fore
SplineSet
519 0 m 1,0,-1
 519 74 l 1,1,-1
 177 74 l 1,2,-1
 177 316 l 1,3,-1
 499 316 l 1,4,-1
 499 390 l 1,5,-1
 177 390 l 1,6,-1
 177 624 l 1,7,-1
 519 624 l 1,8,-1
 519 698 l 1,9,-1
 93 698 l 1,10,-1
 93 0 l 1,11,-1
 519 0 l 1,0,-1
376 942 m 0,12,13
 436 942 436 942 471 995 c 1,14,-1
 440 1031 l 1,15,16
 425 1018 425 1018 412 1011 c 128,-1,17
 399 1004 399 1004 382 1004 c 0,18,19
 355 1004 355 1004 305 1031 c 0,20,21
 291 1040 291 1040 273.5 1047 c 128,-1,22
 256 1054 256 1054 232 1054 c 0,23,24
 172 1054 172 1054 137 1001 c 1,25,-1
 168 965 l 1,26,27
 183 978 183 978 196 985 c 128,-1,28
 209 992 209 992 226 992 c 0,29,30
 253 992 253 992 303 965 c 0,31,32
 317 956 317 956 334.5 949 c 128,-1,33
 352 942 352 942 376 942 c 0,12,13
423 751 m 1,34,-1
 464 781 l 1,35,-1
 354 915 l 1,36,-1
 254 915 l 1,37,-1
 144 781 l 1,38,-1
 185 751 l 1,39,-1
 304 863 l 1,40,-1
 423 751 l 1,34,-1
EndSplineSet
EndChar

StartChar: Edieresis
Encoding: 203 203 44
Width: 583
GlyphClass: 1
Flags: W
LayerCount: 2
Fore
SplineSet
519 0 m 1,0,-1
 519 74 l 1,1,-1
 177 74 l 1,2,-1
 177 316 l 1,3,-1
 499 316 l 1,4,-1
 499 390 l 1,5,-1
 177 390 l 1,6,-1
 177 624 l 1,7,-1
 519 624 l 1,8,-1
 519 698 l 1,9,-1
 93 698 l 1,10,-1
 93 0 l 1,11,-1
 519 0 l 1,0,-1
211 788 m 256,12,13
 261 788 261 788 261 835 c 2,14,-1
 261 847 l 2,15,16
 261 894 261 894 211 894 c 256,17,18
 161 894 161 894 161 847 c 2,19,-1
 161 835 l 2,20,21
 161 788 161 788 211 788 c 256,12,13
397 788 m 256,22,23
 447 788 447 788 447 835 c 2,24,-1
 447 847 l 2,25,26
 447 894 447 894 397 894 c 256,27,28
 347 894 347 894 347 847 c 2,29,-1
 347 835 l 2,30,31
 347 788 347 788 397 788 c 256,22,23
EndSplineSet
EndChar

StartChar: Edot
Encoding: 278 278 45
Width: 583
GlyphClass: 7
Flags: W
LayerCount: 2
Fore
SplineSet
519 0 m 1,0,-1
 519 74 l 1,1,-1
 177 74 l 1,2,-1
 177 316 l 1,3,-1
 499 316 l 1,4,-1
 499 390 l 1,5,-1
 177 390 l 1,6,-1
 177 624 l 1,7,-1
 519 624 l 1,8,-1
 519 698 l 1,9,-1
 93 698 l 1,10,-1
 93 0 l 1,11,-1
 519 0 l 1,0,-1
304 780 m 256,12,13
 360 780 360 780 360 833 c 2,14,-1
 360 847 l 2,15,16
 360 900 360 900 304 900 c 256,17,18
 248 900 248 900 248 847 c 2,19,-1
 248 833 l 2,20,21
 248 780 248 780 304 780 c 256,12,13
EndSplineSet
EndChar

StartChar: Edotbelow
Encoding: 7864 7864 46
Width: 583
GlyphClass: 1
Flags: W
LayerCount: 2
Fore
SplineSet
519 0 m 1,0,-1
 519 74 l 1,1,-1
 177 74 l 1,2,-1
 177 316 l 1,3,-1
 499 316 l 1,4,-1
 499 390 l 1,5,-1
 177 390 l 1,6,-1
 177 624 l 1,7,-1
 519 624 l 1,8,-1
 519 698 l 1,9,-1
 93 698 l 1,10,-1
 93 0 l 1,11,-1
 519 0 l 1,0,-1
304 -169 m 256,12,13
 355 -169 355 -169 355 -123 c 2,14,-1
 355 -112 l 2,15,16
 355 -66 355 -66 304 -66 c 256,17,18
 253 -66 253 -66 253 -112 c 2,19,-1
 253 -123 l 2,20,21
 253 -169 253 -169 304 -169 c 256,12,13
EndSplineSet
EndChar

StartChar: Egrave
Encoding: 200 200 47
Width: 583
GlyphClass: 1
Flags: W
LayerCount: 2
Fore
SplineSet
519 0 m 1,0,-1
 519 74 l 1,1,-1
 177 74 l 1,2,-1
 177 316 l 1,3,-1
 499 316 l 1,4,-1
 499 390 l 1,5,-1
 177 390 l 1,6,-1
 177 624 l 1,7,-1
 519 624 l 1,8,-1
 519 698 l 1,9,-1
 93 698 l 1,10,-1
 93 0 l 1,11,-1
 519 0 l 1,0,-1
297 755 m 1,12,-1
 349 779 l 1,13,-1
 264 949 l 1,14,-1
 191 914 l 1,15,-1
 297 755 l 1,12,-1
EndSplineSet
EndChar

StartChar: Ehookabove
Encoding: 7866 7866 48
Width: 583
GlyphClass: 3
Flags: W
LayerCount: 2
Fore
SplineSet
519 0 m 1,0,-1
 519 74 l 1,1,-1
 177 74 l 1,2,-1
 177 316 l 1,3,-1
 499 316 l 1,4,-1
 499 390 l 1,5,-1
 177 390 l 1,6,-1
 177 624 l 1,7,-1
 519 624 l 1,8,-1
 519 698 l 1,9,-1
 93 698 l 1,10,-1
 93 0 l 1,11,-1
 519 0 l 1,0,-1
326 747 m 1,12,-1
 350 777 l 2,13,14
 399 837 399 837 399 880 c 0,15,16
 399 935 399 935 329 935 c 2,17,-1
 220 935 l 1,18,-1
 220 874 l 1,19,-1
 338 874 l 1,20,-1
 280 770 l 1,21,-1
 326 747 l 1,12,-1
EndSplineSet
EndChar

StartChar: Emacron
Encoding: 274 274 49
Width: 583
GlyphClass: 5
Flags: W
LayerCount: 2
Fore
SplineSet
519 0 m 1,0,-1
 519 74 l 1,1,-1
 177 74 l 1,2,-1
 177 316 l 1,3,-1
 499 316 l 1,4,-1
 499 390 l 1,5,-1
 177 390 l 1,6,-1
 177 624 l 1,7,-1
 519 624 l 1,8,-1
 519 698 l 1,9,-1
 93 698 l 1,10,-1
 93 0 l 1,11,-1
 519 0 l 1,0,-1
444 807 m 1,12,-1
 444 875 l 1,13,-1
 164 875 l 1,14,-1
 164 807 l 1,15,-1
 444 807 l 1,12,-1
EndSplineSet
EndChar

StartChar: Eogonek
Encoding: 280 280 50
Width: 583
GlyphClass: 5
Flags: W
LayerCount: 2
Fore
SplineSet
452 -207 m 0,0,1
 487 -207 487 -207 509 -195.5 c 128,-1,2
 531 -184 531 -184 540 -168 c 1,3,-1
 500 -129 l 1,4,5
 481 -153 481 -153 452 -153 c 0,6,7
 421 -153 421 -153 421 -123 c 0,8,9
 421 -106 421 -106 439 -81.5 c 128,-1,10
 457 -57 457 -57 519 0 c 1,11,-1
 519 74 l 1,12,-1
 177 74 l 1,13,-1
 177 316 l 1,14,-1
 499 316 l 1,15,-1
 499 390 l 1,16,-1
 177 390 l 1,17,-1
 177 624 l 1,18,-1
 519 624 l 1,19,-1
 519 698 l 1,20,-1
 93 698 l 1,21,-1
 93 0 l 1,22,-1
 457 0 l 1,23,-1
 458 -5 l 1,24,25
 415 -32 415 -32 386 -62.5 c 128,-1,26
 357 -93 357 -93 357 -131 c 0,27,28
 357 -171 357 -171 385 -189 c 128,-1,29
 413 -207 413 -207 452 -207 c 0,0,1
EndSplineSet
EndChar

StartChar: Etilde
Encoding: 7868 7868 51
Width: 583
GlyphClass: 5
Flags: W
LayerCount: 2
Fore
SplineSet
519 0 m 1,0,-1
 519 74 l 1,1,-1
 177 74 l 1,2,-1
 177 316 l 1,3,-1
 499 316 l 1,4,-1
 499 390 l 1,5,-1
 177 390 l 1,6,-1
 177 624 l 1,7,-1
 519 624 l 1,8,-1
 519 698 l 1,9,-1
 93 698 l 1,10,-1
 93 0 l 1,11,-1
 519 0 l 1,0,-1
377 782 m 0,12,13
 437 782 437 782 472 835 c 1,14,-1
 439 875 l 1,15,16
 424 862 424 862 411 855 c 128,-1,17
 398 848 398 848 381 848 c 0,18,19
 354 848 354 848 304 875 c 0,20,21
 290 884 290 884 272.5 891 c 128,-1,22
 255 898 255 898 231 898 c 0,23,24
 171 898 171 898 136 845 c 1,25,-1
 169 805 l 1,26,27
 184 818 184 818 197 825 c 128,-1,28
 210 832 210 832 227 832 c 0,29,30
 254 832 254 832 304 805 c 0,31,32
 318 796 318 796 335.5 789 c 128,-1,33
 353 782 353 782 377 782 c 0,12,13
EndSplineSet
EndChar

StartChar: F
Encoding: 70 70 52
Width: 559
GlyphClass: 5
Flags: W
LayerCount: 2
Fore
SplineSet
177 0 m 1,0,-1
 177 316 l 1,1,-1
 480 316 l 1,2,-1
 480 390 l 1,3,-1
 177 390 l 1,4,-1
 177 624 l 1,5,-1
 509 624 l 1,6,-1
 509 698 l 1,7,-1
 93 698 l 1,8,-1
 93 0 l 1,9,-1
 177 0 l 1,0,-1
EndSplineSet
EndChar

StartChar: G
Encoding: 71 71 53
Width: 695
GlyphClass: 5
Flags: W
LayerCount: 2
Fore
SplineSet
348 -12 m 0,0,1
 428 -12 428 -12 478.5 20 c 128,-1,2
 529 52 529 52 542 102 c 1,3,-1
 545 102 l 1,4,-1
 545 0 l 1,5,-1
 623 0 l 1,6,-1
 623 359 l 1,7,-1
 387 359 l 1,8,-1
 387 285 l 1,9,-1
 541 285 l 1,10,-1
 541 216 l 2,11,12
 541 141 541 141 489 101 c 0,13,14
 435 63 435 63 363 63 c 0,15,16
 263 63 263 63 205.5 126.5 c 128,-1,17
 148 190 148 190 148 293 c 2,18,-1
 148 406 l 2,19,20
 148 510 148 510 206 572.5 c 128,-1,21
 264 635 264 635 355 635 c 0,22,23
 487 635 487 635 540 515 c 1,24,-1
 609 557 l 1,25,26
 575 627 575 627 512 668.5 c 128,-1,27
 449 710 449 710 355 710 c 0,28,29
 222 710 222 710 140 616.5 c 128,-1,30
 58 523 58 523 58 349 c 0,31,32
 58 174 58 174 139.5 81 c 128,-1,33
 221 -12 221 -12 348 -12 c 0,0,1
EndSplineSet
EndChar

StartChar: Gbreve
Encoding: 286 286 54
Width: 695
GlyphClass: 5
Flags: W
LayerCount: 2
Fore
SplineSet
348 -12 m 0,0,1
 428 -12 428 -12 478.5 20 c 128,-1,2
 529 52 529 52 542 102 c 1,3,-1
 545 102 l 1,4,-1
 545 0 l 1,5,-1
 623 0 l 1,6,-1
 623 359 l 1,7,-1
 387 359 l 1,8,-1
 387 285 l 1,9,-1
 541 285 l 1,10,-1
 541 216 l 2,11,12
 541 141 541 141 489 101 c 0,13,14
 435 63 435 63 363 63 c 0,15,16
 263 63 263 63 205.5 126.5 c 128,-1,17
 148 190 148 190 148 293 c 2,18,-1
 148 406 l 2,19,20
 148 510 148 510 206 572.5 c 128,-1,21
 264 635 264 635 355 635 c 0,22,23
 487 635 487 635 540 515 c 1,24,-1
 609 557 l 1,25,26
 575 627 575 627 512 668.5 c 128,-1,27
 449 710 449 710 355 710 c 0,28,29
 222 710 222 710 140 616.5 c 128,-1,30
 58 523 58 523 58 349 c 0,31,32
 58 174 58 174 139.5 81 c 128,-1,33
 221 -12 221 -12 348 -12 c 0,0,1
355 766 m 0,34,35
 428 766 428 766 465 808 c 0,36,37
 496 847 496 847 507 891 c 1,38,-1
 462 913 l 1,39,-1
 441 880 l 2,40,41
 428 857 428 857 410.5 843 c 128,-1,42
 393 829 393 829 355 829 c 256,43,44
 317 829 317 829 299 843.5 c 128,-1,45
 281 858 281 858 269 880 c 2,46,-1
 248 913 l 1,47,-1
 203 891 l 1,48,49
 236 766 236 766 355 766 c 0,34,35
EndSplineSet
EndChar

StartChar: Gcedilla
Encoding: 290 290 55
Width: 695
GlyphClass: 5
Flags: W
LayerCount: 2
Fore
SplineSet
348 -12 m 0,0,1
 428 -12 428 -12 478.5 20 c 128,-1,2
 529 52 529 52 542 102 c 1,3,-1
 545 102 l 1,4,-1
 545 0 l 1,5,-1
 623 0 l 1,6,-1
 623 359 l 1,7,-1
 387 359 l 1,8,-1
 387 285 l 1,9,-1
 541 285 l 1,10,-1
 541 216 l 2,11,12
 541 141 541 141 489 101 c 0,13,14
 435 63 435 63 363 63 c 0,15,16
 263 63 263 63 205.5 126.5 c 128,-1,17
 148 190 148 190 148 293 c 2,18,-1
 148 406 l 2,19,20
 148 510 148 510 206 572.5 c 128,-1,21
 264 635 264 635 355 635 c 0,22,23
 487 635 487 635 540 515 c 1,24,-1
 609 557 l 1,25,26
 575 627 575 627 512 668.5 c 128,-1,27
 449 710 449 710 355 710 c 0,28,29
 222 710 222 710 140 616.5 c 128,-1,30
 58 523 58 523 58 349 c 0,31,32
 58 174 58 174 139.5 81 c 128,-1,33
 221 -12 221 -12 348 -12 c 0,0,1
339 -245 m 1,34,35
 399 -188 399 -188 399 -124 c 2,36,-1
 399 -113 l 2,37,38
 399 -69 399 -69 348 -66 c 0,39,40
 299 -66 299 -66 297 -113 c 2,41,-1
 297 -123 l 2,42,43
 297 -157 297 -157 332 -167 c 1,44,45
 325 -190 325 -190 313 -207.5 c 128,-1,46
 301 -225 301 -225 281 -245 c 1,47,-1
 339 -245 l 1,34,35
EndSplineSet
EndChar

StartChar: Gcircumflex
Encoding: 284 284 56
Width: 695
GlyphClass: 5
Flags: W
LayerCount: 2
Fore
SplineSet
348 -12 m 0,0,1
 428 -12 428 -12 478.5 20 c 128,-1,2
 529 52 529 52 542 102 c 1,3,-1
 545 102 l 1,4,-1
 545 0 l 1,5,-1
 623 0 l 1,6,-1
 623 359 l 1,7,-1
 387 359 l 1,8,-1
 387 285 l 1,9,-1
 541 285 l 1,10,-1
 541 216 l 2,11,12
 541 141 541 141 489 101 c 0,13,14
 435 63 435 63 363 63 c 0,15,16
 263 63 263 63 205.5 126.5 c 128,-1,17
 148 190 148 190 148 293 c 2,18,-1
 148 406 l 2,19,20
 148 510 148 510 206 572.5 c 128,-1,21
 264 635 264 635 355 635 c 0,22,23
 487 635 487 635 540 515 c 1,24,-1
 609 557 l 1,25,26
 575 627 575 627 512 668.5 c 128,-1,27
 449 710 449 710 355 710 c 0,28,29
 222 710 222 710 140 616.5 c 128,-1,30
 58 523 58 523 58 349 c 0,31,32
 58 174 58 174 139.5 81 c 128,-1,33
 221 -12 221 -12 348 -12 c 0,0,1
472 761 m 1,34,-1
 516 792 l 1,35,-1
 405 935 l 1,36,-1
 305 935 l 1,37,-1
 194 792 l 1,38,-1
 238 761 l 1,39,-1
 355 878 l 1,40,-1
 472 761 l 1,34,-1
EndSplineSet
EndChar

StartChar: Gdot
Encoding: 288 288 57
Width: 695
GlyphClass: 5
Flags: W
LayerCount: 2
Fore
SplineSet
348 -12 m 0,0,1
 428 -12 428 -12 478.5 20 c 128,-1,2
 529 52 529 52 542 102 c 1,3,-1
 545 102 l 1,4,-1
 545 0 l 1,5,-1
 623 0 l 1,6,-1
 623 359 l 1,7,-1
 387 359 l 1,8,-1
 387 285 l 1,9,-1
 541 285 l 1,10,-1
 541 216 l 2,11,12
 541 141 541 141 489 101 c 0,13,14
 435 63 435 63 363 63 c 0,15,16
 263 63 263 63 205.5 126.5 c 128,-1,17
 148 190 148 190 148 293 c 2,18,-1
 148 406 l 2,19,20
 148 510 148 510 206 572.5 c 128,-1,21
 264 635 264 635 355 635 c 0,22,23
 487 635 487 635 540 515 c 1,24,-1
 609 557 l 1,25,26
 575 627 575 627 512 668.5 c 128,-1,27
 449 710 449 710 355 710 c 0,28,29
 222 710 222 710 140 616.5 c 128,-1,30
 58 523 58 523 58 349 c 0,31,32
 58 174 58 174 139.5 81 c 128,-1,33
 221 -12 221 -12 348 -12 c 0,0,1
355 780 m 256,34,35
 411 780 411 780 411 833 c 2,36,-1
 411 847 l 2,37,38
 411 900 411 900 355 900 c 256,39,40
 299 900 299 900 299 847 c 2,41,-1
 299 833 l 2,42,43
 299 780 299 780 355 780 c 256,34,35
EndSplineSet
EndChar

StartChar: H
Encoding: 72 72 58
Width: 707
GlyphClass: 5
Flags: W
LayerCount: 2
Fore
SplineSet
614 0 m 1,0,-1
 614 698 l 1,1,-1
 530 698 l 1,2,-1
 530 390 l 1,3,-1
 177 390 l 1,4,-1
 177 698 l 1,5,-1
 93 698 l 1,6,-1
 93 0 l 1,7,-1
 177 0 l 1,8,-1
 177 316 l 1,9,-1
 530 316 l 1,10,-1
 530 0 l 1,11,-1
 614 0 l 1,0,-1
EndSplineSet
EndChar

StartChar: Hcircumflex
Encoding: 292 292 59
Width: 707
GlyphClass: 7
Flags: W
LayerCount: 2
Fore
SplineSet
614 0 m 1,0,-1
 614 698 l 1,1,-1
 530 698 l 1,2,-1
 530 390 l 1,3,-1
 177 390 l 1,4,-1
 177 698 l 1,5,-1
 93 698 l 1,6,-1
 93 0 l 1,7,-1
 177 0 l 1,8,-1
 177 316 l 1,9,-1
 530 316 l 1,10,-1
 530 0 l 1,11,-1
 614 0 l 1,0,-1
471 761 m 1,12,-1
 515 792 l 1,13,-1
 404 935 l 1,14,-1
 304 935 l 1,15,-1
 193 792 l 1,16,-1
 237 761 l 1,17,-1
 354 878 l 1,18,-1
 471 761 l 1,12,-1
EndSplineSet
EndChar

StartChar: I
Encoding: 73 73 60
Width: 270
GlyphClass: 5
Flags: W
LayerCount: 2
Fore
SplineSet
177 0 m 1,0,-1
 177 698 l 1,1,-1
 93 698 l 1,2,-1
 93 0 l 1,3,-1
 177 0 l 1,0,-1
EndSplineSet
EndChar

StartChar: Iacute
Encoding: 205 205 61
Width: 270
GlyphClass: 5
Flags: W
LayerCount: 2
Fore
SplineSet
143 755 m 1,0,-1
 249 914 l 1,1,-1
 176 949 l 1,2,-1
 91 779 l 1,3,-1
 143 755 l 1,0,-1
177 0 m 1,4,-1
 177 698 l 1,5,-1
 93 698 l 1,6,-1
 93 0 l 1,7,-1
 177 0 l 1,4,-1
EndSplineSet
EndChar

StartChar: Ibreve
Encoding: 300 300 62
Width: 270
GlyphClass: 5
Flags: W
LayerCount: 2
Fore
SplineSet
136 766 m 0,0,1
 209 766 209 766 246 808 c 0,2,3
 277 847 277 847 288 891 c 1,4,-1
 243 913 l 1,5,-1
 222 880 l 2,6,7
 209 857 209 857 191.5 843 c 128,-1,8
 174 829 174 829 136 829 c 256,9,10
 98 829 98 829 80 843.5 c 128,-1,11
 62 858 62 858 50 880 c 2,12,-1
 29 913 l 1,13,-1
 -16 891 l 1,14,15
 17 766 17 766 136 766 c 0,0,1
177 0 m 1,16,-1
 177 698 l 1,17,-1
 93 698 l 1,18,-1
 93 0 l 1,19,-1
 177 0 l 1,16,-1
EndSplineSet
EndChar

StartChar: Icircumflex
Encoding: 206 206 63
Width: 270
GlyphClass: 7
Flags: W
LayerCount: 2
Fore
SplineSet
253 761 m 1,0,-1
 297 792 l 1,1,-1
 186 935 l 1,2,-1
 86 935 l 1,3,-1
 -25 792 l 1,4,-1
 19 761 l 1,5,-1
 136 878 l 1,6,-1
 253 761 l 1,0,-1
177 0 m 1,7,-1
 177 698 l 1,8,-1
 93 698 l 1,9,-1
 93 0 l 1,10,-1
 177 0 l 1,7,-1
EndSplineSet
EndChar

StartChar: Idieresis
Encoding: 207 207 64
Width: 270
GlyphClass: 7
Flags: W
LayerCount: 2
Fore
SplineSet
43 788 m 256,0,1
 93 788 93 788 93 835 c 2,2,-1
 93 847 l 2,3,4
 93 894 93 894 43 894 c 256,5,6
 -7 894 -7 894 -7 847 c 2,7,-1
 -7 835 l 2,8,9
 -7 788 -7 788 43 788 c 256,0,1
229 788 m 256,10,11
 279 788 279 788 279 835 c 2,12,-1
 279 847 l 2,13,14
 279 894 279 894 229 894 c 256,15,16
 179 894 179 894 179 847 c 2,17,-1
 179 835 l 2,18,19
 179 788 179 788 229 788 c 256,10,11
177 0 m 1,20,-1
 177 698 l 1,21,-1
 93 698 l 1,22,-1
 93 0 l 1,23,-1
 177 0 l 1,20,-1
EndSplineSet
EndChar

StartChar: Idot
Encoding: 304 304 65
Width: 270
GlyphClass: 1
Flags: W
LayerCount: 2
Fore
SplineSet
136 780 m 256,0,1
 192 780 192 780 192 833 c 2,2,-1
 192 847 l 2,3,4
 192 900 192 900 136 900 c 256,5,6
 80 900 80 900 80 847 c 2,7,-1
 80 833 l 2,8,9
 80 780 80 780 136 780 c 256,0,1
177 0 m 1,10,-1
 177 698 l 1,11,-1
 93 698 l 1,12,-1
 93 0 l 1,13,-1
 177 0 l 1,10,-1
EndSplineSet
EndChar

StartChar: Idotbelow
Encoding: 7882 7882 66
Width: 270
GlyphClass: 7
Flags: W
LayerCount: 2
Fore
SplineSet
135 -169 m 256,0,1
 186 -169 186 -169 186 -123 c 2,2,-1
 186 -112 l 2,3,4
 186 -66 186 -66 135 -66 c 256,5,6
 84 -66 84 -66 84 -112 c 2,7,-1
 84 -123 l 2,8,9
 84 -169 84 -169 135 -169 c 256,0,1
177 0 m 1,10,-1
 177 698 l 1,11,-1
 93 698 l 1,12,-1
 93 0 l 1,13,-1
 177 0 l 1,10,-1
EndSplineSet
EndChar

StartChar: Igrave
Encoding: 204 204 67
Width: 270
GlyphClass: 7
Flags: W
LayerCount: 2
Fore
SplineSet
129 755 m 1,0,-1
 181 779 l 1,1,-1
 96 949 l 1,2,-1
 23 914 l 1,3,-1
 129 755 l 1,0,-1
177 0 m 1,4,-1
 177 698 l 1,5,-1
 93 698 l 1,6,-1
 93 0 l 1,7,-1
 177 0 l 1,4,-1
EndSplineSet
EndChar

StartChar: Ihookabove
Encoding: 7880 7880 68
Width: 270
GlyphClass: 7
Flags: W
LayerCount: 2
Fore
SplineSet
157 747 m 1,0,-1
 181 777 l 2,1,2
 230 837 230 837 230 880 c 0,3,4
 230 935 230 935 160 935 c 2,5,-1
 51 935 l 1,6,-1
 51 874 l 1,7,-1
 169 874 l 1,8,-1
 111 770 l 1,9,-1
 157 747 l 1,0,-1
177 0 m 1,10,-1
 177 698 l 1,11,-1
 93 698 l 1,12,-1
 93 0 l 1,13,-1
 177 0 l 1,10,-1
EndSplineSet
EndChar

StartChar: Imacron
Encoding: 298 298 69
Width: 270
GlyphClass: 7
Flags: W
LayerCount: 2
Fore
SplineSet
276 807 m 1,0,-1
 276 875 l 1,1,-1
 -4 875 l 1,2,-1
 -4 807 l 1,3,-1
 276 807 l 1,0,-1
177 0 m 1,4,-1
 177 698 l 1,5,-1
 93 698 l 1,6,-1
 93 0 l 1,7,-1
 177 0 l 1,4,-1
EndSplineSet
EndChar

StartChar: Iogonek
Encoding: 302 302 70
Width: 270
GlyphClass: 7
Flags: W
LayerCount: 2
Fore
SplineSet
110 -207 m 0,0,1
 145 -207 145 -207 167 -195.5 c 128,-1,2
 189 -184 189 -184 198 -168 c 1,3,-1
 158 -129 l 1,4,5
 139 -153 139 -153 110 -153 c 0,6,7
 79 -153 79 -153 79 -123 c 0,8,9
 79 -106 79 -106 97 -81.5 c 128,-1,10
 115 -57 115 -57 177 0 c 1,11,-1
 177 698 l 1,12,-1
 93 698 l 1,13,-1
 93 0 l 1,14,-1
 115 0 l 1,15,-1
 116 -5 l 1,16,17
 68 -36 68 -36 41.5 -64.5 c 128,-1,18
 15 -93 15 -93 15 -131 c 0,19,20
 15 -171 15 -171 43 -189 c 128,-1,21
 71 -207 71 -207 110 -207 c 0,0,1
EndSplineSet
EndChar

StartChar: Itilde
Encoding: 296 296 71
Width: 270
GlyphClass: 7
Flags: W
LayerCount: 2
Fore
SplineSet
209 782 m 0,0,1
 269 782 269 782 304 835 c 1,2,-1
 271 875 l 1,3,4
 256 862 256 862 243 855 c 128,-1,5
 230 848 230 848 213 848 c 0,6,7
 186 848 186 848 136 875 c 0,8,9
 122 884 122 884 104.5 891 c 128,-1,10
 87 898 87 898 63 898 c 0,11,12
 3 898 3 898 -32 845 c 1,13,-1
 1 805 l 1,14,15
 16 818 16 818 29 825 c 128,-1,16
 42 832 42 832 59 832 c 0,17,18
 86 832 86 832 136 805 c 0,19,20
 150 796 150 796 167.5 789 c 128,-1,21
 185 782 185 782 209 782 c 0,0,1
177 0 m 1,22,-1
 177 698 l 1,23,-1
 93 698 l 1,24,-1
 93 0 l 1,25,-1
 177 0 l 1,22,-1
EndSplineSet
EndChar

StartChar: J
Encoding: 74 74 72
Width: 510
GlyphClass: 7
Flags: W
LayerCount: 2
Fore
SplineSet
222 -12 m 0,0,1
 311 -12 311 -12 366.5 40.5 c 128,-1,2
 422 93 422 93 422 181 c 2,3,-1
 422 698 l 1,4,-1
 338 698 l 1,5,-1
 338 196 l 2,6,7
 338 129 338 129 308 96 c 128,-1,8
 278 63 278 63 224 63 c 0,9,10
 125 63 125 63 104 165 c 1,11,-1
 28 147 l 1,12,13
 42 74 42 74 91.5 31 c 128,-1,14
 141 -12 141 -12 222 -12 c 0,0,1
EndSplineSet
EndChar

StartChar: Jcircumflex
Encoding: 308 308 73
Width: 510
GlyphClass: 7
Flags: W
LayerCount: 2
Fore
SplineSet
222 -12 m 0,0,1
 141 -12 141 -12 91.5 31 c 128,-1,2
 42 74 42 74 28 147 c 1,3,-1
 104 165 l 1,4,5
 125 63 125 63 224 63 c 0,6,7
 278 63 278 63 308 96 c 128,-1,8
 338 129 338 129 338 196 c 2,9,-1
 338 698 l 1,10,-1
 422 698 l 1,11,-1
 422 181 l 2,12,13
 422 93 422 93 366.5 40.5 c 128,-1,14
 311 -12 311 -12 222 -12 c 0,0,1
381 761 m 1,15,-1
 264 878 l 1,16,-1
 147 761 l 1,17,-1
 103 792 l 1,18,-1
 214 935 l 1,19,-1
 314 935 l 1,20,-1
 425 792 l 1,21,-1
 381 761 l 1,15,-1
EndSplineSet
EndChar

StartChar: K
Encoding: 75 75 74
Width: 634
GlyphClass: 7
Flags: W
LayerCount: 2
Fore
SplineSet
612 0 m 1,0,-1
 334 399 l 1,1,-1
 594 698 l 1,2,-1
 491 698 l 1,3,4
 335 513 335 513 180 327 c 1,5,-1
 177 327 l 1,6,-1
 177 698 l 1,7,-1
 93 698 l 1,8,-1
 93 0 l 1,9,-1
 177 0 l 1,10,-1
 177 233 l 1,11,-1
 276 343 l 1,12,-1
 508 0 l 1,13,-1
 612 0 l 1,0,-1
EndSplineSet
EndChar

StartChar: Kcedilla
Encoding: 310 310 75
Width: 634
GlyphClass: 7
Flags: W
LayerCount: 2
Fore
SplineSet
612 0 m 1,0,-1
 334 399 l 1,1,-1
 594 698 l 1,2,-1
 491 698 l 1,3,4
 335 513 335 513 180 327 c 1,5,-1
 177 327 l 1,6,-1
 177 698 l 1,7,-1
 93 698 l 1,8,-1
 93 0 l 1,9,-1
 177 0 l 1,10,-1
 177 233 l 1,11,-1
 276 343 l 1,12,-1
 508 0 l 1,13,-1
 612 0 l 1,0,-1
327 -245 m 1,14,15
 387 -188 387 -188 387 -124 c 2,16,-1
 387 -113 l 2,17,18
 387 -69 387 -69 336 -66 c 0,19,20
 287 -66 287 -66 285 -113 c 2,21,-1
 285 -123 l 2,22,23
 285 -157 285 -157 320 -167 c 1,24,25
 313 -190 313 -190 301 -207.5 c 128,-1,26
 289 -225 289 -225 269 -245 c 1,27,-1
 327 -245 l 1,14,15
EndSplineSet
EndChar

StartChar: L
Encoding: 76 76 76
Width: 501
GlyphClass: 7
Flags: W
LayerCount: 2
Fore
SplineSet
474 0 m 1,0,-1
 474 74 l 1,1,-1
 177 74 l 1,2,-1
 177 698 l 1,3,-1
 93 698 l 1,4,-1
 93 0 l 1,5,-1
 474 0 l 1,0,-1
EndSplineSet
EndChar

StartChar: Lacute
Encoding: 313 313 77
Width: 501
GlyphClass: 7
Flags: W
LayerCount: 2
Fore
SplineSet
474 0 m 1,0,-1
 474 74 l 1,1,-1
 177 74 l 1,2,-1
 177 698 l 1,3,-1
 93 698 l 1,4,-1
 93 0 l 1,5,-1
 474 0 l 1,0,-1
143 755 m 1,6,-1
 249 914 l 1,7,-1
 176 949 l 1,8,-1
 91 779 l 1,9,-1
 143 755 l 1,6,-1
EndSplineSet
EndChar

StartChar: Lcaron
Encoding: 317 317 78
Width: 501
GlyphClass: 7
Flags: W
LayerCount: 2
Fore
SplineSet
474 0 m 1,0,-1
 474 74 l 1,1,-1
 177 74 l 1,2,-1
 177 698 l 1,3,-1
 93 698 l 1,4,-1
 93 0 l 1,5,-1
 474 0 l 1,0,-1
309 555 m 1,6,-1
 361 740 l 1,7,-1
 268 740 l 1,8,-1
 256 555 l 1,9,-1
 309 555 l 1,6,-1
EndSplineSet
EndChar

StartChar: Lcedilla
Encoding: 315 315 79
Width: 501
GlyphClass: 7
Flags: W
LayerCount: 2
Fore
SplineSet
474 0 m 1,0,-1
 474 74 l 1,1,-1
 177 74 l 1,2,-1
 177 698 l 1,3,-1
 93 698 l 1,4,-1
 93 0 l 1,5,-1
 474 0 l 1,0,-1
289 -245 m 1,6,7
 349 -188 349 -188 349 -124 c 2,8,-1
 349 -113 l 2,9,10
 349 -69 349 -69 298 -66 c 0,11,12
 249 -66 249 -66 247 -113 c 2,13,-1
 247 -123 l 2,14,15
 247 -157 247 -157 282 -167 c 1,16,17
 275 -190 275 -190 263 -207.5 c 128,-1,18
 251 -225 251 -225 231 -245 c 1,19,-1
 289 -245 l 1,6,7
EndSplineSet
EndChar

StartChar: M
Encoding: 77 77 80
Width: 812
GlyphClass: 7
Flags: W
LayerCount: 2
Fore
SplineSet
719 0 m 1,0,-1
 719 698 l 1,1,-1
 611 698 l 1,2,-1
 410 322 l 1,3,-1
 405 322 l 1,4,-1
 205 698 l 1,5,-1
 93 698 l 1,6,-1
 93 0 l 1,7,-1
 175 0 l 1,8,-1
 175 588 l 1,9,-1
 180 588 l 1,10,-1
 239 471 l 1,11,-1
 406 167 l 1,12,-1
 573 471 l 1,13,-1
 632 588 l 1,14,-1
 637 588 l 1,15,-1
 637 0 l 1,16,-1
 719 0 l 1,0,-1
EndSplineSet
EndChar

StartChar: N
Encoding: 78 78 81
Width: 707
GlyphClass: 7
Flags: W
LayerCount: 2
Fore
SplineSet
614 0 m 1,0,-1
 614 698 l 1,1,-1
 532 698 l 1,2,-1
 532 117 l 1,3,-1
 529 117 l 1,4,-1
 445 272 l 1,5,-1
 190 698 l 1,6,-1
 93 698 l 1,7,-1
 93 0 l 1,8,-1
 175 0 l 1,9,-1
 175 581 l 1,10,-1
 178 581 l 1,11,-1
 262 426 l 1,12,-1
 517 0 l 1,13,-1
 614 0 l 1,0,-1
EndSplineSet
EndChar

StartChar: Nacute
Encoding: 323 323 82
Width: 707
GlyphClass: 1
Flags: W
LayerCount: 2
Fore
SplineSet
614 0 m 1,0,-1
 614 698 l 1,1,-1
 532 698 l 1,2,-1
 532 117 l 1,3,-1
 529 117 l 1,4,-1
 445 272 l 1,5,-1
 190 698 l 1,6,-1
 93 698 l 1,7,-1
 93 0 l 1,8,-1
 175 0 l 1,9,-1
 175 581 l 1,10,-1
 178 581 l 1,11,-1
 262 426 l 1,12,-1
 517 0 l 1,13,-1
 614 0 l 1,0,-1
360 755 m 1,14,-1
 466 914 l 1,15,-1
 393 949 l 1,16,-1
 308 779 l 1,17,-1
 360 755 l 1,14,-1
EndSplineSet
EndChar

StartChar: Ncaron
Encoding: 327 327 83
Width: 707
GlyphClass: 7
Flags: W
LayerCount: 2
Fore
SplineSet
614 0 m 1,0,-1
 614 698 l 1,1,-1
 532 698 l 1,2,-1
 532 117 l 1,3,-1
 529 117 l 1,4,-1
 445 272 l 1,5,-1
 190 698 l 1,6,-1
 93 698 l 1,7,-1
 93 0 l 1,8,-1
 175 0 l 1,9,-1
 175 581 l 1,10,-1
 178 581 l 1,11,-1
 262 426 l 1,12,-1
 517 0 l 1,13,-1
 614 0 l 1,0,-1
403 769 m 1,14,-1
 514 912 l 1,15,-1
 470 943 l 1,16,-1
 353 826 l 1,17,-1
 236 943 l 1,18,-1
 192 912 l 1,19,-1
 303 769 l 1,20,-1
 403 769 l 1,14,-1
EndSplineSet
EndChar

StartChar: Ncedilla
Encoding: 325 325 84
Width: 707
Flags: W
LayerCount: 2
Fore
SplineSet
614 0 m 1,0,-1
 614 698 l 1,1,-1
 532 698 l 1,2,-1
 532 117 l 1,3,-1
 529 117 l 1,4,-1
 445 272 l 1,5,-1
 190 698 l 1,6,-1
 93 698 l 1,7,-1
 93 0 l 1,8,-1
 175 0 l 1,9,-1
 175 581 l 1,10,-1
 178 581 l 1,11,-1
 262 426 l 1,12,-1
 517 0 l 1,13,-1
 614 0 l 1,0,-1
344 -245 m 1,14,15
 404 -188 404 -188 404 -124 c 2,16,-1
 404 -113 l 2,17,18
 404 -69 404 -69 353 -66 c 0,19,20
 304 -66 304 -66 302 -113 c 2,21,-1
 302 -123 l 2,22,23
 302 -157 302 -157 337 -167 c 1,24,25
 330 -190 330 -190 318 -207.5 c 128,-1,26
 306 -225 306 -225 286 -245 c 1,27,-1
 344 -245 l 1,14,15
EndSplineSet
EndChar

StartChar: Ntilde
Encoding: 209 209 85
Width: 707
Flags: W
LayerCount: 2
Fore
SplineSet
614 0 m 1,0,-1
 614 698 l 1,1,-1
 532 698 l 1,2,-1
 532 117 l 1,3,-1
 529 117 l 1,4,-1
 445 272 l 1,5,-1
 190 698 l 1,6,-1
 93 698 l 1,7,-1
 93 0 l 1,8,-1
 175 0 l 1,9,-1
 175 581 l 1,10,-1
 178 581 l 1,11,-1
 262 426 l 1,12,-1
 517 0 l 1,13,-1
 614 0 l 1,0,-1
426 782 m 0,14,15
 486 782 486 782 521 835 c 1,16,-1
 488 875 l 1,17,18
 473 862 473 862 460 855 c 128,-1,19
 447 848 447 848 430 848 c 0,20,21
 403 848 403 848 353 875 c 0,22,23
 339 884 339 884 321.5 891 c 128,-1,24
 304 898 304 898 280 898 c 0,25,26
 220 898 220 898 185 845 c 1,27,-1
 218 805 l 1,28,29
 233 818 233 818 246 825 c 128,-1,30
 259 832 259 832 276 832 c 0,31,32
 303 832 303 832 353 805 c 0,33,34
 367 796 367 796 384.5 789 c 128,-1,35
 402 782 402 782 426 782 c 0,14,15
EndSplineSet
EndChar

StartChar: O
Encoding: 79 79 86
Width: 708
Flags: W
LayerCount: 2
Fore
SplineSet
354 -12 m 0,0,1
 488 -12 488 -12 569 81 c 128,-1,2
 650 174 650 174 650 349 c 0,3,4
 650 525 650 525 569 617.5 c 128,-1,5
 488 710 488 710 354 710 c 0,6,7
 218 710 218 710 139 617 c 0,8,9
 58 525 58 525 58 349 c 0,10,11
 58 174 58 174 139 81 c 0,12,13
 218 -12 218 -12 354 -12 c 0,0,1
354 63 m 256,14,15
 264 63 264 63 206 125.5 c 128,-1,16
 148 188 148 188 148 291 c 2,17,-1
 148 407 l 2,18,19
 148 511 148 511 206 573 c 128,-1,20
 264 635 264 635 354 635 c 256,21,22
 444 635 444 635 502 573 c 128,-1,23
 560 511 560 511 560 407 c 2,24,-1
 560 291 l 2,25,26
 560 188 560 188 502 125.5 c 128,-1,27
 444 63 444 63 354 63 c 256,14,15
EndSplineSet
EndChar

StartChar: Oacute
Encoding: 211 211 87
Width: 708
Flags: W
LayerCount: 2
Fore
SplineSet
354 -12 m 0,0,1
 488 -12 488 -12 569 81 c 128,-1,2
 650 174 650 174 650 349 c 0,3,4
 650 525 650 525 569 617.5 c 128,-1,5
 488 710 488 710 354 710 c 0,6,7
 218 710 218 710 139 617 c 0,8,9
 58 525 58 525 58 349 c 0,10,11
 58 174 58 174 139 81 c 0,12,13
 218 -12 218 -12 354 -12 c 0,0,1
354 63 m 256,14,15
 264 63 264 63 206 125.5 c 128,-1,16
 148 188 148 188 148 291 c 2,17,-1
 148 407 l 2,18,19
 148 511 148 511 206 573 c 128,-1,20
 264 635 264 635 354 635 c 256,21,22
 444 635 444 635 502 573 c 128,-1,23
 560 511 560 511 560 407 c 2,24,-1
 560 291 l 2,25,26
 560 188 560 188 502 125.5 c 128,-1,27
 444 63 444 63 354 63 c 256,14,15
361 755 m 1,28,-1
 467 914 l 1,29,-1
 394 949 l 1,30,-1
 309 779 l 1,31,-1
 361 755 l 1,28,-1
EndSplineSet
EndChar

StartChar: Obreve
Encoding: 334 334 88
Width: 708
Flags: W
LayerCount: 2
Fore
SplineSet
354 -12 m 0,0,1
 488 -12 488 -12 569 81 c 128,-1,2
 650 174 650 174 650 349 c 0,3,4
 650 525 650 525 569 617.5 c 128,-1,5
 488 710 488 710 354 710 c 0,6,7
 218 710 218 710 139 617 c 0,8,9
 58 525 58 525 58 349 c 0,10,11
 58 174 58 174 139 81 c 0,12,13
 218 -12 218 -12 354 -12 c 0,0,1
354 63 m 256,14,15
 264 63 264 63 206 125.5 c 128,-1,16
 148 188 148 188 148 291 c 2,17,-1
 148 407 l 2,18,19
 148 511 148 511 206 573 c 128,-1,20
 264 635 264 635 354 635 c 256,21,22
 444 635 444 635 502 573 c 128,-1,23
 560 511 560 511 560 407 c 2,24,-1
 560 291 l 2,25,26
 560 188 560 188 502 125.5 c 128,-1,27
 444 63 444 63 354 63 c 256,14,15
354 766 m 0,28,29
 427 766 427 766 464 808 c 0,30,31
 495 847 495 847 506 891 c 1,32,-1
 461 913 l 1,33,-1
 440 880 l 2,34,35
 427 857 427 857 409.5 843 c 128,-1,36
 392 829 392 829 354 829 c 256,37,38
 316 829 316 829 298 843.5 c 128,-1,39
 280 858 280 858 268 880 c 2,40,-1
 247 913 l 1,41,-1
 202 891 l 1,42,43
 235 766 235 766 354 766 c 0,28,29
EndSplineSet
EndChar

StartChar: Ocircumflex
Encoding: 212 212 89
Width: 708
Flags: W
LayerCount: 2
Fore
SplineSet
354 -12 m 0,0,1
 488 -12 488 -12 569 81 c 128,-1,2
 650 174 650 174 650 349 c 0,3,4
 650 525 650 525 569 617.5 c 128,-1,5
 488 710 488 710 354 710 c 0,6,7
 218 710 218 710 139 617 c 0,8,9
 58 525 58 525 58 349 c 0,10,11
 58 174 58 174 139 81 c 0,12,13
 218 -12 218 -12 354 -12 c 0,0,1
354 63 m 256,14,15
 264 63 264 63 206 125.5 c 128,-1,16
 148 188 148 188 148 291 c 2,17,-1
 148 407 l 2,18,19
 148 511 148 511 206 573 c 128,-1,20
 264 635 264 635 354 635 c 256,21,22
 444 635 444 635 502 573 c 128,-1,23
 560 511 560 511 560 407 c 2,24,-1
 560 291 l 2,25,26
 560 188 560 188 502 125.5 c 128,-1,27
 444 63 444 63 354 63 c 256,14,15
471 761 m 1,28,-1
 515 792 l 1,29,-1
 404 935 l 1,30,-1
 304 935 l 1,31,-1
 193 792 l 1,32,-1
 237 761 l 1,33,-1
 354 878 l 1,34,-1
 471 761 l 1,28,-1
EndSplineSet
EndChar

StartChar: Ocircumflexacute
Encoding: 7888 7888 90
Width: 708
Flags: W
LayerCount: 2
Fore
SplineSet
354 -12 m 0,0,1
 488 -12 488 -12 569 81 c 128,-1,2
 650 174 650 174 650 349 c 0,3,4
 650 525 650 525 569 617.5 c 128,-1,5
 488 710 488 710 354 710 c 0,6,7
 218 710 218 710 139 617 c 0,8,9
 58 525 58 525 58 349 c 0,10,11
 58 174 58 174 139 81 c 0,12,13
 218 -12 218 -12 354 -12 c 0,0,1
354 63 m 256,14,15
 264 63 264 63 206 125.5 c 128,-1,16
 148 188 148 188 148 291 c 2,17,-1
 148 407 l 2,18,19
 148 511 148 511 206 573 c 128,-1,20
 264 635 264 635 354 635 c 256,21,22
 444 635 444 635 502 573 c 128,-1,23
 560 511 560 511 560 407 c 2,24,-1
 560 291 l 2,25,26
 560 188 560 188 502 125.5 c 128,-1,27
 444 63 444 63 354 63 c 256,14,15
508 868 m 1,28,-1
 614 1027 l 1,29,-1
 544 1061 l 1,30,-1
 459 891 l 1,31,-1
 508 868 l 1,28,-1
473 751 m 1,32,-1
 514 781 l 1,33,-1
 404 915 l 1,34,-1
 304 915 l 1,35,-1
 194 781 l 1,36,-1
 235 751 l 1,37,-1
 354 863 l 1,38,-1
 473 751 l 1,32,-1
EndSplineSet
EndChar

StartChar: Ocircumflexdotbelow
Encoding: 7896 7896 91
Width: 708
Flags: W
LayerCount: 2
Fore
SplineSet
354 -12 m 0,0,1
 488 -12 488 -12 569 81 c 128,-1,2
 650 174 650 174 650 349 c 0,3,4
 650 525 650 525 569 617.5 c 128,-1,5
 488 710 488 710 354 710 c 0,6,7
 218 710 218 710 139 617 c 0,8,9
 58 525 58 525 58 349 c 0,10,11
 58 174 58 174 139 81 c 0,12,13
 218 -12 218 -12 354 -12 c 0,0,1
354 63 m 256,14,15
 264 63 264 63 206 125.5 c 128,-1,16
 148 188 148 188 148 291 c 2,17,-1
 148 407 l 2,18,19
 148 511 148 511 206 573 c 128,-1,20
 264 635 264 635 354 635 c 256,21,22
 444 635 444 635 502 573 c 128,-1,23
 560 511 560 511 560 407 c 2,24,-1
 560 291 l 2,25,26
 560 188 560 188 502 125.5 c 128,-1,27
 444 63 444 63 354 63 c 256,14,15
471 761 m 1,28,-1
 515 792 l 1,29,-1
 404 935 l 1,30,-1
 304 935 l 1,31,-1
 193 792 l 1,32,-1
 237 761 l 1,33,-1
 354 878 l 1,34,-1
 471 761 l 1,28,-1
354 -169 m 256,35,36
 405 -169 405 -169 405 -123 c 2,37,-1
 405 -112 l 2,38,39
 405 -66 405 -66 354 -66 c 256,40,41
 303 -66 303 -66 303 -112 c 2,42,-1
 303 -123 l 2,43,44
 303 -169 303 -169 354 -169 c 256,35,36
EndSplineSet
EndChar

StartChar: Ocircumflexgrave
Encoding: 7890 7890 92
Width: 708
Flags: W
LayerCount: 2
Fore
SplineSet
354 -12 m 0,0,1
 488 -12 488 -12 569 81 c 128,-1,2
 650 174 650 174 650 349 c 0,3,4
 650 525 650 525 569 617.5 c 128,-1,5
 488 710 488 710 354 710 c 0,6,7
 218 710 218 710 139 617 c 0,8,9
 58 525 58 525 58 349 c 0,10,11
 58 174 58 174 139 81 c 0,12,13
 218 -12 218 -12 354 -12 c 0,0,1
354 63 m 256,14,15
 264 63 264 63 206 125.5 c 128,-1,16
 148 188 148 188 148 291 c 2,17,-1
 148 407 l 2,18,19
 148 511 148 511 206 573 c 128,-1,20
 264 635 264 635 354 635 c 256,21,22
 444 635 444 635 502 573 c 128,-1,23
 560 511 560 511 560 407 c 2,24,-1
 560 291 l 2,25,26
 560 188 560 188 502 125.5 c 128,-1,27
 444 63 444 63 354 63 c 256,14,15
200 868 m 1,28,-1
 249 891 l 1,29,-1
 164 1061 l 1,30,-1
 94 1027 l 1,31,-1
 200 868 l 1,28,-1
473 751 m 1,32,-1
 514 781 l 1,33,-1
 404 915 l 1,34,-1
 304 915 l 1,35,-1
 194 781 l 1,36,-1
 235 751 l 1,37,-1
 354 863 l 1,38,-1
 473 751 l 1,32,-1
EndSplineSet
EndChar

StartChar: Ocircumflexhookabove
Encoding: 7892 7892 93
Width: 708
Flags: W
LayerCount: 2
Fore
SplineSet
354 -12 m 0,0,1
 488 -12 488 -12 569 81 c 128,-1,2
 650 174 650 174 650 349 c 0,3,4
 650 525 650 525 569 617.5 c 128,-1,5
 488 710 488 710 354 710 c 0,6,7
 218 710 218 710 139 617 c 0,8,9
 58 525 58 525 58 349 c 0,10,11
 58 174 58 174 139 81 c 0,12,13
 218 -12 218 -12 354 -12 c 0,0,1
354 63 m 256,14,15
 264 63 264 63 206 125.5 c 128,-1,16
 148 188 148 188 148 291 c 2,17,-1
 148 407 l 2,18,19
 148 511 148 511 206 573 c 128,-1,20
 264 635 264 635 354 635 c 256,21,22
 444 635 444 635 502 573 c 128,-1,23
 560 511 560 511 560 407 c 2,24,-1
 560 291 l 2,25,26
 560 188 560 188 502 125.5 c 128,-1,27
 444 63 444 63 354 63 c 256,14,15
510 862 m 1,28,-1
 534 892 l 2,29,30
 583 952 583 952 583 995 c 0,31,32
 583 1050 583 1050 513 1050 c 2,33,-1
 404 1050 l 1,34,-1
 404 992 l 1,35,-1
 526 992 l 1,36,-1
 466 885 l 1,37,-1
 510 862 l 1,28,-1
473 751 m 1,38,-1
 514 781 l 1,39,-1
 404 915 l 1,40,-1
 304 915 l 1,41,-1
 194 781 l 1,42,-1
 235 751 l 1,43,-1
 354 863 l 1,44,-1
 473 751 l 1,38,-1
EndSplineSet
EndChar

StartChar: Ocircumflextilde
Encoding: 7894 7894 94
Width: 708
Flags: W
LayerCount: 2
Fore
SplineSet
354 -12 m 0,0,1
 488 -12 488 -12 569 81 c 128,-1,2
 650 174 650 174 650 349 c 0,3,4
 650 525 650 525 569 617.5 c 128,-1,5
 488 710 488 710 354 710 c 0,6,7
 218 710 218 710 139 617 c 0,8,9
 58 525 58 525 58 349 c 0,10,11
 58 174 58 174 139 81 c 0,12,13
 218 -12 218 -12 354 -12 c 0,0,1
354 63 m 256,14,15
 264 63 264 63 206 125.5 c 128,-1,16
 148 188 148 188 148 291 c 2,17,-1
 148 407 l 2,18,19
 148 511 148 511 206 573 c 128,-1,20
 264 635 264 635 354 635 c 256,21,22
 444 635 444 635 502 573 c 128,-1,23
 560 511 560 511 560 407 c 2,24,-1
 560 291 l 2,25,26
 560 188 560 188 502 125.5 c 128,-1,27
 444 63 444 63 354 63 c 256,14,15
426 942 m 0,28,29
 486 942 486 942 521 995 c 1,30,-1
 490 1031 l 1,31,32
 475 1018 475 1018 462 1011 c 128,-1,33
 449 1004 449 1004 432 1004 c 0,34,35
 405 1004 405 1004 355 1031 c 0,36,37
 341 1040 341 1040 323.5 1047 c 128,-1,38
 306 1054 306 1054 282 1054 c 0,39,40
 222 1054 222 1054 187 1001 c 1,41,-1
 218 965 l 1,42,43
 233 978 233 978 246 985 c 128,-1,44
 259 992 259 992 276 992 c 0,45,46
 303 992 303 992 353 965 c 0,47,48
 367 956 367 956 384.5 949 c 128,-1,49
 402 942 402 942 426 942 c 0,28,29
473 751 m 1,50,-1
 514 781 l 1,51,-1
 404 915 l 1,52,-1
 304 915 l 1,53,-1
 194 781 l 1,54,-1
 235 751 l 1,55,-1
 354 863 l 1,56,-1
 473 751 l 1,50,-1
EndSplineSet
EndChar

StartChar: Odieresis
Encoding: 214 214 95
Width: 708
Flags: W
LayerCount: 2
Fore
SplineSet
354 -12 m 0,0,1
 488 -12 488 -12 569 81 c 128,-1,2
 650 174 650 174 650 349 c 0,3,4
 650 525 650 525 569 617.5 c 128,-1,5
 488 710 488 710 354 710 c 0,6,7
 218 710 218 710 139 617 c 0,8,9
 58 525 58 525 58 349 c 0,10,11
 58 174 58 174 139 81 c 0,12,13
 218 -12 218 -12 354 -12 c 0,0,1
354 63 m 256,14,15
 264 63 264 63 206 125.5 c 128,-1,16
 148 188 148 188 148 291 c 2,17,-1
 148 407 l 2,18,19
 148 511 148 511 206 573 c 128,-1,20
 264 635 264 635 354 635 c 256,21,22
 444 635 444 635 502 573 c 128,-1,23
 560 511 560 511 560 407 c 2,24,-1
 560 291 l 2,25,26
 560 188 560 188 502 125.5 c 128,-1,27
 444 63 444 63 354 63 c 256,14,15
261 788 m 256,28,29
 311 788 311 788 311 835 c 2,30,-1
 311 847 l 2,31,32
 311 894 311 894 261 894 c 256,33,34
 211 894 211 894 211 847 c 2,35,-1
 211 835 l 2,36,37
 211 788 211 788 261 788 c 256,28,29
447 788 m 256,38,39
 497 788 497 788 497 835 c 2,40,-1
 497 847 l 2,41,42
 497 894 497 894 447 894 c 256,43,44
 397 894 397 894 397 847 c 2,45,-1
 397 835 l 2,46,47
 397 788 397 788 447 788 c 256,38,39
EndSplineSet
EndChar

StartChar: Odotbelow
Encoding: 7884 7884 96
Width: 708
Flags: W
LayerCount: 2
Fore
SplineSet
354 -12 m 0,0,1
 488 -12 488 -12 569 81 c 128,-1,2
 650 174 650 174 650 349 c 0,3,4
 650 525 650 525 569 617.5 c 128,-1,5
 488 710 488 710 354 710 c 0,6,7
 218 710 218 710 139 617 c 0,8,9
 58 525 58 525 58 349 c 0,10,11
 58 174 58 174 139 81 c 0,12,13
 218 -12 218 -12 354 -12 c 0,0,1
354 63 m 256,14,15
 264 63 264 63 206 125.5 c 128,-1,16
 148 188 148 188 148 291 c 2,17,-1
 148 407 l 2,18,19
 148 511 148 511 206 573 c 128,-1,20
 264 635 264 635 354 635 c 256,21,22
 444 635 444 635 502 573 c 128,-1,23
 560 511 560 511 560 407 c 2,24,-1
 560 291 l 2,25,26
 560 188 560 188 502 125.5 c 128,-1,27
 444 63 444 63 354 63 c 256,14,15
354 -169 m 256,28,29
 405 -169 405 -169 405 -123 c 2,30,-1
 405 -112 l 2,31,32
 405 -66 405 -66 354 -66 c 256,33,34
 303 -66 303 -66 303 -112 c 2,35,-1
 303 -123 l 2,36,37
 303 -169 303 -169 354 -169 c 256,28,29
EndSplineSet
EndChar

StartChar: Odblacute
Encoding: 336 336 97
Width: 708
Flags: W
LayerCount: 2
Fore
SplineSet
354 -12 m 0,0,1
 488 -12 488 -12 569 81 c 128,-1,2
 650 174 650 174 650 349 c 0,3,4
 650 525 650 525 569 617.5 c 128,-1,5
 488 710 488 710 354 710 c 0,6,7
 218 710 218 710 139 617 c 0,8,9
 58 525 58 525 58 349 c 0,10,11
 58 174 58 174 139 81 c 0,12,13
 218 -12 218 -12 354 -12 c 0,0,1
354 63 m 256,14,15
 264 63 264 63 206 125.5 c 128,-1,16
 148 188 148 188 148 291 c 2,17,-1
 148 407 l 2,18,19
 148 511 148 511 206 573 c 128,-1,20
 264 635 264 635 354 635 c 256,21,22
 444 635 444 635 502 573 c 128,-1,23
 560 511 560 511 560 407 c 2,24,-1
 560 291 l 2,25,26
 560 188 560 188 502 125.5 c 128,-1,27
 444 63 444 63 354 63 c 256,14,15
281 756 m 1,28,-1
 387 915 l 1,29,-1
 318 948 l 1,30,-1
 233 778 l 1,31,-1
 281 756 l 1,28,-1
441 756 m 1,32,-1
 547 915 l 1,33,-1
 478 948 l 1,34,-1
 393 778 l 1,35,-1
 441 756 l 1,32,-1
EndSplineSet
EndChar

StartChar: Ograve
Encoding: 210 210 98
Width: 708
Flags: W
LayerCount: 2
Fore
SplineSet
354 -12 m 0,0,1
 488 -12 488 -12 569 81 c 128,-1,2
 650 174 650 174 650 349 c 0,3,4
 650 525 650 525 569 617.5 c 128,-1,5
 488 710 488 710 354 710 c 0,6,7
 218 710 218 710 139 617 c 0,8,9
 58 525 58 525 58 349 c 0,10,11
 58 174 58 174 139 81 c 0,12,13
 218 -12 218 -12 354 -12 c 0,0,1
354 63 m 256,14,15
 264 63 264 63 206 125.5 c 128,-1,16
 148 188 148 188 148 291 c 2,17,-1
 148 407 l 2,18,19
 148 511 148 511 206 573 c 128,-1,20
 264 635 264 635 354 635 c 256,21,22
 444 635 444 635 502 573 c 128,-1,23
 560 511 560 511 560 407 c 2,24,-1
 560 291 l 2,25,26
 560 188 560 188 502 125.5 c 128,-1,27
 444 63 444 63 354 63 c 256,14,15
347 755 m 1,28,-1
 399 779 l 1,29,-1
 314 949 l 1,30,-1
 241 914 l 1,31,-1
 347 755 l 1,28,-1
EndSplineSet
EndChar

StartChar: Ohookabove
Encoding: 7886 7886 99
Width: 708
Flags: W
LayerCount: 2
Fore
SplineSet
354 -12 m 0,0,1
 488 -12 488 -12 569 81 c 128,-1,2
 650 174 650 174 650 349 c 0,3,4
 650 525 650 525 569 617.5 c 128,-1,5
 488 710 488 710 354 710 c 0,6,7
 218 710 218 710 139 617 c 0,8,9
 58 525 58 525 58 349 c 0,10,11
 58 174 58 174 139 81 c 0,12,13
 218 -12 218 -12 354 -12 c 0,0,1
354 63 m 256,14,15
 264 63 264 63 206 125.5 c 128,-1,16
 148 188 148 188 148 291 c 2,17,-1
 148 407 l 2,18,19
 148 511 148 511 206 573 c 128,-1,20
 264 635 264 635 354 635 c 256,21,22
 444 635 444 635 502 573 c 128,-1,23
 560 511 560 511 560 407 c 2,24,-1
 560 291 l 2,25,26
 560 188 560 188 502 125.5 c 128,-1,27
 444 63 444 63 354 63 c 256,14,15
376 747 m 1,28,-1
 400 777 l 2,29,30
 449 837 449 837 449 880 c 0,31,32
 449 935 449 935 379 935 c 2,33,-1
 270 935 l 1,34,-1
 270 874 l 1,35,-1
 388 874 l 1,36,-1
 330 770 l 1,37,-1
 376 747 l 1,28,-1
EndSplineSet
EndChar

StartChar: Ohorn
Encoding: 416 416 100
Width: 708
Flags: W
LayerCount: 2
Fore
SplineSet
354 -12 m 0,0,1
 488 -12 488 -12 569 81 c 128,-1,2
 650 174 650 174 650 349 c 0,3,4
 650 444 650 444 624.5 519 c 128,-1,5
 599 594 599 594 540 647 c 1,6,-1
 593 647 l 2,7,8
 631 647 631 647 643.5 665 c 128,-1,9
 656 683 656 683 656 710 c 2,10,-1
 656 810 l 1,11,-1
 585 810 l 1,12,-1
 585 698 l 1,13,-1
 444 698 l 1,14,15
 402 710 402 710 354 710 c 0,16,17
 218 710 218 710 139 617 c 0,18,19
 58 525 58 525 58 349 c 0,20,21
 58 174 58 174 139 81 c 0,22,23
 218 -12 218 -12 354 -12 c 0,0,1
354 63 m 256,24,25
 264 63 264 63 206 125.5 c 128,-1,26
 148 188 148 188 148 291 c 2,27,-1
 148 407 l 2,28,29
 148 511 148 511 206 573 c 128,-1,30
 264 635 264 635 354 635 c 256,31,32
 444 635 444 635 502 573 c 128,-1,33
 560 511 560 511 560 407 c 2,34,-1
 560 291 l 2,35,36
 560 188 560 188 502 125.5 c 128,-1,37
 444 63 444 63 354 63 c 256,24,25
EndSplineSet
EndChar

StartChar: Ohornacute
Encoding: 7898 7898 101
Width: 708
Flags: W
LayerCount: 2
Fore
SplineSet
354 -12 m 0,0,1
 488 -12 488 -12 569 81 c 128,-1,2
 650 174 650 174 650 349 c 0,3,4
 650 444 650 444 624.5 519 c 128,-1,5
 599 594 599 594 540 647 c 1,6,-1
 593 647 l 2,7,8
 631 647 631 647 643.5 665 c 128,-1,9
 656 683 656 683 656 710 c 2,10,-1
 656 810 l 1,11,-1
 585 810 l 1,12,-1
 585 698 l 1,13,-1
 444 698 l 1,14,15
 402 710 402 710 354 710 c 0,16,17
 218 710 218 710 139 617 c 0,18,19
 58 525 58 525 58 349 c 0,20,21
 58 174 58 174 139 81 c 0,22,23
 218 -12 218 -12 354 -12 c 0,0,1
354 63 m 256,24,25
 264 63 264 63 206 125.5 c 128,-1,26
 148 188 148 188 148 291 c 2,27,-1
 148 407 l 2,28,29
 148 511 148 511 206 573 c 128,-1,30
 264 635 264 635 354 635 c 256,31,32
 444 635 444 635 502 573 c 128,-1,33
 560 511 560 511 560 407 c 2,34,-1
 560 291 l 2,35,36
 560 188 560 188 502 125.5 c 128,-1,37
 444 63 444 63 354 63 c 256,24,25
361 755 m 1,38,-1
 467 914 l 1,39,-1
 394 949 l 1,40,-1
 309 779 l 1,41,-1
 361 755 l 1,38,-1
EndSplineSet
EndChar

StartChar: Ohorndotbelow
Encoding: 7906 7906 102
Width: 708
Flags: W
LayerCount: 2
Fore
SplineSet
354 -12 m 0,0,1
 488 -12 488 -12 569 81 c 128,-1,2
 650 174 650 174 650 349 c 0,3,4
 650 444 650 444 624.5 519 c 128,-1,5
 599 594 599 594 540 647 c 1,6,-1
 593 647 l 2,7,8
 631 647 631 647 643.5 665 c 128,-1,9
 656 683 656 683 656 710 c 2,10,-1
 656 810 l 1,11,-1
 585 810 l 1,12,-1
 585 698 l 1,13,-1
 444 698 l 1,14,15
 402 710 402 710 354 710 c 0,16,17
 218 710 218 710 139 617 c 0,18,19
 58 525 58 525 58 349 c 0,20,21
 58 174 58 174 139 81 c 0,22,23
 218 -12 218 -12 354 -12 c 0,0,1
354 63 m 256,24,25
 264 63 264 63 206 125.5 c 128,-1,26
 148 188 148 188 148 291 c 2,27,-1
 148 407 l 2,28,29
 148 511 148 511 206 573 c 128,-1,30
 264 635 264 635 354 635 c 256,31,32
 444 635 444 635 502 573 c 128,-1,33
 560 511 560 511 560 407 c 2,34,-1
 560 291 l 2,35,36
 560 188 560 188 502 125.5 c 128,-1,37
 444 63 444 63 354 63 c 256,24,25
354 -169 m 256,38,39
 405 -169 405 -169 405 -123 c 2,40,-1
 405 -112 l 2,41,42
 405 -66 405 -66 354 -66 c 256,43,44
 303 -66 303 -66 303 -112 c 2,45,-1
 303 -123 l 2,46,47
 303 -169 303 -169 354 -169 c 256,38,39
EndSplineSet
EndChar

StartChar: Ohorngrave
Encoding: 7900 7900 103
Width: 708
Flags: W
LayerCount: 2
Fore
SplineSet
354 -12 m 0,0,1
 488 -12 488 -12 569 81 c 128,-1,2
 650 174 650 174 650 349 c 0,3,4
 650 444 650 444 624.5 519 c 128,-1,5
 599 594 599 594 540 647 c 1,6,-1
 593 647 l 2,7,8
 631 647 631 647 643.5 665 c 128,-1,9
 656 683 656 683 656 710 c 2,10,-1
 656 810 l 1,11,-1
 585 810 l 1,12,-1
 585 698 l 1,13,-1
 444 698 l 1,14,15
 402 710 402 710 354 710 c 0,16,17
 218 710 218 710 139 617 c 0,18,19
 58 525 58 525 58 349 c 0,20,21
 58 174 58 174 139 81 c 0,22,23
 218 -12 218 -12 354 -12 c 0,0,1
354 63 m 256,24,25
 264 63 264 63 206 125.5 c 128,-1,26
 148 188 148 188 148 291 c 2,27,-1
 148 407 l 2,28,29
 148 511 148 511 206 573 c 128,-1,30
 264 635 264 635 354 635 c 256,31,32
 444 635 444 635 502 573 c 128,-1,33
 560 511 560 511 560 407 c 2,34,-1
 560 291 l 2,35,36
 560 188 560 188 502 125.5 c 128,-1,37
 444 63 444 63 354 63 c 256,24,25
347 755 m 1,38,-1
 399 779 l 1,39,-1
 314 949 l 1,40,-1
 241 914 l 1,41,-1
 347 755 l 1,38,-1
EndSplineSet
EndChar

StartChar: Ohornhookabove
Encoding: 7902 7902 104
Width: 708
Flags: W
LayerCount: 2
Fore
SplineSet
354 -12 m 0,0,1
 488 -12 488 -12 569 81 c 128,-1,2
 650 174 650 174 650 349 c 0,3,4
 650 444 650 444 624.5 519 c 128,-1,5
 599 594 599 594 540 647 c 1,6,-1
 593 647 l 2,7,8
 631 647 631 647 643.5 665 c 128,-1,9
 656 683 656 683 656 710 c 2,10,-1
 656 810 l 1,11,-1
 585 810 l 1,12,-1
 585 698 l 1,13,-1
 444 698 l 1,14,15
 402 710 402 710 354 710 c 0,16,17
 218 710 218 710 139 617 c 0,18,19
 58 525 58 525 58 349 c 0,20,21
 58 174 58 174 139 81 c 0,22,23
 218 -12 218 -12 354 -12 c 0,0,1
354 63 m 256,24,25
 264 63 264 63 206 125.5 c 128,-1,26
 148 188 148 188 148 291 c 2,27,-1
 148 407 l 2,28,29
 148 511 148 511 206 573 c 128,-1,30
 264 635 264 635 354 635 c 256,31,32
 444 635 444 635 502 573 c 128,-1,33
 560 511 560 511 560 407 c 2,34,-1
 560 291 l 2,35,36
 560 188 560 188 502 125.5 c 128,-1,37
 444 63 444 63 354 63 c 256,24,25
376 747 m 1,38,-1
 400 777 l 2,39,40
 449 837 449 837 449 880 c 0,41,42
 449 935 449 935 379 935 c 2,43,-1
 270 935 l 1,44,-1
 270 874 l 1,45,-1
 388 874 l 1,46,-1
 330 770 l 1,47,-1
 376 747 l 1,38,-1
EndSplineSet
EndChar

StartChar: Ohorntilde
Encoding: 7904 7904 105
Width: 708
Flags: W
LayerCount: 2
Fore
SplineSet
354 -12 m 0,0,1
 488 -12 488 -12 569 81 c 128,-1,2
 650 174 650 174 650 349 c 0,3,4
 650 444 650 444 624.5 519 c 128,-1,5
 599 594 599 594 540 647 c 1,6,-1
 593 647 l 2,7,8
 631 647 631 647 643.5 665 c 128,-1,9
 656 683 656 683 656 710 c 2,10,-1
 656 810 l 1,11,-1
 585 810 l 1,12,-1
 585 698 l 1,13,-1
 444 698 l 1,14,15
 402 710 402 710 354 710 c 0,16,17
 218 710 218 710 139 617 c 0,18,19
 58 525 58 525 58 349 c 0,20,21
 58 174 58 174 139 81 c 0,22,23
 218 -12 218 -12 354 -12 c 0,0,1
354 63 m 256,24,25
 264 63 264 63 206 125.5 c 128,-1,26
 148 188 148 188 148 291 c 2,27,-1
 148 407 l 2,28,29
 148 511 148 511 206 573 c 128,-1,30
 264 635 264 635 354 635 c 256,31,32
 444 635 444 635 502 573 c 128,-1,33
 560 511 560 511 560 407 c 2,34,-1
 560 291 l 2,35,36
 560 188 560 188 502 125.5 c 128,-1,37
 444 63 444 63 354 63 c 256,24,25
417 786 m 0,38,39
 472 786 472 786 508 839 c 1,40,-1
 475 879 l 1,41,42
 450 852 450 852 418 852 c 0,43,44
 404 852 404 852 392 857 c 0,45,46
 388 859 388 859 353.5 876.5 c 128,-1,47
 319 894 319 894 291 894 c 0,48,49
 236 894 236 894 200 841 c 1,50,-1
 233 801 l 1,51,52
 259 828 259 828 290 828 c 0,53,54
 304 828 304 828 316 823 c 0,55,56
 320 821 320 821 354.5 803.5 c 128,-1,57
 389 786 389 786 417 786 c 0,38,39
EndSplineSet
EndChar

StartChar: Omacron
Encoding: 332 332 106
Width: 708
Flags: W
LayerCount: 2
Fore
SplineSet
354 -12 m 0,0,1
 488 -12 488 -12 569 81 c 128,-1,2
 650 174 650 174 650 349 c 0,3,4
 650 525 650 525 569 617.5 c 128,-1,5
 488 710 488 710 354 710 c 0,6,7
 218 710 218 710 139 617 c 0,8,9
 58 525 58 525 58 349 c 0,10,11
 58 174 58 174 139 81 c 0,12,13
 218 -12 218 -12 354 -12 c 0,0,1
354 63 m 256,14,15
 264 63 264 63 206 125.5 c 128,-1,16
 148 188 148 188 148 291 c 2,17,-1
 148 407 l 2,18,19
 148 511 148 511 206 573 c 128,-1,20
 264 635 264 635 354 635 c 256,21,22
 444 635 444 635 502 573 c 128,-1,23
 560 511 560 511 560 407 c 2,24,-1
 560 291 l 2,25,26
 560 188 560 188 502 125.5 c 128,-1,27
 444 63 444 63 354 63 c 256,14,15
494 807 m 1,28,-1
 494 875 l 1,29,-1
 214 875 l 1,30,-1
 214 807 l 1,31,-1
 494 807 l 1,28,-1
EndSplineSet
EndChar

StartChar: Otilde
Encoding: 213 213 107
Width: 708
Flags: W
LayerCount: 2
Fore
SplineSet
354 -12 m 0,0,1
 488 -12 488 -12 569 81 c 128,-1,2
 650 174 650 174 650 349 c 0,3,4
 650 525 650 525 569 617.5 c 128,-1,5
 488 710 488 710 354 710 c 0,6,7
 218 710 218 710 139 617 c 0,8,9
 58 525 58 525 58 349 c 0,10,11
 58 174 58 174 139 81 c 0,12,13
 218 -12 218 -12 354 -12 c 0,0,1
354 63 m 256,14,15
 264 63 264 63 206 125.5 c 128,-1,16
 148 188 148 188 148 291 c 2,17,-1
 148 407 l 2,18,19
 148 511 148 511 206 573 c 128,-1,20
 264 635 264 635 354 635 c 256,21,22
 444 635 444 635 502 573 c 128,-1,23
 560 511 560 511 560 407 c 2,24,-1
 560 291 l 2,25,26
 560 188 560 188 502 125.5 c 128,-1,27
 444 63 444 63 354 63 c 256,14,15
427 782 m 0,28,29
 487 782 487 782 522 835 c 1,30,-1
 489 875 l 1,31,32
 474 862 474 862 461 855 c 128,-1,33
 448 848 448 848 431 848 c 0,34,35
 404 848 404 848 354 875 c 0,36,37
 340 884 340 884 322.5 891 c 128,-1,38
 305 898 305 898 281 898 c 0,39,40
 221 898 221 898 186 845 c 1,41,-1
 219 805 l 1,42,43
 234 818 234 818 247 825 c 128,-1,44
 260 832 260 832 277 832 c 0,45,46
 304 832 304 832 354 805 c 0,47,48
 368 796 368 796 385.5 789 c 128,-1,49
 403 782 403 782 427 782 c 0,28,29
EndSplineSet
EndChar

StartChar: P
Encoding: 80 80 108
Width: 606
Flags: W
LayerCount: 2
Fore
SplineSet
177 0 m 1,0,-1
 177 298 l 1,1,-1
 371 298 l 2,2,3
 465 298 465 298 515.5 351.5 c 128,-1,4
 566 405 566 405 566 498 c 256,5,6
 566 591 566 591 515.5 644.5 c 128,-1,7
 465 698 465 698 371 698 c 2,8,-1
 93 698 l 1,9,-1
 93 0 l 1,10,-1
 177 0 l 1,0,-1
371 372 m 1,11,-1
 177 372 l 1,12,-1
 177 624 l 1,13,-1
 371 624 l 2,14,15
 472 624 472 624 476 524 c 1,16,-1
 476 472 l 2,17,18
 476 376 476 376 371 372 c 1,11,-1
EndSplineSet
EndChar

StartChar: Q
Encoding: 81 81 109
Width: 708
Flags: W
LayerCount: 2
Fore
SplineSet
354 63 m 256,0,1
 264 63 264 63 206 125.5 c 128,-1,2
 148 188 148 188 148 291 c 2,3,-1
 148 407 l 2,4,5
 148 511 148 511 206 573 c 128,-1,6
 264 635 264 635 354 635 c 256,7,8
 444 635 444 635 502 573 c 128,-1,9
 560 511 560 511 560 407 c 2,10,-1
 560 291 l 2,11,12
 560 188 560 188 502 125.5 c 128,-1,13
 444 63 444 63 354 63 c 256,0,1
569 81 m 0,15,16
 650 174 650 174 650 349 c 0,17,18
 650 525 650 525 569 617.5 c 128,-1,19
 488 710 488 710 354 710 c 0,20,21
 218 710 218 710 139 617 c 0,22,23
 58 525 58 525 58 349 c 0,24,25
 58 174 58 174 139 81 c 0,26,27
 218 -12 218 -12 354 -12 c 0,28,29
 411 -12 411 -12 459 5 c 1,30,-1
 636 -98 l 1,31,-1
 674 -33 l 1,32,-1
 534 47 l 1,33,14
 553 62 553 62 569 81 c 0,15,16
EndSplineSet
EndChar

StartChar: R
Encoding: 82 82 110
Width: 640
Flags: W
LayerCount: 2
Fore
SplineSet
586 0 m 1,0,-1
 426 308 l 1,1,2
 495 324 495 324 530.5 373.5 c 128,-1,3
 566 423 566 423 566 500 c 0,4,5
 566 596 566 596 514.5 647 c 128,-1,6
 463 698 463 698 371 698 c 2,7,-1
 93 698 l 1,8,-1
 93 0 l 1,9,-1
 177 0 l 1,10,-1
 177 300 l 1,11,-1
 340 300 l 1,12,-1
 491 0 l 1,13,-1
 586 0 l 1,0,-1
371 372 m 1,14,-1
 177 372 l 1,15,-1
 177 624 l 1,16,-1
 371 624 l 2,17,18
 472 624 472 624 476 524 c 1,19,-1
 476 472 l 2,20,21
 476 376 476 376 371 372 c 1,14,-1
EndSplineSet
EndChar

StartChar: Racute
Encoding: 340 340 111
Width: 640
Flags: W
LayerCount: 2
Fore
SplineSet
586 0 m 1,0,-1
 426 308 l 1,1,2
 495 324 495 324 530.5 373.5 c 128,-1,3
 566 423 566 423 566 500 c 0,4,5
 566 596 566 596 514.5 647 c 128,-1,6
 463 698 463 698 371 698 c 2,7,-1
 93 698 l 1,8,-1
 93 0 l 1,9,-1
 177 0 l 1,10,-1
 177 300 l 1,11,-1
 340 300 l 1,12,-1
 491 0 l 1,13,-1
 586 0 l 1,0,-1
371 372 m 1,14,-1
 177 372 l 1,15,-1
 177 624 l 1,16,-1
 371 624 l 2,17,18
 472 624 472 624 476 524 c 1,19,-1
 476 472 l 2,20,21
 476 376 476 376 371 372 c 1,14,-1
314 755 m 1,22,-1
 420 914 l 1,23,-1
 347 949 l 1,24,-1
 262 779 l 1,25,-1
 314 755 l 1,22,-1
EndSplineSet
EndChar

StartChar: Rcaron
Encoding: 344 344 112
Width: 640
Flags: W
LayerCount: 2
Fore
SplineSet
586 0 m 1,0,-1
 426 308 l 1,1,2
 495 324 495 324 530.5 373.5 c 128,-1,3
 566 423 566 423 566 500 c 0,4,5
 566 596 566 596 514.5 647 c 128,-1,6
 463 698 463 698 371 698 c 2,7,-1
 93 698 l 1,8,-1
 93 0 l 1,9,-1
 177 0 l 1,10,-1
 177 300 l 1,11,-1
 340 300 l 1,12,-1
 491 0 l 1,13,-1
 586 0 l 1,0,-1
371 372 m 1,14,-1
 177 372 l 1,15,-1
 177 624 l 1,16,-1
 371 624 l 2,17,18
 472 624 472 624 476 524 c 1,19,-1
 476 472 l 2,20,21
 476 376 476 376 371 372 c 1,14,-1
357 769 m 1,22,-1
 468 912 l 1,23,-1
 424 943 l 1,24,-1
 307 826 l 1,25,-1
 190 943 l 1,26,-1
 146 912 l 1,27,-1
 257 769 l 1,28,-1
 357 769 l 1,22,-1
EndSplineSet
EndChar

StartChar: Rcedilla
Encoding: 342 342 113
Width: 640
Flags: W
LayerCount: 2
Fore
SplineSet
586 0 m 1,0,-1
 426 308 l 1,1,2
 495 324 495 324 530.5 373.5 c 128,-1,3
 566 423 566 423 566 500 c 0,4,5
 566 596 566 596 514.5 647 c 128,-1,6
 463 698 463 698 371 698 c 2,7,-1
 93 698 l 1,8,-1
 93 0 l 1,9,-1
 177 0 l 1,10,-1
 177 300 l 1,11,-1
 340 300 l 1,12,-1
 491 0 l 1,13,-1
 586 0 l 1,0,-1
371 372 m 1,14,-1
 177 372 l 1,15,-1
 177 624 l 1,16,-1
 371 624 l 2,17,18
 472 624 472 624 476 524 c 1,19,-1
 476 472 l 2,20,21
 476 376 476 376 371 372 c 1,14,-1
315 -245 m 1,22,23
 375 -188 375 -188 375 -124 c 2,24,-1
 375 -113 l 2,25,26
 375 -69 375 -69 324 -66 c 0,27,28
 275 -66 275 -66 273 -113 c 2,29,-1
 273 -123 l 2,30,31
 273 -157 273 -157 308 -167 c 1,32,33
 301 -190 301 -190 289 -207.5 c 128,-1,34
 277 -225 277 -225 257 -245 c 1,35,-1
 315 -245 l 1,22,23
EndSplineSet
EndChar

StartChar: S
Encoding: 83 83 114
Width: 581
Flags: W
LayerCount: 2
Fore
SplineSet
289 -12 m 0,0,1
 402 -12 402 -12 465.5 45 c 128,-1,2
 529 102 529 102 529 198 c 0,3,4
 529 354 529 354 334 393 c 1,5,-1
 277 406 l 2,6,7
 211 420 211 420 178.5 446 c 128,-1,8
 146 472 146 472 146 522 c 0,9,10
 146 579 146 579 184.5 607.5 c 128,-1,11
 223 636 223 636 290 636 c 0,12,13
 351 636 351 636 392 613 c 128,-1,14
 433 590 433 590 462 550 c 1,15,-1
 525 596 l 1,16,17
 447 710 447 710 294 710 c 0,18,19
 192 710 192 710 127.5 660.5 c 128,-1,20
 63 611 63 611 63 519 c 0,21,22
 63 438 63 438 113.5 393 c 128,-1,23
 164 348 164 348 260 327 c 2,24,-1
 317 314 l 2,25,26
 385 299 385 299 415.5 271.5 c 128,-1,27
 446 244 446 244 446 194 c 0,28,29
 446 134 446 134 406.5 98 c 128,-1,30
 367 62 367 62 292 62 c 0,31,32
 231 62 231 62 185.5 87.5 c 128,-1,33
 140 113 140 113 104 162 c 1,34,-1
 42 110 l 1,35,36
 130 -12 130 -12 289 -12 c 0,0,1
EndSplineSet
EndChar

StartChar: Sacute
Encoding: 346 346 115
Width: 581
Flags: W
LayerCount: 2
Fore
SplineSet
289 -12 m 0,0,1
 402 -12 402 -12 465.5 45 c 128,-1,2
 529 102 529 102 529 198 c 0,3,4
 529 354 529 354 334 393 c 1,5,-1
 277 406 l 2,6,7
 211 420 211 420 178.5 446 c 128,-1,8
 146 472 146 472 146 522 c 0,9,10
 146 579 146 579 184.5 607.5 c 128,-1,11
 223 636 223 636 290 636 c 0,12,13
 351 636 351 636 392 613 c 128,-1,14
 433 590 433 590 462 550 c 1,15,-1
 525 596 l 1,16,17
 447 710 447 710 294 710 c 0,18,19
 192 710 192 710 127.5 660.5 c 128,-1,20
 63 611 63 611 63 519 c 0,21,22
 63 438 63 438 113.5 393 c 128,-1,23
 164 348 164 348 260 327 c 2,24,-1
 317 314 l 2,25,26
 385 299 385 299 415.5 271.5 c 128,-1,27
 446 244 446 244 446 194 c 0,28,29
 446 134 446 134 406.5 98 c 128,-1,30
 367 62 367 62 292 62 c 0,31,32
 231 62 231 62 185.5 87.5 c 128,-1,33
 140 113 140 113 104 162 c 1,34,-1
 42 110 l 1,35,36
 130 -12 130 -12 289 -12 c 0,0,1
296 755 m 1,37,-1
 402 914 l 1,38,-1
 329 949 l 1,39,-1
 244 779 l 1,40,-1
 296 755 l 1,37,-1
EndSplineSet
EndChar

StartChar: Scaron
Encoding: 352 352 116
Width: 581
Flags: W
LayerCount: 2
Fore
SplineSet
289 -12 m 0,0,1
 402 -12 402 -12 465.5 45 c 128,-1,2
 529 102 529 102 529 198 c 0,3,4
 529 354 529 354 334 393 c 1,5,-1
 277 406 l 2,6,7
 211 420 211 420 178.5 446 c 128,-1,8
 146 472 146 472 146 522 c 0,9,10
 146 579 146 579 184.5 607.5 c 128,-1,11
 223 636 223 636 290 636 c 0,12,13
 351 636 351 636 392 613 c 128,-1,14
 433 590 433 590 462 550 c 1,15,-1
 525 596 l 1,16,17
 447 710 447 710 294 710 c 0,18,19
 192 710 192 710 127.5 660.5 c 128,-1,20
 63 611 63 611 63 519 c 0,21,22
 63 438 63 438 113.5 393 c 128,-1,23
 164 348 164 348 260 327 c 2,24,-1
 317 314 l 2,25,26
 385 299 385 299 415.5 271.5 c 128,-1,27
 446 244 446 244 446 194 c 0,28,29
 446 134 446 134 406.5 98 c 128,-1,30
 367 62 367 62 292 62 c 0,31,32
 231 62 231 62 185.5 87.5 c 128,-1,33
 140 113 140 113 104 162 c 1,34,-1
 42 110 l 1,35,36
 130 -12 130 -12 289 -12 c 0,0,1
339 769 m 1,37,-1
 450 912 l 1,38,-1
 406 943 l 1,39,-1
 289 826 l 1,40,-1
 172 943 l 1,41,-1
 128 912 l 1,42,-1
 239 769 l 1,43,-1
 339 769 l 1,37,-1
EndSplineSet
EndChar

StartChar: Scedilla
Encoding: 350 350 117
Width: 581
Flags: W
LayerCount: 2
Fore
SplineSet
299 -207 m 0,0,1
 343 -207 343 -207 376.5 -186.5 c 128,-1,2
 410 -166 410 -166 410 -124 c 0,3,4
 410 -92 410 -92 390.5 -75 c 128,-1,5
 371 -58 371 -58 342 -58 c 0,6,7
 323 -58 323 -58 303 -64 c 1,8,-1
 300 -61 l 1,9,-1
 310 -11 l 1,10,11
 414 -4 414 -4 471.5 51.5 c 128,-1,12
 529 107 529 107 529 198 c 0,13,14
 529 354 529 354 334 393 c 1,15,-1
 277 406 l 2,16,17
 211 420 211 420 178.5 446 c 128,-1,18
 146 472 146 472 146 522 c 0,19,20
 146 579 146 579 184.5 607.5 c 128,-1,21
 223 636 223 636 290 636 c 0,22,23
 351 636 351 636 392 613 c 128,-1,24
 433 590 433 590 462 550 c 1,25,-1
 525 596 l 1,26,27
 447 710 447 710 294 710 c 0,28,29
 192 710 192 710 127.5 660.5 c 128,-1,30
 63 611 63 611 63 519 c 0,31,32
 63 438 63 438 113.5 393 c 128,-1,33
 164 348 164 348 260 327 c 2,34,-1
 317 314 l 2,35,36
 385 299 385 299 415.5 271.5 c 128,-1,37
 446 244 446 244 446 194 c 0,38,39
 446 134 446 134 406.5 98 c 128,-1,40
 367 62 367 62 292 62 c 0,41,42
 231 62 231 62 185.5 87.5 c 128,-1,43
 140 113 140 113 104 162 c 1,44,-1
 42 110 l 1,45,46
 117 3 117 3 260 -11 c 1,47,-1
 247 -77 l 1,48,-1
 275 -81 l 2,49,50
 317 -87 317 -87 330 -97.5 c 128,-1,51
 343 -108 343 -108 343 -122 c 0,52,53
 343 -138 343 -138 330.5 -145.5 c 128,-1,54
 318 -153 318 -153 299 -153 c 0,55,56
 260 -153 260 -153 238 -125 c 1,57,-1
 200 -166 l 1,58,59
 230 -207 230 -207 299 -207 c 0,0,1
EndSplineSet
EndChar

StartChar: Scircumflex
Encoding: 348 348 118
Width: 581
Flags: W
LayerCount: 2
Fore
SplineSet
289 -12 m 0,0,1
 402 -12 402 -12 465.5 45 c 128,-1,2
 529 102 529 102 529 198 c 0,3,4
 529 354 529 354 334 393 c 1,5,-1
 277 406 l 2,6,7
 211 420 211 420 178.5 446 c 128,-1,8
 146 472 146 472 146 522 c 0,9,10
 146 579 146 579 184.5 607.5 c 128,-1,11
 223 636 223 636 290 636 c 0,12,13
 351 636 351 636 392 613 c 128,-1,14
 433 590 433 590 462 550 c 1,15,-1
 525 596 l 1,16,17
 447 710 447 710 294 710 c 0,18,19
 192 710 192 710 127.5 660.5 c 128,-1,20
 63 611 63 611 63 519 c 0,21,22
 63 438 63 438 113.5 393 c 128,-1,23
 164 348 164 348 260 327 c 2,24,-1
 317 314 l 2,25,26
 385 299 385 299 415.5 271.5 c 128,-1,27
 446 244 446 244 446 194 c 0,28,29
 446 134 446 134 406.5 98 c 128,-1,30
 367 62 367 62 292 62 c 0,31,32
 231 62 231 62 185.5 87.5 c 128,-1,33
 140 113 140 113 104 162 c 1,34,-1
 42 110 l 1,35,36
 130 -12 130 -12 289 -12 c 0,0,1
406 761 m 1,37,-1
 450 792 l 1,38,-1
 339 935 l 1,39,-1
 239 935 l 1,40,-1
 128 792 l 1,41,-1
 172 761 l 1,42,-1
 289 878 l 1,43,-1
 406 761 l 1,37,-1
EndSplineSet
EndChar

StartChar: Scommaaccent
Encoding: 536 536 119
Width: 581
Flags: W
LayerCount: 2
Fore
SplineSet
289 -12 m 0,0,1
 402 -12 402 -12 465.5 45 c 128,-1,2
 529 102 529 102 529 198 c 0,3,4
 529 354 529 354 334 393 c 1,5,-1
 277 406 l 2,6,7
 211 420 211 420 178.5 446 c 128,-1,8
 146 472 146 472 146 522 c 0,9,10
 146 579 146 579 184.5 607.5 c 128,-1,11
 223 636 223 636 290 636 c 0,12,13
 351 636 351 636 392 613 c 128,-1,14
 433 590 433 590 462 550 c 1,15,-1
 525 596 l 1,16,17
 447 710 447 710 294 710 c 0,18,19
 192 710 192 710 127.5 660.5 c 128,-1,20
 63 611 63 611 63 519 c 0,21,22
 63 438 63 438 113.5 393 c 128,-1,23
 164 348 164 348 260 327 c 2,24,-1
 317 314 l 2,25,26
 385 299 385 299 415.5 271.5 c 128,-1,27
 446 244 446 244 446 194 c 0,28,29
 446 134 446 134 406.5 98 c 128,-1,30
 367 62 367 62 292 62 c 0,31,32
 231 62 231 62 185.5 87.5 c 128,-1,33
 140 113 140 113 104 162 c 1,34,-1
 42 110 l 1,35,36
 130 -12 130 -12 289 -12 c 0,0,1
278 -245 m 1,37,38
 338 -188 338 -188 338 -124 c 2,39,-1
 338 -113 l 2,40,41
 338 -69 338 -69 287 -66 c 0,42,43
 238 -66 238 -66 236 -113 c 2,44,-1
 236 -123 l 2,45,46
 236 -157 236 -157 271 -167 c 1,47,48
 264 -190 264 -190 252 -207.5 c 128,-1,49
 240 -225 240 -225 220 -245 c 1,50,-1
 278 -245 l 1,37,38
EndSplineSet
EndChar

StartChar: T
Encoding: 84 84 120
Width: 572
Flags: W
LayerCount: 2
Fore
SplineSet
328 0 m 1,0,-1
 328 624 l 1,1,-1
 550 624 l 1,2,-1
 550 698 l 1,3,-1
 22 698 l 1,4,-1
 22 624 l 1,5,-1
 244 624 l 1,6,-1
 244 0 l 1,7,-1
 328 0 l 1,0,-1
EndSplineSet
EndChar

StartChar: Tcaron
Encoding: 356 356 121
Width: 572
Flags: W
LayerCount: 2
Fore
SplineSet
328 0 m 1,0,-1
 328 624 l 1,1,-1
 550 624 l 1,2,-1
 550 698 l 1,3,-1
 22 698 l 1,4,-1
 22 624 l 1,5,-1
 244 624 l 1,6,-1
 244 0 l 1,7,-1
 328 0 l 1,0,-1
337 769 m 1,8,-1
 448 912 l 1,9,-1
 404 943 l 1,10,-1
 287 826 l 1,11,-1
 170 943 l 1,12,-1
 126 912 l 1,13,-1
 237 769 l 1,14,-1
 337 769 l 1,8,-1
EndSplineSet
EndChar

StartChar: Tcedilla
Encoding: 354 354 122
Width: 572
GlyphClass: 5
Flags: W
LayerCount: 2
Fore
SplineSet
328 0 m 1,0,-1
 328 624 l 1,1,-1
 550 624 l 1,2,-1
 550 698 l 1,3,-1
 22 698 l 1,4,-1
 22 624 l 1,5,-1
 244 624 l 1,6,-1
 244 0 l 1,7,-1
 328 0 l 1,0,-1
277 -245 m 1,8,9
 337 -188 337 -188 337 -124 c 2,10,-1
 337 -113 l 2,11,12
 337 -69 337 -69 286 -66 c 0,13,14
 237 -66 237 -66 235 -113 c 2,15,-1
 235 -123 l 2,16,17
 235 -157 235 -157 270 -167 c 1,18,19
 263 -190 263 -190 251 -207.5 c 128,-1,20
 239 -225 239 -225 219 -245 c 1,21,-1
 277 -245 l 1,8,9
EndSplineSet
EndChar

StartChar: Tcommabelow
Encoding: 538 538 123
Width: 572
GlyphClass: 5
Flags: W
LayerCount: 2
Fore
SplineSet
328 0 m 1,0,-1
 328 624 l 1,1,-1
 550 624 l 1,2,-1
 550 698 l 1,3,-1
 22 698 l 1,4,-1
 22 624 l 1,5,-1
 244 624 l 1,6,-1
 244 0 l 1,7,-1
 328 0 l 1,0,-1
277 -245 m 1,8,9
 337 -188 337 -188 337 -124 c 2,10,-1
 337 -113 l 2,11,12
 337 -69 337 -69 286 -66 c 0,13,14
 237 -66 237 -66 235 -113 c 2,15,-1
 235 -123 l 2,16,17
 235 -157 235 -157 270 -167 c 1,18,19
 263 -190 263 -190 251 -207.5 c 128,-1,20
 239 -225 239 -225 219 -245 c 1,21,-1
 277 -245 l 1,8,9
EndSplineSet
EndChar

StartChar: U
Encoding: 85 85 124
Width: 678
GlyphClass: 5
Flags: W
LayerCount: 2
Fore
SplineSet
336 -12 m 0,0,1
 476 -12 476 -12 533 61.5 c 128,-1,2
 590 135 590 135 590 286 c 2,3,-1
 590 698 l 1,4,-1
 506 698 l 1,5,-1
 506 266 l 2,6,7
 506 166 506 166 469 114.5 c 128,-1,8
 432 63 432 63 339 63 c 256,9,10
 246 63 246 63 209 114.5 c 128,-1,11
 172 166 172 166 172 266 c 2,12,-1
 172 698 l 1,13,-1
 88 698 l 1,14,-1
 88 286 l 2,15,16
 88 130 88 130 142 61 c 0,17,18
 197 -12 197 -12 336 -12 c 0,0,1
EndSplineSet
EndChar

StartChar: Uacute
Encoding: 218 218 125
Width: 678
GlyphClass: 5
Flags: W
LayerCount: 2
Fore
SplineSet
336 -12 m 0,0,1
 476 -12 476 -12 533 61.5 c 128,-1,2
 590 135 590 135 590 286 c 2,3,-1
 590 698 l 1,4,-1
 506 698 l 1,5,-1
 506 266 l 2,6,7
 506 166 506 166 469 114.5 c 128,-1,8
 432 63 432 63 339 63 c 256,9,10
 246 63 246 63 209 114.5 c 128,-1,11
 172 166 172 166 172 266 c 2,12,-1
 172 698 l 1,13,-1
 88 698 l 1,14,-1
 88 286 l 2,15,16
 88 130 88 130 142 61 c 0,17,18
 197 -12 197 -12 336 -12 c 0,0,1
344 755 m 1,19,-1
 450 914 l 1,20,-1
 377 949 l 1,21,-1
 292 779 l 1,22,-1
 344 755 l 1,19,-1
EndSplineSet
EndChar

StartChar: Ubreve
Encoding: 364 364 126
Width: 678
GlyphClass: 1
Flags: W
LayerCount: 2
Fore
SplineSet
336 -12 m 0,0,1
 476 -12 476 -12 533 61.5 c 128,-1,2
 590 135 590 135 590 286 c 2,3,-1
 590 698 l 1,4,-1
 506 698 l 1,5,-1
 506 266 l 2,6,7
 506 166 506 166 469 114.5 c 128,-1,8
 432 63 432 63 339 63 c 256,9,10
 246 63 246 63 209 114.5 c 128,-1,11
 172 166 172 166 172 266 c 2,12,-1
 172 698 l 1,13,-1
 88 698 l 1,14,-1
 88 286 l 2,15,16
 88 130 88 130 142 61 c 0,17,18
 197 -12 197 -12 336 -12 c 0,0,1
337 766 m 0,19,20
 410 766 410 766 447 808 c 0,21,22
 478 847 478 847 489 891 c 1,23,-1
 444 913 l 1,24,-1
 423 880 l 2,25,26
 410 857 410 857 392.5 843 c 128,-1,27
 375 829 375 829 337 829 c 256,28,29
 299 829 299 829 281 843.5 c 128,-1,30
 263 858 263 858 251 880 c 2,31,-1
 230 913 l 1,32,-1
 185 891 l 1,33,34
 218 766 218 766 337 766 c 0,19,20
EndSplineSet
EndChar

StartChar: Ucircumflex
Encoding: 219 219 127
Width: 678
GlyphClass: 7
Flags: W
LayerCount: 2
Fore
SplineSet
336 -12 m 0,0,1
 476 -12 476 -12 533 61.5 c 128,-1,2
 590 135 590 135 590 286 c 2,3,-1
 590 698 l 1,4,-1
 506 698 l 1,5,-1
 506 266 l 2,6,7
 506 166 506 166 469 114.5 c 128,-1,8
 432 63 432 63 339 63 c 256,9,10
 246 63 246 63 209 114.5 c 128,-1,11
 172 166 172 166 172 266 c 2,12,-1
 172 698 l 1,13,-1
 88 698 l 1,14,-1
 88 286 l 2,15,16
 88 130 88 130 142 61 c 0,17,18
 197 -12 197 -12 336 -12 c 0,0,1
454 761 m 1,19,-1
 498 792 l 1,20,-1
 387 935 l 1,21,-1
 287 935 l 1,22,-1
 176 792 l 1,23,-1
 220 761 l 1,24,-1
 337 878 l 1,25,-1
 454 761 l 1,19,-1
EndSplineSet
EndChar

StartChar: Udieresis
Encoding: 220 220 128
Width: 678
GlyphClass: 7
Flags: W
LayerCount: 2
Fore
SplineSet
336 -12 m 0,0,1
 476 -12 476 -12 533 61.5 c 128,-1,2
 590 135 590 135 590 286 c 2,3,-1
 590 698 l 1,4,-1
 506 698 l 1,5,-1
 506 266 l 2,6,7
 506 166 506 166 469 114.5 c 128,-1,8
 432 63 432 63 339 63 c 256,9,10
 246 63 246 63 209 114.5 c 128,-1,11
 172 166 172 166 172 266 c 2,12,-1
 172 698 l 1,13,-1
 88 698 l 1,14,-1
 88 286 l 2,15,16
 88 130 88 130 142 61 c 0,17,18
 197 -12 197 -12 336 -12 c 0,0,1
244 788 m 256,19,20
 294 788 294 788 294 835 c 2,21,-1
 294 847 l 2,22,23
 294 894 294 894 244 894 c 256,24,25
 194 894 194 894 194 847 c 2,26,-1
 194 835 l 2,27,28
 194 788 194 788 244 788 c 256,19,20
430 788 m 256,29,30
 480 788 480 788 480 835 c 2,31,-1
 480 847 l 2,32,33
 480 894 480 894 430 894 c 256,34,35
 380 894 380 894 380 847 c 2,36,-1
 380 835 l 2,37,38
 380 788 380 788 430 788 c 256,29,30
EndSplineSet
EndChar

StartChar: Udotbelow
Encoding: 7908 7908 129
Width: 678
Flags: W
LayerCount: 2
Fore
SplineSet
336 -12 m 0,0,1
 476 -12 476 -12 533 61.5 c 128,-1,2
 590 135 590 135 590 286 c 2,3,-1
 590 698 l 1,4,-1
 506 698 l 1,5,-1
 506 266 l 2,6,7
 506 166 506 166 469 114.5 c 128,-1,8
 432 63 432 63 339 63 c 256,9,10
 246 63 246 63 209 114.5 c 128,-1,11
 172 166 172 166 172 266 c 2,12,-1
 172 698 l 1,13,-1
 88 698 l 1,14,-1
 88 286 l 2,15,16
 88 130 88 130 142 61 c 0,17,18
 197 -12 197 -12 336 -12 c 0,0,1
337 -169 m 256,19,20
 388 -169 388 -169 388 -123 c 2,21,-1
 388 -112 l 2,22,23
 388 -66 388 -66 337 -66 c 256,24,25
 286 -66 286 -66 286 -112 c 2,26,-1
 286 -123 l 2,27,28
 286 -169 286 -169 337 -169 c 256,19,20
EndSplineSet
EndChar

StartChar: Udblacute
Encoding: 368 368 130
Width: 678
GlyphClass: 1
Flags: W
LayerCount: 2
Fore
SplineSet
336 -12 m 0,0,1
 476 -12 476 -12 533 61.5 c 128,-1,2
 590 135 590 135 590 286 c 2,3,-1
 590 698 l 1,4,-1
 506 698 l 1,5,-1
 506 266 l 2,6,7
 506 166 506 166 469 114.5 c 128,-1,8
 432 63 432 63 339 63 c 256,9,10
 246 63 246 63 209 114.5 c 128,-1,11
 172 166 172 166 172 266 c 2,12,-1
 172 698 l 1,13,-1
 88 698 l 1,14,-1
 88 286 l 2,15,16
 88 130 88 130 142 61 c 0,17,18
 197 -12 197 -12 336 -12 c 0,0,1
264 756 m 1,19,-1
 370 915 l 1,20,-1
 301 948 l 1,21,-1
 216 778 l 1,22,-1
 264 756 l 1,19,-1
424 756 m 1,23,-1
 530 915 l 1,24,-1
 461 948 l 1,25,-1
 376 778 l 1,26,-1
 424 756 l 1,23,-1
EndSplineSet
EndChar

StartChar: Ugrave
Encoding: 217 217 131
Width: 678
Flags: W
LayerCount: 2
Fore
SplineSet
336 -12 m 0,0,1
 476 -12 476 -12 533 61.5 c 128,-1,2
 590 135 590 135 590 286 c 2,3,-1
 590 698 l 1,4,-1
 506 698 l 1,5,-1
 506 266 l 2,6,7
 506 166 506 166 469 114.5 c 128,-1,8
 432 63 432 63 339 63 c 256,9,10
 246 63 246 63 209 114.5 c 128,-1,11
 172 166 172 166 172 266 c 2,12,-1
 172 698 l 1,13,-1
 88 698 l 1,14,-1
 88 286 l 2,15,16
 88 130 88 130 142 61 c 0,17,18
 197 -12 197 -12 336 -12 c 0,0,1
330 755 m 1,19,-1
 382 779 l 1,20,-1
 297 949 l 1,21,-1
 224 914 l 1,22,-1
 330 755 l 1,19,-1
EndSplineSet
EndChar

StartChar: Uhookabove
Encoding: 7910 7910 132
Width: 678
Flags: W
LayerCount: 2
Fore
SplineSet
336 -12 m 0,0,1
 476 -12 476 -12 533 61.5 c 128,-1,2
 590 135 590 135 590 286 c 2,3,-1
 590 698 l 1,4,-1
 506 698 l 1,5,-1
 506 266 l 2,6,7
 506 166 506 166 469 114.5 c 128,-1,8
 432 63 432 63 339 63 c 256,9,10
 246 63 246 63 209 114.5 c 128,-1,11
 172 166 172 166 172 266 c 2,12,-1
 172 698 l 1,13,-1
 88 698 l 1,14,-1
 88 286 l 2,15,16
 88 130 88 130 142 61 c 0,17,18
 197 -12 197 -12 336 -12 c 0,0,1
359 747 m 1,19,-1
 383 777 l 2,20,21
 432 837 432 837 432 880 c 0,22,23
 432 935 432 935 362 935 c 2,24,-1
 253 935 l 1,25,-1
 253 874 l 1,26,-1
 371 874 l 1,27,-1
 313 770 l 1,28,-1
 359 747 l 1,19,-1
EndSplineSet
EndChar

StartChar: Uhorn
Encoding: 431 431 133
Width: 678
GlyphClass: 7
Flags: W
LayerCount: 2
Fore
SplineSet
336 -12 m 0,0,1
 476 -12 476 -12 533 61.5 c 128,-1,2
 590 135 590 135 590 286 c 2,3,-1
 590 645 l 1,4,-1
 605 645 l 2,5,6
 643 645 643 645 655.5 663.5 c 128,-1,7
 668 682 668 682 668 708 c 2,8,-1
 668 810 l 1,9,-1
 597 810 l 1,10,-1
 597 698 l 1,11,-1
 506 698 l 1,12,-1
 506 266 l 2,13,14
 506 166 506 166 469 114.5 c 128,-1,15
 432 63 432 63 339 63 c 256,16,17
 246 63 246 63 209 114.5 c 128,-1,18
 172 166 172 166 172 266 c 2,19,-1
 172 698 l 1,20,-1
 88 698 l 1,21,-1
 88 286 l 2,22,23
 88 130 88 130 142 61 c 0,24,25
 197 -12 197 -12 336 -12 c 0,0,1
EndSplineSet
EndChar

StartChar: Uhornacute
Encoding: 7912 7912 134
Width: 678
Flags: W
LayerCount: 2
Fore
SplineSet
336 -12 m 0,0,1
 476 -12 476 -12 533 61.5 c 128,-1,2
 590 135 590 135 590 286 c 2,3,-1
 590 645 l 1,4,-1
 605 645 l 2,5,6
 643 645 643 645 655.5 663.5 c 128,-1,7
 668 682 668 682 668 708 c 2,8,-1
 668 810 l 1,9,-1
 597 810 l 1,10,-1
 597 698 l 1,11,-1
 506 698 l 1,12,-1
 506 266 l 2,13,14
 506 166 506 166 469 114.5 c 128,-1,15
 432 63 432 63 339 63 c 256,16,17
 246 63 246 63 209 114.5 c 128,-1,18
 172 166 172 166 172 266 c 2,19,-1
 172 698 l 1,20,-1
 88 698 l 1,21,-1
 88 286 l 2,22,23
 88 130 88 130 142 61 c 0,24,25
 197 -12 197 -12 336 -12 c 0,0,1
344 755 m 1,26,-1
 450 914 l 1,27,-1
 377 949 l 1,28,-1
 292 779 l 1,29,-1
 344 755 l 1,26,-1
EndSplineSet
EndChar

StartChar: Uhorndotbelow
Encoding: 7920 7920 135
Width: 678
Flags: W
LayerCount: 2
Fore
SplineSet
336 -12 m 0,0,1
 476 -12 476 -12 533 61.5 c 128,-1,2
 590 135 590 135 590 286 c 2,3,-1
 590 645 l 1,4,-1
 605 645 l 2,5,6
 643 645 643 645 655.5 663.5 c 128,-1,7
 668 682 668 682 668 708 c 2,8,-1
 668 810 l 1,9,-1
 597 810 l 1,10,-1
 597 698 l 1,11,-1
 506 698 l 1,12,-1
 506 266 l 2,13,14
 506 166 506 166 469 114.5 c 128,-1,15
 432 63 432 63 339 63 c 256,16,17
 246 63 246 63 209 114.5 c 128,-1,18
 172 166 172 166 172 266 c 2,19,-1
 172 698 l 1,20,-1
 88 698 l 1,21,-1
 88 286 l 2,22,23
 88 130 88 130 142 61 c 0,24,25
 197 -12 197 -12 336 -12 c 0,0,1
337 -169 m 256,26,27
 388 -169 388 -169 388 -123 c 2,28,-1
 388 -112 l 2,29,30
 388 -66 388 -66 337 -66 c 256,31,32
 286 -66 286 -66 286 -112 c 2,33,-1
 286 -123 l 2,34,35
 286 -169 286 -169 337 -169 c 256,26,27
EndSplineSet
EndChar

StartChar: Uhorngrave
Encoding: 7914 7914 136
Width: 678
Flags: W
LayerCount: 2
Fore
SplineSet
336 -12 m 0,0,1
 476 -12 476 -12 533 61.5 c 128,-1,2
 590 135 590 135 590 286 c 2,3,-1
 590 645 l 1,4,-1
 605 645 l 2,5,6
 643 645 643 645 655.5 663.5 c 128,-1,7
 668 682 668 682 668 708 c 2,8,-1
 668 810 l 1,9,-1
 597 810 l 1,10,-1
 597 698 l 1,11,-1
 506 698 l 1,12,-1
 506 266 l 2,13,14
 506 166 506 166 469 114.5 c 128,-1,15
 432 63 432 63 339 63 c 256,16,17
 246 63 246 63 209 114.5 c 128,-1,18
 172 166 172 166 172 266 c 2,19,-1
 172 698 l 1,20,-1
 88 698 l 1,21,-1
 88 286 l 2,22,23
 88 130 88 130 142 61 c 0,24,25
 197 -12 197 -12 336 -12 c 0,0,1
330 755 m 1,26,-1
 382 779 l 1,27,-1
 297 949 l 1,28,-1
 224 914 l 1,29,-1
 330 755 l 1,26,-1
EndSplineSet
EndChar

StartChar: Uhornhookabove
Encoding: 7916 7916 137
Width: 678
Flags: W
LayerCount: 2
Fore
SplineSet
336 -12 m 0,0,1
 476 -12 476 -12 533 61.5 c 128,-1,2
 590 135 590 135 590 286 c 2,3,-1
 590 645 l 1,4,-1
 605 645 l 2,5,6
 643 645 643 645 655.5 663.5 c 128,-1,7
 668 682 668 682 668 708 c 2,8,-1
 668 810 l 1,9,-1
 597 810 l 1,10,-1
 597 698 l 1,11,-1
 506 698 l 1,12,-1
 506 266 l 2,13,14
 506 166 506 166 469 114.5 c 128,-1,15
 432 63 432 63 339 63 c 256,16,17
 246 63 246 63 209 114.5 c 128,-1,18
 172 166 172 166 172 266 c 2,19,-1
 172 698 l 1,20,-1
 88 698 l 1,21,-1
 88 286 l 2,22,23
 88 130 88 130 142 61 c 0,24,25
 197 -12 197 -12 336 -12 c 0,0,1
359 747 m 1,26,-1
 383 777 l 2,27,28
 432 837 432 837 432 880 c 0,29,30
 432 935 432 935 362 935 c 2,31,-1
 253 935 l 1,32,-1
 253 874 l 1,33,-1
 371 874 l 1,34,-1
 313 770 l 1,35,-1
 359 747 l 1,26,-1
EndSplineSet
EndChar

StartChar: Uhorntilde
Encoding: 7918 7918 138
Width: 678
Flags: W
LayerCount: 2
Fore
SplineSet
336 -12 m 0,0,1
 476 -12 476 -12 533 61.5 c 128,-1,2
 590 135 590 135 590 286 c 2,3,-1
 590 645 l 1,4,-1
 605 645 l 2,5,6
 643 645 643 645 655.5 663.5 c 128,-1,7
 668 682 668 682 668 708 c 2,8,-1
 668 810 l 1,9,-1
 597 810 l 1,10,-1
 597 698 l 1,11,-1
 506 698 l 1,12,-1
 506 266 l 2,13,14
 506 166 506 166 469 114.5 c 128,-1,15
 432 63 432 63 339 63 c 256,16,17
 246 63 246 63 209 114.5 c 128,-1,18
 172 166 172 166 172 266 c 2,19,-1
 172 698 l 1,20,-1
 88 698 l 1,21,-1
 88 286 l 2,22,23
 88 130 88 130 142 61 c 0,24,25
 197 -12 197 -12 336 -12 c 0,0,1
400 786 m 0,26,27
 455 786 455 786 491 839 c 1,28,-1
 458 879 l 1,29,30
 433 852 433 852 401 852 c 0,31,32
 387 852 387 852 375 857 c 0,33,34
 371 859 371 859 336.5 876.5 c 128,-1,35
 302 894 302 894 274 894 c 0,36,37
 219 894 219 894 183 841 c 1,38,-1
 216 801 l 1,39,40
 242 828 242 828 273 828 c 0,41,42
 287 828 287 828 299 823 c 0,43,44
 303 821 303 821 337.5 803.5 c 128,-1,45
 372 786 372 786 400 786 c 0,26,27
EndSplineSet
EndChar

StartChar: Umacron
Encoding: 362 362 139
Width: 678
Flags: W
LayerCount: 2
Fore
SplineSet
336 -12 m 0,0,1
 476 -12 476 -12 533 61.5 c 128,-1,2
 590 135 590 135 590 286 c 2,3,-1
 590 698 l 1,4,-1
 506 698 l 1,5,-1
 506 266 l 2,6,7
 506 166 506 166 469 114.5 c 128,-1,8
 432 63 432 63 339 63 c 256,9,10
 246 63 246 63 209 114.5 c 128,-1,11
 172 166 172 166 172 266 c 2,12,-1
 172 698 l 1,13,-1
 88 698 l 1,14,-1
 88 286 l 2,15,16
 88 130 88 130 142 61 c 0,17,18
 197 -12 197 -12 336 -12 c 0,0,1
477 807 m 1,19,-1
 477 875 l 1,20,-1
 197 875 l 1,21,-1
 197 807 l 1,22,-1
 477 807 l 1,19,-1
EndSplineSet
EndChar

StartChar: Uogonek
Encoding: 370 370 140
Width: 678
Flags: W
LayerCount: 2
Fore
SplineSet
420 -207 m 0,0,1
 455 -207 455 -207 477 -195.5 c 128,-1,2
 499 -184 499 -184 508 -168 c 1,3,-1
 468 -129 l 1,4,5
 449 -153 449 -153 420 -153 c 0,6,7
 389 -153 389 -153 389 -123 c 0,8,9
 389 -103 389 -103 407.5 -81 c 128,-1,10
 426 -59 426 -59 475 -12 c 0,11,12
 542 53 542 53 567 121 c 0,13,14
 590 186 590 186 590 286 c 2,15,-1
 590 698 l 1,16,-1
 506 698 l 1,17,-1
 506 266 l 2,18,19
 506 166 506 166 469 114.5 c 128,-1,20
 432 63 432 63 339 63 c 256,21,22
 246 63 246 63 209 114.5 c 128,-1,23
 172 166 172 166 172 266 c 2,24,-1
 172 698 l 1,25,-1
 88 698 l 1,26,-1
 88 286 l 2,27,28
 88 130 88 130 142 61 c 0,29,30
 197 -12 197 -12 336 -12 c 0,31,32
 390 -12 390 -12 437 5 c 1,33,-1
 441 0 l 1,34,-1
 396 -32 l 2,35,36
 325 -80 325 -80 325 -133 c 0,37,38
 325 -171 325 -171 353.5 -189 c 128,-1,39
 382 -207 382 -207 420 -207 c 0,0,1
EndSplineSet
EndChar

StartChar: Uring
Encoding: 366 366 141
Width: 678
Flags: W
LayerCount: 2
Fore
SplineSet
336 -12 m 0,0,1
 476 -12 476 -12 533 61.5 c 128,-1,2
 590 135 590 135 590 286 c 2,3,-1
 590 698 l 1,4,-1
 506 698 l 1,5,-1
 506 266 l 2,6,7
 506 166 506 166 469 114.5 c 128,-1,8
 432 63 432 63 339 63 c 256,9,10
 246 63 246 63 209 114.5 c 128,-1,11
 172 166 172 166 172 266 c 2,12,-1
 172 698 l 1,13,-1
 88 698 l 1,14,-1
 88 286 l 2,15,16
 88 130 88 130 142 61 c 0,17,18
 197 -12 197 -12 336 -12 c 0,0,1
337 746 m 256,19,20
 385 746 385 746 419 779 c 128,-1,21
 453 812 453 812 453 861 c 0,22,23
 453 911 453 911 420 944 c 0,24,25
 385 976 385 976 337 976 c 256,26,27
 289 976 289 976 255 943.5 c 128,-1,28
 221 911 221 911 221 861 c 0,29,30
 221 812 221 812 255 779 c 128,-1,31
 289 746 289 746 337 746 c 256,19,20
337 795 m 0,32,33
 283 795 283 795 279 850 c 1,34,-1
 279 872 l 2,35,36
 279 925 279 925 337 927 c 0,37,38
 391 927 391 927 395 872 c 1,39,-1
 395 850 l 2,40,41
 395 798 395 798 337 795 c 0,32,33
EndSplineSet
EndChar

StartChar: Utilde
Encoding: 360 360 142
Width: 678
Flags: W
LayerCount: 2
Fore
SplineSet
336 -12 m 0,0,1
 476 -12 476 -12 533 61.5 c 128,-1,2
 590 135 590 135 590 286 c 2,3,-1
 590 698 l 1,4,-1
 506 698 l 1,5,-1
 506 266 l 2,6,7
 506 166 506 166 469 114.5 c 128,-1,8
 432 63 432 63 339 63 c 256,9,10
 246 63 246 63 209 114.5 c 128,-1,11
 172 166 172 166 172 266 c 2,12,-1
 172 698 l 1,13,-1
 88 698 l 1,14,-1
 88 286 l 2,15,16
 88 130 88 130 142 61 c 0,17,18
 197 -12 197 -12 336 -12 c 0,0,1
410 782 m 0,19,20
 470 782 470 782 505 835 c 1,21,-1
 472 875 l 1,22,23
 457 862 457 862 444 855 c 128,-1,24
 431 848 431 848 414 848 c 0,25,26
 387 848 387 848 337 875 c 0,27,28
 323 884 323 884 305.5 891 c 128,-1,29
 288 898 288 898 264 898 c 0,30,31
 204 898 204 898 169 845 c 1,32,-1
 202 805 l 1,33,34
 217 818 217 818 230 825 c 128,-1,35
 243 832 243 832 260 832 c 0,36,37
 287 832 287 832 337 805 c 0,38,39
 351 796 351 796 368.5 789 c 128,-1,40
 386 782 386 782 410 782 c 0,19,20
EndSplineSet
EndChar

StartChar: V
Encoding: 86 86 143
Width: 609
Flags: W
LayerCount: 2
Fore
SplineSet
354 0 m 1,0,-1
 589 698 l 1,1,-1
 502 698 l 1,2,-1
 386 346 l 1,3,-1
 307 84 l 1,4,-1
 302 84 l 1,5,-1
 225 346 l 1,6,-1
 110 698 l 1,7,-1
 20 698 l 1,8,-1
 252 0 l 1,9,-1
 354 0 l 1,0,-1
EndSplineSet
EndChar

StartChar: W
Encoding: 87 87 144
Width: 891
Flags: W
LayerCount: 2
Fore
SplineSet
692 0 m 1,0,-1
 871 698 l 1,1,-1
 785 698 l 1,2,-1
 646 102 l 1,3,-1
 643 102 l 1,4,-1
 493 698 l 1,5,-1
 397 698 l 1,6,-1
 309 362 l 1,7,-1
 244 101 l 1,8,-1
 242 101 l 1,9,-1
 109 698 l 1,10,-1
 20 698 l 1,11,-1
 190 0 l 1,12,-1
 283 0 l 1,13,14
 364 302 364 302 442 604 c 1,15,-1
 444 604 l 1,16,-1
 508 348 l 1,17,-1
 599 0 l 1,18,-1
 692 0 l 1,0,-1
EndSplineSet
EndChar

StartChar: Wacute
Encoding: 7810 7810 145
Width: 891
Flags: W
LayerCount: 2
Fore
SplineSet
692 0 m 1,0,-1
 871 698 l 1,1,-1
 785 698 l 1,2,-1
 646 102 l 1,3,-1
 643 102 l 1,4,-1
 493 698 l 1,5,-1
 397 698 l 1,6,-1
 309 362 l 1,7,-1
 244 101 l 1,8,-1
 242 101 l 1,9,-1
 109 698 l 1,10,-1
 20 698 l 1,11,-1
 190 0 l 1,12,-1
 283 0 l 1,13,14
 364 302 364 302 442 604 c 1,15,-1
 444 604 l 1,16,-1
 508 348 l 1,17,-1
 599 0 l 1,18,-1
 692 0 l 1,0,-1
453 755 m 1,19,-1
 559 914 l 1,20,-1
 486 949 l 1,21,-1
 401 779 l 1,22,-1
 453 755 l 1,19,-1
EndSplineSet
EndChar

StartChar: Wcircumflex
Encoding: 372 372 146
Width: 891
Flags: W
LayerCount: 2
Fore
SplineSet
692 0 m 1,0,-1
 871 698 l 1,1,-1
 785 698 l 1,2,-1
 646 102 l 1,3,-1
 643 102 l 1,4,-1
 493 698 l 1,5,-1
 397 698 l 1,6,-1
 309 362 l 1,7,-1
 244 101 l 1,8,-1
 242 101 l 1,9,-1
 109 698 l 1,10,-1
 20 698 l 1,11,-1
 190 0 l 1,12,-1
 283 0 l 1,13,14
 364 302 364 302 442 604 c 1,15,-1
 444 604 l 1,16,-1
 508 348 l 1,17,-1
 599 0 l 1,18,-1
 692 0 l 1,0,-1
563 761 m 1,19,-1
 607 792 l 1,20,-1
 496 935 l 1,21,-1
 396 935 l 1,22,-1
 285 792 l 1,23,-1
 329 761 l 1,24,-1
 446 878 l 1,25,-1
 563 761 l 1,19,-1
EndSplineSet
EndChar

StartChar: Wdieresis
Encoding: 7812 7812 147
Width: 891
Flags: W
LayerCount: 2
Fore
SplineSet
692 0 m 1,0,-1
 871 698 l 1,1,-1
 785 698 l 1,2,-1
 646 102 l 1,3,-1
 643 102 l 1,4,-1
 493 698 l 1,5,-1
 397 698 l 1,6,-1
 309 362 l 1,7,-1
 244 101 l 1,8,-1
 242 101 l 1,9,-1
 109 698 l 1,10,-1
 20 698 l 1,11,-1
 190 0 l 1,12,-1
 283 0 l 1,13,14
 364 302 364 302 442 604 c 1,15,-1
 444 604 l 1,16,-1
 508 348 l 1,17,-1
 599 0 l 1,18,-1
 692 0 l 1,0,-1
353 788 m 256,19,20
 403 788 403 788 403 835 c 2,21,-1
 403 847 l 2,22,23
 403 894 403 894 353 894 c 256,24,25
 303 894 303 894 303 847 c 2,26,-1
 303 835 l 2,27,28
 303 788 303 788 353 788 c 256,19,20
539 788 m 256,29,30
 589 788 589 788 589 835 c 2,31,-1
 589 847 l 2,32,33
 589 894 589 894 539 894 c 256,34,35
 489 894 489 894 489 847 c 2,36,-1
 489 835 l 2,37,38
 489 788 489 788 539 788 c 256,29,30
EndSplineSet
EndChar

StartChar: Wgrave
Encoding: 7808 7808 148
Width: 891
Flags: W
LayerCount: 2
Fore
SplineSet
692 0 m 1,0,-1
 871 698 l 1,1,-1
 785 698 l 1,2,-1
 646 102 l 1,3,-1
 643 102 l 1,4,-1
 493 698 l 1,5,-1
 397 698 l 1,6,-1
 309 362 l 1,7,-1
 244 101 l 1,8,-1
 242 101 l 1,9,-1
 109 698 l 1,10,-1
 20 698 l 1,11,-1
 190 0 l 1,12,-1
 283 0 l 1,13,14
 364 302 364 302 442 604 c 1,15,-1
 444 604 l 1,16,-1
 508 348 l 1,17,-1
 599 0 l 1,18,-1
 692 0 l 1,0,-1
439 755 m 1,19,-1
 491 779 l 1,20,-1
 406 949 l 1,21,-1
 333 914 l 1,22,-1
 439 755 l 1,19,-1
EndSplineSet
EndChar

StartChar: X
Encoding: 88 88 149
Width: 613
Flags: W
LayerCount: 2
Fore
SplineSet
589 0 m 1,0,-1
 359 358 l 1,1,-1
 583 698 l 1,2,-1
 487 698 l 1,3,-1
 308 420 l 1,4,-1
 306 420 l 1,5,-1
 131 698 l 1,6,-1
 30 698 l 1,7,-1
 252 355 l 1,8,-1
 24 0 l 1,9,-1
 120 0 l 1,10,-1
 303 293 l 1,11,-1
 305 293 l 1,12,-1
 488 0 l 1,13,-1
 589 0 l 1,0,-1
EndSplineSet
EndChar

StartChar: Y
Encoding: 89 89 150
Width: 593
Flags: W
LayerCount: 2
Fore
SplineSet
337 0 m 1,0,-1
 337 279 l 1,1,-1
 580 698 l 1,2,-1
 484 698 l 1,3,-1
 298 362 l 1,4,-1
 295 362 l 1,5,-1
 109 698 l 1,6,-1
 13 698 l 1,7,-1
 253 276 l 1,8,-1
 253 0 l 1,9,-1
 337 0 l 1,0,-1
EndSplineSet
EndChar

StartChar: Yacute
Encoding: 221 221 151
Width: 593
Flags: W
LayerCount: 2
Fore
SplineSet
337 0 m 1,0,-1
 337 279 l 1,1,-1
 580 698 l 1,2,-1
 484 698 l 1,3,-1
 298 362 l 1,4,-1
 295 362 l 1,5,-1
 109 698 l 1,6,-1
 13 698 l 1,7,-1
 253 276 l 1,8,-1
 253 0 l 1,9,-1
 337 0 l 1,0,-1
305 755 m 1,10,-1
 411 914 l 1,11,-1
 338 949 l 1,12,-1
 253 779 l 1,13,-1
 305 755 l 1,10,-1
EndSplineSet
EndChar

StartChar: Ycircumflex
Encoding: 374 374 152
Width: 593
Flags: W
LayerCount: 2
Fore
SplineSet
337 0 m 1,0,-1
 337 279 l 1,1,-1
 580 698 l 1,2,-1
 484 698 l 1,3,-1
 298 362 l 1,4,-1
 295 362 l 1,5,-1
 109 698 l 1,6,-1
 13 698 l 1,7,-1
 253 276 l 1,8,-1
 253 0 l 1,9,-1
 337 0 l 1,0,-1
415 761 m 1,10,-1
 459 792 l 1,11,-1
 348 935 l 1,12,-1
 248 935 l 1,13,-1
 137 792 l 1,14,-1
 181 761 l 1,15,-1
 298 878 l 1,16,-1
 415 761 l 1,10,-1
EndSplineSet
EndChar

StartChar: Ydieresis
Encoding: 376 376 153
Width: 593
Flags: W
LayerCount: 2
Fore
SplineSet
337 0 m 1,0,-1
 337 279 l 1,1,-1
 580 698 l 1,2,-1
 484 698 l 1,3,-1
 298 362 l 1,4,-1
 295 362 l 1,5,-1
 109 698 l 1,6,-1
 13 698 l 1,7,-1
 253 276 l 1,8,-1
 253 0 l 1,9,-1
 337 0 l 1,0,-1
205 788 m 256,10,11
 255 788 255 788 255 835 c 2,12,-1
 255 847 l 2,13,14
 255 894 255 894 205 894 c 256,15,16
 155 894 155 894 155 847 c 2,17,-1
 155 835 l 2,18,19
 155 788 155 788 205 788 c 256,10,11
391 788 m 256,20,21
 441 788 441 788 441 835 c 2,22,-1
 441 847 l 2,23,24
 441 894 441 894 391 894 c 256,25,26
 341 894 341 894 341 847 c 2,27,-1
 341 835 l 2,28,29
 341 788 341 788 391 788 c 256,20,21
EndSplineSet
EndChar

StartChar: Ydotbelow
Encoding: 7924 7924 154
Width: 593
Flags: W
LayerCount: 2
Fore
SplineSet
337 0 m 1,0,-1
 337 279 l 1,1,-1
 580 698 l 1,2,-1
 484 698 l 1,3,-1
 298 362 l 1,4,-1
 295 362 l 1,5,-1
 109 698 l 1,6,-1
 13 698 l 1,7,-1
 253 276 l 1,8,-1
 253 0 l 1,9,-1
 337 0 l 1,0,-1
297 -169 m 256,10,11
 348 -169 348 -169 348 -123 c 2,12,-1
 348 -112 l 2,13,14
 348 -66 348 -66 297 -66 c 256,15,16
 246 -66 246 -66 246 -112 c 2,17,-1
 246 -123 l 2,18,19
 246 -169 246 -169 297 -169 c 256,10,11
EndSplineSet
EndChar

StartChar: Ygrave
Encoding: 7922 7922 155
Width: 593
Flags: W
LayerCount: 2
Fore
SplineSet
337 0 m 1,0,-1
 337 279 l 1,1,-1
 580 698 l 1,2,-1
 484 698 l 1,3,-1
 298 362 l 1,4,-1
 295 362 l 1,5,-1
 109 698 l 1,6,-1
 13 698 l 1,7,-1
 253 276 l 1,8,-1
 253 0 l 1,9,-1
 337 0 l 1,0,-1
291 755 m 1,10,-1
 343 779 l 1,11,-1
 258 949 l 1,12,-1
 185 914 l 1,13,-1
 291 755 l 1,10,-1
EndSplineSet
EndChar

StartChar: Yhookabove
Encoding: 7926 7926 156
Width: 593
Flags: W
LayerCount: 2
Fore
SplineSet
337 0 m 1,0,-1
 337 279 l 1,1,-1
 580 698 l 1,2,-1
 484 698 l 1,3,-1
 298 362 l 1,4,-1
 295 362 l 1,5,-1
 109 698 l 1,6,-1
 13 698 l 1,7,-1
 253 276 l 1,8,-1
 253 0 l 1,9,-1
 337 0 l 1,0,-1
319 747 m 1,10,-1
 343 777 l 2,11,12
 392 837 392 837 392 880 c 0,13,14
 392 935 392 935 322 935 c 2,15,-1
 213 935 l 1,16,-1
 213 874 l 1,17,-1
 331 874 l 1,18,-1
 273 770 l 1,19,-1
 319 747 l 1,10,-1
EndSplineSet
EndChar

StartChar: Ytilde
Encoding: 7928 7928 157
Width: 593
Flags: W
LayerCount: 2
Fore
SplineSet
337 0 m 1,0,-1
 337 279 l 1,1,-1
 580 698 l 1,2,-1
 484 698 l 1,3,-1
 298 362 l 1,4,-1
 295 362 l 1,5,-1
 109 698 l 1,6,-1
 13 698 l 1,7,-1
 253 276 l 1,8,-1
 253 0 l 1,9,-1
 337 0 l 1,0,-1
371 782 m 0,10,11
 431 782 431 782 466 835 c 1,12,-1
 433 875 l 1,13,14
 418 862 418 862 405 855 c 128,-1,15
 392 848 392 848 375 848 c 0,16,17
 348 848 348 848 298 875 c 0,18,19
 284 884 284 884 266.5 891 c 128,-1,20
 249 898 249 898 225 898 c 0,21,22
 165 898 165 898 130 845 c 1,23,-1
 163 805 l 1,24,25
 178 818 178 818 191 825 c 128,-1,26
 204 832 204 832 221 832 c 0,27,28
 248 832 248 832 298 805 c 0,29,30
 312 796 312 796 329.5 789 c 128,-1,31
 347 782 347 782 371 782 c 0,10,11
EndSplineSet
EndChar

StartChar: Z
Encoding: 90 90 158
Width: 580
Flags: W
LayerCount: 2
Fore
SplineSet
544 0 m 1,0,-1
 544 74 l 1,1,-1
 126 74 l 1,2,-1
 530 622 l 1,3,-1
 530 698 l 1,4,-1
 57 698 l 1,5,-1
 57 624 l 1,6,-1
 439 624 l 1,7,-1
 36 76 l 1,8,-1
 36 0 l 1,9,-1
 544 0 l 1,0,-1
EndSplineSet
EndChar

StartChar: Zacute
Encoding: 377 377 159
Width: 580
Flags: W
LayerCount: 2
Fore
SplineSet
544 0 m 1,0,-1
 544 74 l 1,1,-1
 126 74 l 1,2,-1
 530 622 l 1,3,-1
 530 698 l 1,4,-1
 57 698 l 1,5,-1
 57 624 l 1,6,-1
 439 624 l 1,7,-1
 36 76 l 1,8,-1
 36 0 l 1,9,-1
 544 0 l 1,0,-1
305 755 m 1,10,-1
 411 914 l 1,11,-1
 338 949 l 1,12,-1
 253 779 l 1,13,-1
 305 755 l 1,10,-1
EndSplineSet
EndChar

StartChar: Zcaron
Encoding: 381 381 160
Width: 580
Flags: W
LayerCount: 2
Fore
SplineSet
544 0 m 1,0,-1
 544 74 l 1,1,-1
 126 74 l 1,2,-1
 530 622 l 1,3,-1
 530 698 l 1,4,-1
 57 698 l 1,5,-1
 57 624 l 1,6,-1
 439 624 l 1,7,-1
 36 76 l 1,8,-1
 36 0 l 1,9,-1
 544 0 l 1,0,-1
348 769 m 1,10,-1
 459 912 l 1,11,-1
 415 943 l 1,12,-1
 298 826 l 1,13,-1
 181 943 l 1,14,-1
 137 912 l 1,15,-1
 248 769 l 1,16,-1
 348 769 l 1,10,-1
EndSplineSet
EndChar

StartChar: Zdot
Encoding: 379 379 161
Width: 580
Flags: W
LayerCount: 2
Fore
SplineSet
544 0 m 1,0,-1
 544 74 l 1,1,-1
 126 74 l 1,2,-1
 530 622 l 1,3,-1
 530 698 l 1,4,-1
 57 698 l 1,5,-1
 57 624 l 1,6,-1
 439 624 l 1,7,-1
 36 76 l 1,8,-1
 36 0 l 1,9,-1
 544 0 l 1,0,-1
298 780 m 256,10,11
 354 780 354 780 354 833 c 2,12,-1
 354 847 l 2,13,14
 354 900 354 900 298 900 c 256,15,16
 242 900 242 900 242 847 c 2,17,-1
 242 833 l 2,18,19
 242 780 242 780 298 780 c 256,10,11
EndSplineSet
EndChar

StartChar: AE
Encoding: 198 198 162
Width: 907
Flags: W
LayerCount: 2
Fore
SplineSet
843 0 m 1,0,-1
 843 74 l 1,1,-1
 500 74 l 1,2,-1
 500 316 l 1,3,-1
 823 316 l 1,4,-1
 823 390 l 1,5,-1
 500 390 l 1,6,-1
 500 624 l 1,7,-1
 843 624 l 1,8,-1
 843 698 l 1,9,-1
 361 698 l 1,10,-1
 4 0 l 1,11,-1
 90 0 l 1,12,-1
 192 205 l 1,13,-1
 417 205 l 1,14,-1
 417 0 l 1,15,-1
 843 0 l 1,0,-1
417 279 m 1,16,-1
 227 279 l 1,17,-1
 404 624 l 1,18,-1
 417 624 l 1,19,-1
 417 279 l 1,16,-1
EndSplineSet
EndChar

StartChar: AEacute
Encoding: 508 508 163
Width: 907
Flags: W
LayerCount: 2
Fore
SplineSet
843 0 m 1,0,-1
 843 74 l 1,1,-1
 500 74 l 1,2,-1
 500 316 l 1,3,-1
 823 316 l 1,4,-1
 823 390 l 1,5,-1
 500 390 l 1,6,-1
 500 624 l 1,7,-1
 843 624 l 1,8,-1
 843 698 l 1,9,-1
 361 698 l 1,10,-1
 4 0 l 1,11,-1
 90 0 l 1,12,-1
 192 205 l 1,13,-1
 417 205 l 1,14,-1
 417 0 l 1,15,-1
 843 0 l 1,0,-1
417 279 m 1,16,-1
 227 279 l 1,17,-1
 404 624 l 1,18,-1
 417 624 l 1,19,-1
 417 279 l 1,16,-1
598 755 m 1,20,-1
 704 914 l 1,21,-1
 631 949 l 1,22,-1
 546 779 l 1,23,-1
 598 755 l 1,20,-1
EndSplineSet
EndChar

StartChar: Eth
Encoding: 208 208 164
Width: 674
Flags: W
LayerCount: 2
Fore
SplineSet
330 0 m 2,0,1
 461 0 461 0 538.5 87.5 c 128,-1,2
 616 175 616 175 616 349 c 256,3,4
 616 523 616 523 538.5 610.5 c 128,-1,5
 461 698 461 698 330 698 c 2,6,-1
 96 698 l 1,7,-1
 96 401 l 1,8,-1
 17 401 l 1,9,-1
 17 337 l 1,10,-1
 96 337 l 1,11,-1
 96 0 l 1,12,-1
 330 0 l 2,0,1
330 74 m 2,13,-1
 180 74 l 1,14,-1
 180 337 l 1,15,-1
 317 337 l 1,16,-1
 317 401 l 1,17,-1
 180 401 l 1,18,-1
 180 624 l 1,19,-1
 330 624 l 2,20,21
 416 624 416 624 471 567 c 128,-1,22
 526 510 526 510 526 406 c 2,23,-1
 526 292 l 2,24,25
 526 189 526 189 471 131.5 c 128,-1,26
 416 74 416 74 330 74 c 2,13,-1
EndSplineSet
EndChar

StartChar: Oslash
Encoding: 216 216 165
Width: 708
Flags: W
LayerCount: 2
Fore
SplineSet
121 -45 m 1,0,-1
 181 41 l 1,1,2
 252 -12 252 -12 354 -12 c 0,3,4
 488 -12 488 -12 569 81 c 128,-1,5
 650 174 650 174 650 349 c 0,6,7
 650 519 650 519 576 609 c 1,8,-1
 644 706 l 1,9,-1
 587 743 l 1,10,-1
 527 657 l 1,11,12
 456 710 456 710 354 710 c 0,13,14
 218 710 218 710 139 617 c 0,15,16
 58 525 58 525 58 349 c 0,17,18
 58 180 58 180 132 89 c 1,19,-1
 64 -8 l 1,20,-1
 121 -45 l 1,0,-1
180 160 m 1,21,22
 148 215 148 215 148 291 c 2,23,-1
 148 407 l 2,24,25
 148 511 148 511 206 573 c 128,-1,26
 264 635 264 635 354 635 c 0,27,28
 431 635 431 635 482 592 c 1,29,-1
 180 160 l 1,21,22
354 63 m 0,30,31
 278 63 278 63 226 106 c 1,32,-1
 528 538 l 1,33,34
 560 484 560 484 560 407 c 2,35,-1
 560 291 l 2,36,37
 560 188 560 188 502 125.5 c 128,-1,38
 444 63 444 63 354 63 c 0,30,31
EndSplineSet
EndChar

StartChar: Oslashacute
Encoding: 510 510 166
Width: 708
Flags: W
LayerCount: 2
Fore
SplineSet
121 -45 m 1,0,-1
 181 41 l 1,1,2
 252 -12 252 -12 354 -12 c 0,3,4
 488 -12 488 -12 569 81 c 128,-1,5
 650 174 650 174 650 349 c 0,6,7
 650 519 650 519 576 609 c 1,8,-1
 644 706 l 1,9,-1
 587 743 l 1,10,-1
 527 657 l 1,11,12
 456 710 456 710 354 710 c 0,13,14
 218 710 218 710 139 617 c 0,15,16
 58 525 58 525 58 349 c 0,17,18
 58 180 58 180 132 89 c 1,19,-1
 64 -8 l 1,20,-1
 121 -45 l 1,0,-1
180 160 m 1,21,22
 148 215 148 215 148 291 c 2,23,-1
 148 407 l 2,24,25
 148 511 148 511 206 573 c 128,-1,26
 264 635 264 635 354 635 c 0,27,28
 431 635 431 635 482 592 c 1,29,-1
 180 160 l 1,21,22
354 63 m 0,30,31
 278 63 278 63 226 106 c 1,32,-1
 528 538 l 1,33,34
 560 484 560 484 560 407 c 2,35,-1
 560 291 l 2,36,37
 560 188 560 188 502 125.5 c 128,-1,38
 444 63 444 63 354 63 c 0,30,31
361 755 m 1,39,-1
 467 914 l 1,40,-1
 394 949 l 1,41,-1
 309 779 l 1,42,-1
 361 755 l 1,39,-1
EndSplineSet
EndChar

StartChar: Thorn
Encoding: 222 222 167
Width: 606
Flags: W
LayerCount: 2
Fore
SplineSet
177 0 m 1,0,-1
 177 154 l 1,1,-1
 371 154 l 2,2,3
 465 154 465 154 515.5 208 c 128,-1,4
 566 262 566 262 566 354 c 256,5,6
 566 446 566 446 515.5 500 c 128,-1,7
 465 554 465 554 371 554 c 2,8,-1
 177 554 l 1,9,-1
 177 698 l 1,10,-1
 93 698 l 1,11,-1
 93 0 l 1,12,-1
 177 0 l 1,0,-1
371 229 m 1,13,-1
 177 229 l 1,14,-1
 177 479 l 1,15,-1
 371 479 l 2,16,17
 472 479 472 479 476 379 c 1,18,-1
 476 329 l 2,19,20
 476 233 476 233 371 229 c 1,13,-1
EndSplineSet
EndChar

StartChar: Dcroat
Encoding: 272 272 168
Width: 674
Flags: W
LayerCount: 2
Fore
SplineSet
330 0 m 2,0,1
 461 0 461 0 538.5 87.5 c 128,-1,2
 616 175 616 175 616 349 c 256,3,4
 616 523 616 523 538.5 610.5 c 128,-1,5
 461 698 461 698 330 698 c 2,6,-1
 96 698 l 1,7,-1
 96 401 l 1,8,-1
 17 401 l 1,9,-1
 17 337 l 1,10,-1
 96 337 l 1,11,-1
 96 0 l 1,12,-1
 330 0 l 2,0,1
330 74 m 2,13,-1
 180 74 l 1,14,-1
 180 337 l 1,15,-1
 317 337 l 1,16,-1
 317 401 l 1,17,-1
 180 401 l 1,18,-1
 180 624 l 1,19,-1
 330 624 l 2,20,21
 416 624 416 624 471 567 c 128,-1,22
 526 510 526 510 526 406 c 2,23,-1
 526 292 l 2,24,25
 526 189 526 189 471 131.5 c 128,-1,26
 416 74 416 74 330 74 c 2,13,-1
EndSplineSet
EndChar

StartChar: Hbar
Encoding: 294 294 169
Width: 713
Flags: W
LayerCount: 2
Fore
SplineSet
617 0 m 1,0,-1
 617 518 l 1,1,-1
 686 518 l 1,2,-1
 686 582 l 1,3,-1
 617 582 l 1,4,-1
 617 698 l 1,5,-1
 533 698 l 1,6,-1
 533 582 l 1,7,-1
 180 582 l 1,8,-1
 180 698 l 1,9,-1
 96 698 l 1,10,-1
 96 582 l 1,11,-1
 27 582 l 1,12,-1
 27 518 l 1,13,-1
 96 518 l 1,14,-1
 96 0 l 1,15,-1
 180 0 l 1,16,-1
 180 316 l 1,17,-1
 533 316 l 1,18,-1
 533 0 l 1,19,-1
 617 0 l 1,0,-1
533 390 m 1,20,-1
 180 390 l 1,21,-1
 180 518 l 1,22,-1
 533 518 l 1,23,-1
 533 390 l 1,20,-1
EndSplineSet
EndChar

StartChar: Ldot
Encoding: 319 319 171
Width: 501
Flags: W
LayerCount: 2
Fore
SplineSet
474 0 m 1,0,-1
 474 74 l 1,1,-1
 177 74 l 1,2,-1
 177 698 l 1,3,-1
 93 698 l 1,4,-1
 93 0 l 1,5,-1
 474 0 l 1,0,-1
385 293 m 256,6,7
 436 293 436 293 436 339 c 2,8,-1
 436 350 l 2,9,10
 436 396 436 396 385 396 c 256,11,12
 334 396 334 396 334 350 c 2,13,-1
 334 339 l 2,14,15
 334 293 334 293 385 293 c 256,6,7
EndSplineSet
EndChar

StartChar: Lslash
Encoding: 321 321 172
Width: 508
Flags: W
LayerCount: 2
Fore
SplineSet
477 0 m 1,0,-1
 477 75 l 1,1,-1
 180 75 l 1,2,-1
 180 298 l 1,3,-1
 361 357 l 1,4,-1
 361 428 l 1,5,-1
 180 367 l 1,6,-1
 180 698 l 1,7,-1
 96 698 l 1,8,-1
 96 339 l 1,9,-1
 -7 304 l 1,10,-1
 -7 237 l 1,11,-1
 96 271 l 1,12,-1
 96 0 l 1,13,-1
 477 0 l 1,0,-1
EndSplineSet
EndChar

StartChar: Eng
Encoding: 330 330 173
Width: 707
Flags: W
LayerCount: 2
Fore
SplineSet
500 -200 m 2,0,1
 558 -200 558 -200 586 -165.5 c 128,-1,2
 614 -131 614 -131 614 -75 c 2,3,-1
 614 698 l 1,4,-1
 532 698 l 1,5,-1
 532 117 l 1,6,-1
 529 117 l 1,7,-1
 445 272 l 1,8,-1
 190 698 l 1,9,-1
 93 698 l 1,10,-1
 93 0 l 1,11,-1
 175 0 l 1,12,-1
 175 581 l 1,13,-1
 178 581 l 1,14,-1
 262 426 l 1,15,-1
 517 0 l 1,16,-1
 532 0 l 1,17,-1
 532 -126 l 1,18,-1
 446 -126 l 1,19,-1
 446 -200 l 1,20,-1
 500 -200 l 2,0,1
EndSplineSet
EndChar

StartChar: OE
Encoding: 338 338 174
Width: 985
Flags: W
LayerCount: 2
Fore
SplineSet
367 -12 m 0,0,1
 431 -12 431 -12 495 0 c 1,2,-1
 921 0 l 1,3,-1
 921 74 l 1,4,-1
 578 74 l 1,5,-1
 578 316 l 1,6,-1
 901 316 l 1,7,-1
 901 390 l 1,8,-1
 578 390 l 1,9,-1
 578 624 l 1,10,-1
 921 624 l 1,11,-1
 921 698 l 1,12,-1
 495 698 l 1,13,14
 431 710 431 710 367 710 c 0,15,16
 223 710 223 710 140.5 617.5 c 128,-1,17
 58 525 58 525 58 349 c 0,18,19
 58 174 58 174 140.5 81 c 128,-1,20
 223 -12 223 -12 367 -12 c 0,0,1
377 63 m 0,21,22
 259 63 259 63 203.5 125.5 c 128,-1,23
 148 188 148 188 148 291 c 2,24,-1
 148 407 l 2,25,26
 148 511 148 511 203.5 573 c 128,-1,27
 259 635 259 635 377 635 c 0,28,29
 433 635 433 635 494 617 c 1,30,-1
 494 81 l 1,31,32
 433 63 433 63 377 63 c 0,21,22
EndSplineSet
EndChar

StartChar: Tbar
Encoding: 358 358 175
Width: 582
Flags: W
LayerCount: 2
Fore
SplineSet
333 0 m 1,0,-1
 333 338 l 1,1,-1
 497 338 l 1,2,-1
 497 402 l 1,3,-1
 333 402 l 1,4,-1
 333 624 l 1,5,-1
 555 624 l 1,6,-1
 555 698 l 1,7,-1
 27 698 l 1,8,-1
 27 624 l 1,9,-1
 249 624 l 1,10,-1
 249 402 l 1,11,-1
 84 402 l 1,12,-1
 84 338 l 1,13,-1
 249 338 l 1,14,-1
 249 0 l 1,15,-1
 333 0 l 1,0,-1
EndSplineSet
EndChar

StartChar: Schwa
Encoding: 399 399 176
Width: 708
Flags: W
LayerCount: 2
Fore
SplineSet
353 -12 m 256,0,1
 491 -12 491 -12 570.5 84 c 128,-1,2
 650 180 650 180 650 349 c 0,3,4
 650 517 650 517 575 613.5 c 128,-1,5
 500 710 500 710 360 710 c 0,6,7
 263 710 263 710 191.5 660 c 128,-1,8
 120 610 120 610 89 532 c 1,9,-1
 159 498 l 1,10,11
 223 635 223 635 359 635 c 0,12,13
 451 635 451 635 506 573 c 128,-1,14
 561 511 561 511 561 401 c 2,15,-1
 561 371 l 1,16,-1
 58 371 l 1,17,-1
 58 349 l 2,18,19
 58 169 58 169 136.5 78.5 c 128,-1,20
 215 -12 215 -12 353 -12 c 256,0,1
353 63 m 0,21,22
 265 63 265 63 206 127 c 0,23,24
 145 191 145 191 145 302 c 1,25,-1
 561 302 l 1,26,27
 561 191 561 191 500 127 c 128,-1,28
 439 63 439 63 353 63 c 0,21,22
EndSplineSet
EndChar

StartChar: u1E9E
Encoding: 7838 7838 177
Width: 700
Flags: W
LayerCount: 2
Fore
SplineSet
428 -12 m 0,0,1
 529 -12 529 -12 588.5 42.5 c 128,-1,2
 648 97 648 97 648 196 c 0,3,4
 648 293 648 293 588.5 345.5 c 128,-1,5
 529 398 529 398 423 401 c 1,6,-1
 423 405 l 1,7,-1
 604 616 l 1,8,-1
 604 698 l 1,9,-1
 93 698 l 1,10,-1
 93 0 l 1,11,-1
 177 0 l 1,12,-1
 177 624 l 1,13,-1
 519 624 l 1,14,-1
 334 409 l 1,15,-1
 334 332 l 1,16,-1
 428 332 l 2,17,18
 554 332 554 332 558 211 c 1,19,-1
 558 181 l 2,20,21
 558 125 558 125 524.5 92 c 128,-1,22
 491 59 491 59 428 59 c 0,23,24
 341 59 341 59 287 130 c 1,25,-1
 229 81 l 1,26,27
 295 -12 295 -12 428 -12 c 0,0,1
EndSplineSet
EndChar

StartChar: a
Encoding: 97 97 178
Width: 526
Flags: W
LayerCount: 2
Fore
SplineSet
217 -12 m 0,0,1
 135 -12 135 -12 89.5 30 c 128,-1,2
 44 72 44 72 44 144 c 0,3,4
 44 295 44 295 264 295 c 2,5,-1
 366 295 l 1,6,-1
 366 346 l 2,7,8
 366 459 366 459 244 459 c 0,9,10
 158 459 158 459 113 382 c 1,11,-1
 65 427 l 1,12,13
 86 470 86 470 132 499 c 128,-1,14
 178 528 178 528 248 528 c 0,15,16
 342 528 342 528 394 482 c 128,-1,17
 446 436 446 436 446 354 c 2,18,-1
 446 0 l 1,19,-1
 371 0 l 1,20,-1
 371 84 l 1,21,-1
 366 84 l 1,22,23
 348 36 348 36 309.5 12 c 128,-1,24
 271 -12 271 -12 217 -12 c 0,0,1
230 56 m 0,25,26
 290 56 290 56 328 83 c 128,-1,27
 366 110 366 110 366 150 c 2,28,-1
 366 235 l 1,29,-1
 260 235 l 2,30,31
 128 235 128 235 128 157 c 2,32,-1
 128 136 l 2,33,34
 128 60 128 60 230 56 c 0,25,26
EndSplineSet
EndChar

StartChar: aacute
Encoding: 225 225 179
Width: 526
Flags: W
LayerCount: 2
Fore
SplineSet
260 585 m 1,0,-1
 366 744 l 1,1,-1
 293 779 l 1,2,-1
 208 609 l 1,3,-1
 260 585 l 1,0,-1
217 -12 m 0,4,5
 135 -12 135 -12 89.5 30 c 128,-1,6
 44 72 44 72 44 144 c 0,7,8
 44 295 44 295 264 295 c 2,9,-1
 366 295 l 1,10,-1
 366 346 l 2,11,12
 366 459 366 459 244 459 c 0,13,14
 158 459 158 459 113 382 c 1,15,-1
 65 427 l 1,16,17
 86 470 86 470 132 499 c 128,-1,18
 178 528 178 528 248 528 c 0,19,20
 342 528 342 528 394 482 c 128,-1,21
 446 436 446 436 446 354 c 2,22,-1
 446 0 l 1,23,-1
 371 0 l 1,24,-1
 371 84 l 1,25,-1
 366 84 l 1,26,27
 348 36 348 36 309.5 12 c 128,-1,28
 271 -12 271 -12 217 -12 c 0,4,5
230 56 m 0,29,30
 290 56 290 56 328 83 c 128,-1,31
 366 110 366 110 366 150 c 2,32,-1
 366 235 l 1,33,-1
 260 235 l 2,34,35
 128 235 128 235 128 157 c 2,36,-1
 128 136 l 2,37,38
 128 60 128 60 230 56 c 0,29,30
EndSplineSet
EndChar

StartChar: abreve
Encoding: 259 259 180
Width: 526
Flags: W
LayerCount: 2
Fore
SplineSet
253 596 m 0,0,1
 326 596 326 596 363 638 c 0,2,3
 394 677 394 677 405 721 c 1,4,-1
 360 743 l 1,5,-1
 339 710 l 2,6,7
 326 687 326 687 308.5 673 c 128,-1,8
 291 659 291 659 253 659 c 256,9,10
 215 659 215 659 197 673.5 c 128,-1,11
 179 688 179 688 167 710 c 2,12,-1
 146 743 l 1,13,-1
 101 721 l 1,14,15
 134 596 134 596 253 596 c 0,0,1
217 -12 m 0,16,17
 135 -12 135 -12 89.5 30 c 128,-1,18
 44 72 44 72 44 144 c 0,19,20
 44 295 44 295 264 295 c 2,21,-1
 366 295 l 1,22,-1
 366 346 l 2,23,24
 366 459 366 459 244 459 c 0,25,26
 158 459 158 459 113 382 c 1,27,-1
 65 427 l 1,28,29
 86 470 86 470 132 499 c 128,-1,30
 178 528 178 528 248 528 c 0,31,32
 342 528 342 528 394 482 c 128,-1,33
 446 436 446 436 446 354 c 2,34,-1
 446 0 l 1,35,-1
 371 0 l 1,36,-1
 371 84 l 1,37,-1
 366 84 l 1,38,39
 348 36 348 36 309.5 12 c 128,-1,40
 271 -12 271 -12 217 -12 c 0,16,17
230 56 m 0,41,42
 290 56 290 56 328 83 c 128,-1,43
 366 110 366 110 366 150 c 2,44,-1
 366 235 l 1,45,-1
 260 235 l 2,46,47
 128 235 128 235 128 157 c 2,48,-1
 128 136 l 2,49,50
 128 60 128 60 230 56 c 0,41,42
EndSplineSet
EndChar

StartChar: abreveacute
Encoding: 7855 7855 181
Width: 526
Flags: W
LayerCount: 2
Fore
SplineSet
252 585 m 0,0,1
 323 585 323 585 363 628 c 0,2,3
 395 667 395 667 406 711 c 1,4,-1
 361 733 l 1,5,-1
 340 700 l 2,6,7
 327 678 327 678 308.5 661 c 128,-1,8
 290 644 290 644 252 644 c 256,9,10
 214 644 214 644 195 660.5 c 128,-1,11
 176 677 176 677 164 700 c 2,12,-1
 143 733 l 1,13,-1
 98 711 l 1,14,15
 109 667 109 667 142 628 c 0,16,17
 180 585 180 585 252 585 c 0,0,1
256 698 m 1,18,-1
 362 857 l 1,19,-1
 292 891 l 1,20,-1
 207 721 l 1,21,-1
 256 698 l 1,18,-1
217 -12 m 0,22,23
 135 -12 135 -12 89.5 30 c 128,-1,24
 44 72 44 72 44 144 c 0,25,26
 44 295 44 295 264 295 c 2,27,-1
 366 295 l 1,28,-1
 366 346 l 2,29,30
 366 459 366 459 244 459 c 0,31,32
 158 459 158 459 113 382 c 1,33,-1
 65 427 l 1,34,35
 86 470 86 470 132 499 c 128,-1,36
 178 528 178 528 248 528 c 0,37,38
 342 528 342 528 394 482 c 128,-1,39
 446 436 446 436 446 354 c 2,40,-1
 446 0 l 1,41,-1
 371 0 l 1,42,-1
 371 84 l 1,43,-1
 366 84 l 1,44,45
 348 36 348 36 309.5 12 c 128,-1,46
 271 -12 271 -12 217 -12 c 0,22,23
230 56 m 0,47,48
 290 56 290 56 328 83 c 128,-1,49
 366 110 366 110 366 150 c 2,50,-1
 366 235 l 1,51,-1
 260 235 l 2,52,53
 128 235 128 235 128 157 c 2,54,-1
 128 136 l 2,55,56
 128 60 128 60 230 56 c 0,47,48
EndSplineSet
EndChar

StartChar: abrevedotbelow
Encoding: 7863 7863 182
Width: 526
Flags: W
LayerCount: 2
Fore
SplineSet
253 596 m 0,0,1
 326 596 326 596 363 638 c 0,2,3
 394 677 394 677 405 721 c 1,4,-1
 360 743 l 1,5,-1
 339 710 l 2,6,7
 326 687 326 687 308.5 673 c 128,-1,8
 291 659 291 659 253 659 c 256,9,10
 215 659 215 659 197 673.5 c 128,-1,11
 179 688 179 688 167 710 c 2,12,-1
 146 743 l 1,13,-1
 101 721 l 1,14,15
 134 596 134 596 253 596 c 0,0,1
245 -169 m 256,16,17
 296 -169 296 -169 296 -123 c 2,18,-1
 296 -112 l 2,19,20
 296 -66 296 -66 245 -66 c 256,21,22
 194 -66 194 -66 194 -112 c 2,23,-1
 194 -123 l 2,24,25
 194 -169 194 -169 245 -169 c 256,16,17
217 -12 m 0,26,27
 135 -12 135 -12 89.5 30 c 128,-1,28
 44 72 44 72 44 144 c 0,29,30
 44 295 44 295 264 295 c 2,31,-1
 366 295 l 1,32,-1
 366 346 l 2,33,34
 366 459 366 459 244 459 c 0,35,36
 158 459 158 459 113 382 c 1,37,-1
 65 427 l 1,38,39
 86 470 86 470 132 499 c 128,-1,40
 178 528 178 528 248 528 c 0,41,42
 342 528 342 528 394 482 c 128,-1,43
 446 436 446 436 446 354 c 2,44,-1
 446 0 l 1,45,-1
 371 0 l 1,46,-1
 371 84 l 1,47,-1
 366 84 l 1,48,49
 348 36 348 36 309.5 12 c 128,-1,50
 271 -12 271 -12 217 -12 c 0,26,27
230 56 m 0,51,52
 290 56 290 56 328 83 c 128,-1,53
 366 110 366 110 366 150 c 2,54,-1
 366 235 l 1,55,-1
 260 235 l 2,56,57
 128 235 128 235 128 157 c 2,58,-1
 128 136 l 2,59,60
 128 60 128 60 230 56 c 0,51,52
EndSplineSet
EndChar

StartChar: abrevegrave
Encoding: 7857 7857 183
Width: 526
Flags: W
LayerCount: 2
Fore
SplineSet
252 585 m 0,0,1
 323 585 323 585 363 628 c 0,2,3
 395 667 395 667 406 711 c 1,4,-1
 361 733 l 1,5,-1
 340 700 l 2,6,7
 327 678 327 678 308.5 661 c 128,-1,8
 290 644 290 644 252 644 c 256,9,10
 214 644 214 644 195 660.5 c 128,-1,11
 176 677 176 677 164 700 c 2,12,-1
 143 733 l 1,13,-1
 98 711 l 1,14,15
 109 667 109 667 142 628 c 0,16,17
 180 585 180 585 252 585 c 0,0,1
248 698 m 1,18,-1
 297 721 l 1,19,-1
 212 891 l 1,20,-1
 142 857 l 1,21,-1
 248 698 l 1,18,-1
217 -12 m 0,22,23
 135 -12 135 -12 89.5 30 c 128,-1,24
 44 72 44 72 44 144 c 0,25,26
 44 295 44 295 264 295 c 2,27,-1
 366 295 l 1,28,-1
 366 346 l 2,29,30
 366 459 366 459 244 459 c 0,31,32
 158 459 158 459 113 382 c 1,33,-1
 65 427 l 1,34,35
 86 470 86 470 132 499 c 128,-1,36
 178 528 178 528 248 528 c 0,37,38
 342 528 342 528 394 482 c 128,-1,39
 446 436 446 436 446 354 c 2,40,-1
 446 0 l 1,41,-1
 371 0 l 1,42,-1
 371 84 l 1,43,-1
 366 84 l 1,44,45
 348 36 348 36 309.5 12 c 128,-1,46
 271 -12 271 -12 217 -12 c 0,22,23
230 56 m 0,47,48
 290 56 290 56 328 83 c 128,-1,49
 366 110 366 110 366 150 c 2,50,-1
 366 235 l 1,51,-1
 260 235 l 2,52,53
 128 235 128 235 128 157 c 2,54,-1
 128 136 l 2,55,56
 128 60 128 60 230 56 c 0,47,48
EndSplineSet
EndChar

StartChar: abrevehookabove
Encoding: 7859 7859 184
Width: 526
Flags: W
LayerCount: 2
Fore
SplineSet
252 585 m 0,0,1
 323 585 323 585 363 628 c 0,2,3
 395 667 395 667 406 711 c 1,4,-1
 361 733 l 1,5,-1
 340 700 l 2,6,7
 327 678 327 678 308.5 661 c 128,-1,8
 290 644 290 644 252 644 c 256,9,10
 214 644 214 644 195 660.5 c 128,-1,11
 176 677 176 677 164 700 c 2,12,-1
 143 733 l 1,13,-1
 98 711 l 1,14,15
 109 667 109 667 142 628 c 0,16,17
 180 585 180 585 252 585 c 0,0,1
254 692 m 1,18,-1
 278 722 l 2,19,20
 327 782 327 782 327 825 c 0,21,22
 327 880 327 880 257 880 c 2,23,-1
 163 880 l 1,24,-1
 163 822 l 1,25,-1
 270 822 l 1,26,-1
 210 715 l 1,27,-1
 254 692 l 1,18,-1
217 -12 m 0,28,29
 135 -12 135 -12 89.5 30 c 128,-1,30
 44 72 44 72 44 144 c 0,31,32
 44 295 44 295 264 295 c 2,33,-1
 366 295 l 1,34,-1
 366 346 l 2,35,36
 366 459 366 459 244 459 c 0,37,38
 158 459 158 459 113 382 c 1,39,-1
 65 427 l 1,40,41
 86 470 86 470 132 499 c 128,-1,42
 178 528 178 528 248 528 c 0,43,44
 342 528 342 528 394 482 c 128,-1,45
 446 436 446 436 446 354 c 2,46,-1
 446 0 l 1,47,-1
 371 0 l 1,48,-1
 371 84 l 1,49,-1
 366 84 l 1,50,51
 348 36 348 36 309.5 12 c 128,-1,52
 271 -12 271 -12 217 -12 c 0,28,29
230 56 m 0,53,54
 290 56 290 56 328 83 c 128,-1,55
 366 110 366 110 366 150 c 2,56,-1
 366 235 l 1,57,-1
 260 235 l 2,58,59
 128 235 128 235 128 157 c 2,60,-1
 128 136 l 2,61,62
 128 60 128 60 230 56 c 0,53,54
EndSplineSet
EndChar

StartChar: abrevetilde
Encoding: 7861 7861 185
Width: 526
Flags: W
LayerCount: 2
Fore
SplineSet
252 585 m 0,0,1
 323 585 323 585 363 628 c 0,2,3
 395 667 395 667 406 711 c 1,4,-1
 361 733 l 1,5,-1
 340 700 l 2,6,7
 327 678 327 678 308.5 661 c 128,-1,8
 290 644 290 644 252 644 c 256,9,10
 214 644 214 644 195 660.5 c 128,-1,11
 176 677 176 677 164 700 c 2,12,-1
 143 733 l 1,13,-1
 98 711 l 1,14,15
 109 667 109 667 142 628 c 0,16,17
 180 585 180 585 252 585 c 0,0,1
324 772 m 0,18,19
 384 772 384 772 419 825 c 1,20,-1
 388 861 l 1,21,22
 373 848 373 848 360 841 c 128,-1,23
 347 834 347 834 330 834 c 0,24,25
 303 834 303 834 253 861 c 0,26,27
 239 870 239 870 221.5 877 c 128,-1,28
 204 884 204 884 180 884 c 0,29,30
 120 884 120 884 85 831 c 1,31,-1
 116 795 l 1,32,33
 131 808 131 808 144 815 c 128,-1,34
 157 822 157 822 174 822 c 0,35,36
 201 822 201 822 251 795 c 0,37,38
 265 786 265 786 282.5 779 c 128,-1,39
 300 772 300 772 324 772 c 0,18,19
217 -12 m 0,40,41
 135 -12 135 -12 89.5 30 c 128,-1,42
 44 72 44 72 44 144 c 0,43,44
 44 295 44 295 264 295 c 2,45,-1
 366 295 l 1,46,-1
 366 346 l 2,47,48
 366 459 366 459 244 459 c 0,49,50
 158 459 158 459 113 382 c 1,51,-1
 65 427 l 1,52,53
 86 470 86 470 132 499 c 128,-1,54
 178 528 178 528 248 528 c 0,55,56
 342 528 342 528 394 482 c 128,-1,57
 446 436 446 436 446 354 c 2,58,-1
 446 0 l 1,59,-1
 371 0 l 1,60,-1
 371 84 l 1,61,-1
 366 84 l 1,62,63
 348 36 348 36 309.5 12 c 128,-1,64
 271 -12 271 -12 217 -12 c 0,40,41
230 56 m 0,65,66
 290 56 290 56 328 83 c 128,-1,67
 366 110 366 110 366 150 c 2,68,-1
 366 235 l 1,69,-1
 260 235 l 2,70,71
 128 235 128 235 128 157 c 2,72,-1
 128 136 l 2,73,74
 128 60 128 60 230 56 c 0,65,66
EndSplineSet
EndChar

StartChar: acircumflex
Encoding: 226 226 186
Width: 526
Flags: W
LayerCount: 2
Fore
SplineSet
370 591 m 1,0,-1
 414 622 l 1,1,-1
 303 765 l 1,2,-1
 203 765 l 1,3,-1
 92 622 l 1,4,-1
 136 591 l 1,5,-1
 253 708 l 1,6,-1
 370 591 l 1,0,-1
217 -12 m 0,7,8
 135 -12 135 -12 89.5 30 c 128,-1,9
 44 72 44 72 44 144 c 0,10,11
 44 295 44 295 264 295 c 2,12,-1
 366 295 l 1,13,-1
 366 346 l 2,14,15
 366 459 366 459 244 459 c 0,16,17
 158 459 158 459 113 382 c 1,18,-1
 65 427 l 1,19,20
 86 470 86 470 132 499 c 128,-1,21
 178 528 178 528 248 528 c 0,22,23
 342 528 342 528 394 482 c 128,-1,24
 446 436 446 436 446 354 c 2,25,-1
 446 0 l 1,26,-1
 371 0 l 1,27,-1
 371 84 l 1,28,-1
 366 84 l 1,29,30
 348 36 348 36 309.5 12 c 128,-1,31
 271 -12 271 -12 217 -12 c 0,7,8
230 56 m 0,32,33
 290 56 290 56 328 83 c 128,-1,34
 366 110 366 110 366 150 c 2,35,-1
 366 235 l 1,36,-1
 260 235 l 2,37,38
 128 235 128 235 128 157 c 2,39,-1
 128 136 l 2,40,41
 128 60 128 60 230 56 c 0,32,33
EndSplineSet
EndChar

StartChar: acircumflexacute
Encoding: 7845 7845 187
Width: 526
Flags: W
LayerCount: 2
Fore
SplineSet
406 698 m 1,0,-1
 512 857 l 1,1,-1
 442 891 l 1,2,-1
 357 721 l 1,3,-1
 406 698 l 1,0,-1
371 581 m 1,4,-1
 412 611 l 1,5,-1
 302 745 l 1,6,-1
 202 745 l 1,7,-1
 92 611 l 1,8,-1
 133 581 l 1,9,-1
 252 693 l 1,10,-1
 371 581 l 1,4,-1
217 -12 m 0,11,12
 135 -12 135 -12 89.5 30 c 128,-1,13
 44 72 44 72 44 144 c 0,14,15
 44 295 44 295 264 295 c 2,16,-1
 366 295 l 1,17,-1
 366 346 l 2,18,19
 366 459 366 459 244 459 c 0,20,21
 158 459 158 459 113 382 c 1,22,-1
 65 427 l 1,23,24
 86 470 86 470 132 499 c 128,-1,25
 178 528 178 528 248 528 c 0,26,27
 342 528 342 528 394 482 c 128,-1,28
 446 436 446 436 446 354 c 2,29,-1
 446 0 l 1,30,-1
 371 0 l 1,31,-1
 371 84 l 1,32,-1
 366 84 l 1,33,34
 348 36 348 36 309.5 12 c 128,-1,35
 271 -12 271 -12 217 -12 c 0,11,12
230 56 m 0,36,37
 290 56 290 56 328 83 c 128,-1,38
 366 110 366 110 366 150 c 2,39,-1
 366 235 l 1,40,-1
 260 235 l 2,41,42
 128 235 128 235 128 157 c 2,43,-1
 128 136 l 2,44,45
 128 60 128 60 230 56 c 0,36,37
EndSplineSet
EndChar

StartChar: acircumflexdotbelow
Encoding: 7853 7853 188
Width: 526
Flags: W
LayerCount: 2
Fore
SplineSet
370 591 m 1,0,-1
 414 622 l 1,1,-1
 303 765 l 1,2,-1
 203 765 l 1,3,-1
 92 622 l 1,4,-1
 136 591 l 1,5,-1
 253 708 l 1,6,-1
 370 591 l 1,0,-1
245 -169 m 256,7,8
 296 -169 296 -169 296 -123 c 2,9,-1
 296 -112 l 2,10,11
 296 -66 296 -66 245 -66 c 256,12,13
 194 -66 194 -66 194 -112 c 2,14,-1
 194 -123 l 2,15,16
 194 -169 194 -169 245 -169 c 256,7,8
217 -12 m 0,17,18
 135 -12 135 -12 89.5 30 c 128,-1,19
 44 72 44 72 44 144 c 0,20,21
 44 295 44 295 264 295 c 2,22,-1
 366 295 l 1,23,-1
 366 346 l 2,24,25
 366 459 366 459 244 459 c 0,26,27
 158 459 158 459 113 382 c 1,28,-1
 65 427 l 1,29,30
 86 470 86 470 132 499 c 128,-1,31
 178 528 178 528 248 528 c 0,32,33
 342 528 342 528 394 482 c 128,-1,34
 446 436 446 436 446 354 c 2,35,-1
 446 0 l 1,36,-1
 371 0 l 1,37,-1
 371 84 l 1,38,-1
 366 84 l 1,39,40
 348 36 348 36 309.5 12 c 128,-1,41
 271 -12 271 -12 217 -12 c 0,17,18
230 56 m 0,42,43
 290 56 290 56 328 83 c 128,-1,44
 366 110 366 110 366 150 c 2,45,-1
 366 235 l 1,46,-1
 260 235 l 2,47,48
 128 235 128 235 128 157 c 2,49,-1
 128 136 l 2,50,51
 128 60 128 60 230 56 c 0,42,43
EndSplineSet
EndChar

StartChar: acircumflexgrave
Encoding: 7847 7847 189
Width: 526
Flags: W
LayerCount: 2
Fore
SplineSet
98 698 m 1,0,-1
 147 721 l 1,1,-1
 62 891 l 1,2,-1
 -8 857 l 1,3,-1
 98 698 l 1,0,-1
371 581 m 1,4,-1
 412 611 l 1,5,-1
 302 745 l 1,6,-1
 202 745 l 1,7,-1
 92 611 l 1,8,-1
 133 581 l 1,9,-1
 252 693 l 1,10,-1
 371 581 l 1,4,-1
217 -12 m 0,11,12
 135 -12 135 -12 89.5 30 c 128,-1,13
 44 72 44 72 44 144 c 0,14,15
 44 295 44 295 264 295 c 2,16,-1
 366 295 l 1,17,-1
 366 346 l 2,18,19
 366 459 366 459 244 459 c 0,20,21
 158 459 158 459 113 382 c 1,22,-1
 65 427 l 1,23,24
 86 470 86 470 132 499 c 128,-1,25
 178 528 178 528 248 528 c 0,26,27
 342 528 342 528 394 482 c 128,-1,28
 446 436 446 436 446 354 c 2,29,-1
 446 0 l 1,30,-1
 371 0 l 1,31,-1
 371 84 l 1,32,-1
 366 84 l 1,33,34
 348 36 348 36 309.5 12 c 128,-1,35
 271 -12 271 -12 217 -12 c 0,11,12
230 56 m 0,36,37
 290 56 290 56 328 83 c 128,-1,38
 366 110 366 110 366 150 c 2,39,-1
 366 235 l 1,40,-1
 260 235 l 2,41,42
 128 235 128 235 128 157 c 2,43,-1
 128 136 l 2,44,45
 128 60 128 60 230 56 c 0,36,37
EndSplineSet
EndChar

StartChar: acircumflexhookabove
Encoding: 7849 7849 190
Width: 526
Flags: W
LayerCount: 2
Fore
SplineSet
408 692 m 1,0,-1
 432 722 l 2,1,2
 481 782 481 782 481 825 c 0,3,4
 481 880 481 880 411 880 c 2,5,-1
 302 880 l 1,6,-1
 302 822 l 1,7,-1
 424 822 l 1,8,-1
 364 715 l 1,9,-1
 408 692 l 1,0,-1
371 581 m 1,10,-1
 412 611 l 1,11,-1
 302 745 l 1,12,-1
 202 745 l 1,13,-1
 92 611 l 1,14,-1
 133 581 l 1,15,-1
 252 693 l 1,16,-1
 371 581 l 1,10,-1
217 -12 m 0,17,18
 135 -12 135 -12 89.5 30 c 128,-1,19
 44 72 44 72 44 144 c 0,20,21
 44 295 44 295 264 295 c 2,22,-1
 366 295 l 1,23,-1
 366 346 l 2,24,25
 366 459 366 459 244 459 c 0,26,27
 158 459 158 459 113 382 c 1,28,-1
 65 427 l 1,29,30
 86 470 86 470 132 499 c 128,-1,31
 178 528 178 528 248 528 c 0,32,33
 342 528 342 528 394 482 c 128,-1,34
 446 436 446 436 446 354 c 2,35,-1
 446 0 l 1,36,-1
 371 0 l 1,37,-1
 371 84 l 1,38,-1
 366 84 l 1,39,40
 348 36 348 36 309.5 12 c 128,-1,41
 271 -12 271 -12 217 -12 c 0,17,18
230 56 m 0,42,43
 290 56 290 56 328 83 c 128,-1,44
 366 110 366 110 366 150 c 2,45,-1
 366 235 l 1,46,-1
 260 235 l 2,47,48
 128 235 128 235 128 157 c 2,49,-1
 128 136 l 2,50,51
 128 60 128 60 230 56 c 0,42,43
EndSplineSet
EndChar

StartChar: acircumflextilde
Encoding: 7851 7851 191
Width: 526
Flags: W
LayerCount: 2
Fore
SplineSet
324 772 m 0,0,1
 384 772 384 772 419 825 c 1,2,-1
 388 861 l 1,3,4
 373 848 373 848 360 841 c 128,-1,5
 347 834 347 834 330 834 c 0,6,7
 303 834 303 834 253 861 c 0,8,9
 239 870 239 870 221.5 877 c 128,-1,10
 204 884 204 884 180 884 c 0,11,12
 120 884 120 884 85 831 c 1,13,-1
 116 795 l 1,14,15
 131 808 131 808 144 815 c 128,-1,16
 157 822 157 822 174 822 c 0,17,18
 201 822 201 822 251 795 c 0,19,20
 265 786 265 786 282.5 779 c 128,-1,21
 300 772 300 772 324 772 c 0,0,1
371 581 m 1,22,-1
 412 611 l 1,23,-1
 302 745 l 1,24,-1
 202 745 l 1,25,-1
 92 611 l 1,26,-1
 133 581 l 1,27,-1
 252 693 l 1,28,-1
 371 581 l 1,22,-1
217 -12 m 0,29,30
 135 -12 135 -12 89.5 30 c 128,-1,31
 44 72 44 72 44 144 c 0,32,33
 44 295 44 295 264 295 c 2,34,-1
 366 295 l 1,35,-1
 366 346 l 2,36,37
 366 459 366 459 244 459 c 0,38,39
 158 459 158 459 113 382 c 1,40,-1
 65 427 l 1,41,42
 86 470 86 470 132 499 c 128,-1,43
 178 528 178 528 248 528 c 0,44,45
 342 528 342 528 394 482 c 128,-1,46
 446 436 446 436 446 354 c 2,47,-1
 446 0 l 1,48,-1
 371 0 l 1,49,-1
 371 84 l 1,50,-1
 366 84 l 1,51,52
 348 36 348 36 309.5 12 c 128,-1,53
 271 -12 271 -12 217 -12 c 0,29,30
230 56 m 0,54,55
 290 56 290 56 328 83 c 128,-1,56
 366 110 366 110 366 150 c 2,57,-1
 366 235 l 1,58,-1
 260 235 l 2,59,60
 128 235 128 235 128 157 c 2,61,-1
 128 136 l 2,62,63
 128 60 128 60 230 56 c 0,54,55
EndSplineSet
EndChar

StartChar: adieresis
Encoding: 228 228 192
Width: 526
Flags: W
LayerCount: 2
Fore
SplineSet
160 618 m 256,0,1
 209 618 209 618 209 664 c 2,2,-1
 209 675 l 2,3,4
 209 721 209 721 160 721 c 256,5,6
 111 721 111 721 111 675 c 2,7,-1
 111 664 l 2,8,9
 111 618 111 618 160 618 c 256,0,1
346 618 m 256,10,11
 395 618 395 618 395 664 c 2,12,-1
 395 675 l 2,13,14
 395 721 395 721 346 721 c 256,15,16
 297 721 297 721 297 675 c 2,17,-1
 297 664 l 2,18,19
 297 618 297 618 346 618 c 256,10,11
217 -12 m 0,20,21
 135 -12 135 -12 89.5 30 c 128,-1,22
 44 72 44 72 44 144 c 0,23,24
 44 295 44 295 264 295 c 2,25,-1
 366 295 l 1,26,-1
 366 346 l 2,27,28
 366 459 366 459 244 459 c 0,29,30
 158 459 158 459 113 382 c 1,31,-1
 65 427 l 1,32,33
 86 470 86 470 132 499 c 128,-1,34
 178 528 178 528 248 528 c 0,35,36
 342 528 342 528 394 482 c 128,-1,37
 446 436 446 436 446 354 c 2,38,-1
 446 0 l 1,39,-1
 371 0 l 1,40,-1
 371 84 l 1,41,-1
 366 84 l 1,42,43
 348 36 348 36 309.5 12 c 128,-1,44
 271 -12 271 -12 217 -12 c 0,20,21
230 56 m 0,45,46
 290 56 290 56 328 83 c 128,-1,47
 366 110 366 110 366 150 c 2,48,-1
 366 235 l 1,49,-1
 260 235 l 2,50,51
 128 235 128 235 128 157 c 2,52,-1
 128 136 l 2,53,54
 128 60 128 60 230 56 c 0,45,46
EndSplineSet
EndChar

StartChar: adotbelow
Encoding: 7841 7841 193
Width: 526
Flags: W
LayerCount: 2
Fore
SplineSet
245 -169 m 256,0,1
 296 -169 296 -169 296 -123 c 2,2,-1
 296 -112 l 2,3,4
 296 -66 296 -66 245 -66 c 256,5,6
 194 -66 194 -66 194 -112 c 2,7,-1
 194 -123 l 2,8,9
 194 -169 194 -169 245 -169 c 256,0,1
217 -12 m 0,10,11
 135 -12 135 -12 89.5 30 c 128,-1,12
 44 72 44 72 44 144 c 0,13,14
 44 295 44 295 264 295 c 2,15,-1
 366 295 l 1,16,-1
 366 346 l 2,17,18
 366 459 366 459 244 459 c 0,19,20
 158 459 158 459 113 382 c 1,21,-1
 65 427 l 1,22,23
 86 470 86 470 132 499 c 128,-1,24
 178 528 178 528 248 528 c 0,25,26
 342 528 342 528 394 482 c 128,-1,27
 446 436 446 436 446 354 c 2,28,-1
 446 0 l 1,29,-1
 371 0 l 1,30,-1
 371 84 l 1,31,-1
 366 84 l 1,32,33
 348 36 348 36 309.5 12 c 128,-1,34
 271 -12 271 -12 217 -12 c 0,10,11
230 56 m 0,35,36
 290 56 290 56 328 83 c 128,-1,37
 366 110 366 110 366 150 c 2,38,-1
 366 235 l 1,39,-1
 260 235 l 2,40,41
 128 235 128 235 128 157 c 2,42,-1
 128 136 l 2,43,44
 128 60 128 60 230 56 c 0,35,36
EndSplineSet
EndChar

StartChar: agrave
Encoding: 224 224 194
Width: 526
Flags: W
LayerCount: 2
Fore
SplineSet
246 585 m 1,0,-1
 298 609 l 1,1,-1
 213 779 l 1,2,-1
 140 744 l 1,3,-1
 246 585 l 1,0,-1
217 -12 m 0,4,5
 135 -12 135 -12 89.5 30 c 128,-1,6
 44 72 44 72 44 144 c 0,7,8
 44 295 44 295 264 295 c 2,9,-1
 366 295 l 1,10,-1
 366 346 l 2,11,12
 366 459 366 459 244 459 c 0,13,14
 158 459 158 459 113 382 c 1,15,-1
 65 427 l 1,16,17
 86 470 86 470 132 499 c 128,-1,18
 178 528 178 528 248 528 c 0,19,20
 342 528 342 528 394 482 c 128,-1,21
 446 436 446 436 446 354 c 2,22,-1
 446 0 l 1,23,-1
 371 0 l 1,24,-1
 371 84 l 1,25,-1
 366 84 l 1,26,27
 348 36 348 36 309.5 12 c 128,-1,28
 271 -12 271 -12 217 -12 c 0,4,5
230 56 m 0,29,30
 290 56 290 56 328 83 c 128,-1,31
 366 110 366 110 366 150 c 2,32,-1
 366 235 l 1,33,-1
 260 235 l 2,34,35
 128 235 128 235 128 157 c 2,36,-1
 128 136 l 2,37,38
 128 60 128 60 230 56 c 0,29,30
EndSplineSet
EndChar

StartChar: ahookabove
Encoding: 7843 7843 195
Width: 526
Flags: W
LayerCount: 2
Fore
SplineSet
274 577 m 1,0,-1
 298 607 l 2,1,2
 347 667 347 667 347 710 c 0,3,4
 347 765 347 765 277 765 c 2,5,-1
 168 765 l 1,6,-1
 168 704 l 1,7,-1
 286 704 l 1,8,-1
 228 600 l 1,9,-1
 274 577 l 1,0,-1
217 -12 m 0,10,11
 135 -12 135 -12 89.5 30 c 128,-1,12
 44 72 44 72 44 144 c 0,13,14
 44 295 44 295 264 295 c 2,15,-1
 366 295 l 1,16,-1
 366 346 l 2,17,18
 366 459 366 459 244 459 c 0,19,20
 158 459 158 459 113 382 c 1,21,-1
 65 427 l 1,22,23
 86 470 86 470 132 499 c 128,-1,24
 178 528 178 528 248 528 c 0,25,26
 342 528 342 528 394 482 c 128,-1,27
 446 436 446 436 446 354 c 2,28,-1
 446 0 l 1,29,-1
 371 0 l 1,30,-1
 371 84 l 1,31,-1
 366 84 l 1,32,33
 348 36 348 36 309.5 12 c 128,-1,34
 271 -12 271 -12 217 -12 c 0,10,11
230 56 m 0,35,36
 290 56 290 56 328 83 c 128,-1,37
 366 110 366 110 366 150 c 2,38,-1
 366 235 l 1,39,-1
 260 235 l 2,40,41
 128 235 128 235 128 157 c 2,42,-1
 128 136 l 2,43,44
 128 60 128 60 230 56 c 0,35,36
EndSplineSet
EndChar

StartChar: amacron
Encoding: 257 257 196
Width: 526
Flags: W
LayerCount: 2
Fore
SplineSet
393 637 m 1,0,-1
 393 705 l 1,1,-1
 113 705 l 1,2,-1
 113 637 l 1,3,-1
 393 637 l 1,0,-1
217 -12 m 0,4,5
 135 -12 135 -12 89.5 30 c 128,-1,6
 44 72 44 72 44 144 c 0,7,8
 44 295 44 295 264 295 c 2,9,-1
 366 295 l 1,10,-1
 366 346 l 2,11,12
 366 459 366 459 244 459 c 0,13,14
 158 459 158 459 113 382 c 1,15,-1
 65 427 l 1,16,17
 86 470 86 470 132 499 c 128,-1,18
 178 528 178 528 248 528 c 0,19,20
 342 528 342 528 394 482 c 128,-1,21
 446 436 446 436 446 354 c 2,22,-1
 446 0 l 1,23,-1
 371 0 l 1,24,-1
 371 84 l 1,25,-1
 366 84 l 1,26,27
 348 36 348 36 309.5 12 c 128,-1,28
 271 -12 271 -12 217 -12 c 0,4,5
230 56 m 0,29,30
 290 56 290 56 328 83 c 128,-1,31
 366 110 366 110 366 150 c 2,32,-1
 366 235 l 1,33,-1
 260 235 l 2,34,35
 128 235 128 235 128 157 c 2,36,-1
 128 136 l 2,37,38
 128 60 128 60 230 56 c 0,29,30
EndSplineSet
EndChar

StartChar: aogonek
Encoding: 261 261 197
Width: 526
Flags: W
LayerCount: 2
Fore
SplineSet
379 -207 m 0,0,1
 340 -207 340 -207 312 -189 c 128,-1,2
 284 -171 284 -171 284 -131 c 0,3,4
 284 -93 284 -93 314.5 -63 c 128,-1,5
 345 -33 345 -33 386 -4 c 1,6,-1
 384 0 l 1,7,-1
 371 0 l 1,8,-1
 371 84 l 1,9,-1
 366 84 l 1,10,11
 348 36 348 36 309.5 12 c 128,-1,12
 271 -12 271 -12 217 -12 c 0,13,14
 135 -12 135 -12 89.5 30 c 128,-1,15
 44 72 44 72 44 144 c 0,16,17
 44 295 44 295 264 295 c 2,18,-1
 366 295 l 1,19,-1
 366 346 l 2,20,21
 366 459 366 459 244 459 c 0,22,23
 158 459 158 459 113 382 c 1,24,-1
 65 427 l 1,25,26
 86 470 86 470 132 499 c 128,-1,27
 178 528 178 528 248 528 c 0,28,29
 342 528 342 528 394 482 c 128,-1,30
 446 436 446 436 446 354 c 2,31,-1
 446 0 l 1,32,33
 384 -57 384 -57 366 -81.5 c 128,-1,34
 348 -106 348 -106 348 -123 c 0,35,36
 348 -153 348 -153 379 -153 c 0,37,38
 408 -153 408 -153 427 -129 c 1,39,-1
 467 -168 l 1,40,41
 458 -184 458 -184 436 -195.5 c 128,-1,42
 414 -207 414 -207 379 -207 c 0,0,1
230 56 m 0,43,44
 290 56 290 56 328 83 c 128,-1,45
 366 110 366 110 366 150 c 2,46,-1
 366 235 l 1,47,-1
 260 235 l 2,48,49
 128 235 128 235 128 157 c 2,50,-1
 128 136 l 2,51,52
 128 60 128 60 230 56 c 0,43,44
EndSplineSet
EndChar

StartChar: aring
Encoding: 229 229 198
Width: 526
Flags: W
LayerCount: 2
Fore
SplineSet
253 576 m 256,0,1
 301 576 301 576 335 609 c 128,-1,2
 369 642 369 642 369 691 c 0,3,4
 369 741 369 741 336 774 c 0,5,6
 301 806 301 806 253 806 c 256,7,8
 205 806 205 806 171 773.5 c 128,-1,9
 137 741 137 741 137 691 c 0,10,11
 137 642 137 642 171 609 c 128,-1,12
 205 576 205 576 253 576 c 256,0,1
253 625 m 0,13,14
 199 625 199 625 195 680 c 1,15,-1
 195 702 l 2,16,17
 195 755 195 755 253 757 c 0,18,19
 307 757 307 757 311 702 c 1,20,-1
 311 680 l 2,21,22
 311 628 311 628 253 625 c 0,13,14
217 -12 m 0,23,24
 135 -12 135 -12 89.5 30 c 128,-1,25
 44 72 44 72 44 144 c 0,26,27
 44 295 44 295 264 295 c 2,28,-1
 366 295 l 1,29,-1
 366 346 l 2,30,31
 366 459 366 459 244 459 c 0,32,33
 158 459 158 459 113 382 c 1,34,-1
 65 427 l 1,35,36
 86 470 86 470 132 499 c 128,-1,37
 178 528 178 528 248 528 c 0,38,39
 342 528 342 528 394 482 c 128,-1,40
 446 436 446 436 446 354 c 2,41,-1
 446 0 l 1,42,-1
 371 0 l 1,43,-1
 371 84 l 1,44,-1
 366 84 l 1,45,46
 348 36 348 36 309.5 12 c 128,-1,47
 271 -12 271 -12 217 -12 c 0,23,24
230 56 m 0,48,49
 290 56 290 56 328 83 c 128,-1,50
 366 110 366 110 366 150 c 2,51,-1
 366 235 l 1,52,-1
 260 235 l 2,53,54
 128 235 128 235 128 157 c 2,55,-1
 128 136 l 2,56,57
 128 60 128 60 230 56 c 0,48,49
EndSplineSet
EndChar

StartChar: aringacute
Encoding: 507 507 199
Width: 526
Flags: W
LayerCount: 2
Fore
SplineSet
264 814 m 1,0,-1
 358 919 l 1,1,-1
 298 956 l 1,2,-1
 223 840 l 1,3,-1
 264 814 l 1,0,-1
253 566 m 256,4,5
 301 566 301 566 335 599 c 128,-1,6
 369 632 369 632 369 681 c 0,7,8
 369 731 369 731 336 764 c 0,9,10
 301 796 301 796 253 796 c 256,11,12
 205 796 205 796 171 763.5 c 128,-1,13
 137 731 137 731 137 681 c 0,14,15
 137 632 137 632 171 599 c 128,-1,16
 205 566 205 566 253 566 c 256,4,5
253 615 m 0,17,18
 199 615 199 615 195 670 c 1,19,-1
 195 692 l 2,20,21
 195 745 195 745 253 747 c 0,22,23
 307 747 307 747 311 692 c 1,24,-1
 311 670 l 2,25,26
 311 618 311 618 253 615 c 0,17,18
217 -12 m 0,27,28
 135 -12 135 -12 89.5 30 c 128,-1,29
 44 72 44 72 44 144 c 0,30,31
 44 295 44 295 264 295 c 2,32,-1
 366 295 l 1,33,-1
 366 346 l 2,34,35
 366 459 366 459 244 459 c 0,36,37
 158 459 158 459 113 382 c 1,38,-1
 65 427 l 1,39,40
 86 470 86 470 132 499 c 128,-1,41
 178 528 178 528 248 528 c 0,42,43
 342 528 342 528 394 482 c 128,-1,44
 446 436 446 436 446 354 c 2,45,-1
 446 0 l 1,46,-1
 371 0 l 1,47,-1
 371 84 l 1,48,-1
 366 84 l 1,49,50
 348 36 348 36 309.5 12 c 128,-1,51
 271 -12 271 -12 217 -12 c 0,27,28
230 56 m 0,52,53
 290 56 290 56 328 83 c 128,-1,54
 366 110 366 110 366 150 c 2,55,-1
 366 235 l 1,56,-1
 260 235 l 2,57,58
 128 235 128 235 128 157 c 2,59,-1
 128 136 l 2,60,61
 128 60 128 60 230 56 c 0,52,53
EndSplineSet
EndChar

StartChar: atilde
Encoding: 227 227 200
Width: 526
Flags: W
LayerCount: 2
Fore
SplineSet
326 612 m 0,0,1
 386 612 386 612 421 665 c 1,2,-1
 388 705 l 1,3,4
 373 692 373 692 360 685 c 128,-1,5
 347 678 347 678 330 678 c 0,6,7
 303 678 303 678 253 705 c 0,8,9
 239 714 239 714 221.5 721 c 128,-1,10
 204 728 204 728 180 728 c 0,11,12
 120 728 120 728 85 675 c 1,13,-1
 118 635 l 1,14,15
 133 648 133 648 146 655 c 128,-1,16
 159 662 159 662 176 662 c 0,17,18
 203 662 203 662 253 635 c 0,19,20
 267 626 267 626 284.5 619 c 128,-1,21
 302 612 302 612 326 612 c 0,0,1
217 -12 m 0,22,23
 135 -12 135 -12 89.5 30 c 128,-1,24
 44 72 44 72 44 144 c 0,25,26
 44 295 44 295 264 295 c 2,27,-1
 366 295 l 1,28,-1
 366 346 l 2,29,30
 366 459 366 459 244 459 c 0,31,32
 158 459 158 459 113 382 c 1,33,-1
 65 427 l 1,34,35
 86 470 86 470 132 499 c 128,-1,36
 178 528 178 528 248 528 c 0,37,38
 342 528 342 528 394 482 c 128,-1,39
 446 436 446 436 446 354 c 2,40,-1
 446 0 l 1,41,-1
 371 0 l 1,42,-1
 371 84 l 1,43,-1
 366 84 l 1,44,45
 348 36 348 36 309.5 12 c 128,-1,46
 271 -12 271 -12 217 -12 c 0,22,23
230 56 m 0,47,48
 290 56 290 56 328 83 c 128,-1,49
 366 110 366 110 366 150 c 2,50,-1
 366 235 l 1,51,-1
 260 235 l 2,52,53
 128 235 128 235 128 157 c 2,54,-1
 128 136 l 2,55,56
 128 60 128 60 230 56 c 0,47,48
EndSplineSet
EndChar

StartChar: b
Encoding: 98 98 201
Width: 580
Flags: W
LayerCount: 2
Fore
SplineSet
320 -12 m 0,0,1
 416 -12 416 -12 473 61 c 128,-1,2
 530 134 530 134 530 258 c 0,3,4
 530 383 530 383 473 455.5 c 128,-1,5
 416 528 416 528 320 528 c 0,6,7
 212 528 212 528 169 432 c 1,8,-1
 165 432 l 1,9,-1
 165 740 l 1,10,-1
 85 740 l 1,11,-1
 85 0 l 1,12,-1
 165 0 l 1,13,-1
 165 84 l 1,14,-1
 169 84 l 1,15,16
 215 -12 215 -12 320 -12 c 0,0,1
298 60 m 0,17,18
 244 60 244 60 204.5 88 c 128,-1,19
 165 116 165 116 165 165 c 2,20,-1
 165 357 l 2,21,22
 165 399 165 399 204.5 427.5 c 128,-1,23
 244 456 244 456 298 456 c 0,24,25
 366 456 366 456 405 413.5 c 128,-1,26
 444 371 444 371 444 302 c 2,27,-1
 444 214 l 2,28,29
 444 145 444 145 405 102.5 c 128,-1,30
 366 60 366 60 298 60 c 0,17,18
EndSplineSet
EndChar

StartChar: c
Encoding: 99 99 202
Width: 503
Flags: W
LayerCount: 2
Fore
SplineSet
277 -12 m 0,0,1
 351 -12 351 -12 400.5 20.5 c 128,-1,2
 450 53 450 53 475 110 c 1,3,-1
 417 149 l 1,4,5
 375 59 375 59 277 59 c 0,6,7
 206 59 206 59 169.5 102.5 c 128,-1,8
 133 146 133 146 133 214 c 2,9,-1
 133 302 l 2,10,11
 133 370 133 370 169 413.5 c 128,-1,12
 205 457 205 457 277 457 c 0,13,14
 373 457 373 457 403 373 c 1,15,-1
 470 407 l 1,16,17
 420 528 420 528 277 528 c 0,18,19
 169 528 169 528 108 455.5 c 128,-1,20
 47 383 47 383 47 258 c 0,21,22
 47 134 47 134 108 61 c 128,-1,23
 169 -12 169 -12 277 -12 c 0,0,1
EndSplineSet
EndChar

StartChar: cacute
Encoding: 263 263 203
Width: 503
Flags: W
LayerCount: 2
Fore
SplineSet
277 -12 m 0,0,1
 351 -12 351 -12 400.5 20.5 c 128,-1,2
 450 53 450 53 475 110 c 1,3,-1
 417 149 l 1,4,5
 375 59 375 59 277 59 c 0,6,7
 206 59 206 59 169.5 102.5 c 128,-1,8
 133 146 133 146 133 214 c 2,9,-1
 133 302 l 2,10,11
 133 370 133 370 169 413.5 c 128,-1,12
 205 457 205 457 277 457 c 0,13,14
 373 457 373 457 403 373 c 1,15,-1
 470 407 l 1,16,17
 420 528 420 528 277 528 c 0,18,19
 169 528 169 528 108 455.5 c 128,-1,20
 47 383 47 383 47 258 c 0,21,22
 47 134 47 134 108 61 c 128,-1,23
 169 -12 169 -12 277 -12 c 0,0,1
284 585 m 1,24,-1
 390 744 l 1,25,-1
 317 779 l 1,26,-1
 232 609 l 1,27,-1
 284 585 l 1,24,-1
EndSplineSet
EndChar

StartChar: ccaron
Encoding: 269 269 204
Width: 503
Flags: W
LayerCount: 2
Fore
SplineSet
277 -12 m 0,0,1
 351 -12 351 -12 400.5 20.5 c 128,-1,2
 450 53 450 53 475 110 c 1,3,-1
 417 149 l 1,4,5
 375 59 375 59 277 59 c 0,6,7
 206 59 206 59 169.5 102.5 c 128,-1,8
 133 146 133 146 133 214 c 2,9,-1
 133 302 l 2,10,11
 133 370 133 370 169 413.5 c 128,-1,12
 205 457 205 457 277 457 c 0,13,14
 373 457 373 457 403 373 c 1,15,-1
 470 407 l 1,16,17
 420 528 420 528 277 528 c 0,18,19
 169 528 169 528 108 455.5 c 128,-1,20
 47 383 47 383 47 258 c 0,21,22
 47 134 47 134 108 61 c 128,-1,23
 169 -12 169 -12 277 -12 c 0,0,1
327 599 m 1,24,-1
 438 742 l 1,25,-1
 394 773 l 1,26,-1
 277 656 l 1,27,-1
 160 773 l 1,28,-1
 116 742 l 1,29,-1
 227 599 l 1,30,-1
 327 599 l 1,24,-1
EndSplineSet
EndChar

StartChar: ccedilla
Encoding: 231 231 205
Width: 503
Flags: W
LayerCount: 2
Fore
SplineSet
288 -207 m 0,0,1
 332 -207 332 -207 365.5 -186.5 c 128,-1,2
 399 -166 399 -166 399 -124 c 0,3,4
 399 -92 399 -92 379.5 -75 c 128,-1,5
 360 -58 360 -58 331 -58 c 0,6,7
 312 -58 312 -58 292 -64 c 1,8,-1
 289 -61 l 1,9,-1
 299 -11 l 1,10,11
 429 4 429 4 475 110 c 1,12,-1
 417 149 l 1,13,14
 375 59 375 59 277 59 c 0,15,16
 206 59 206 59 169.5 102.5 c 128,-1,17
 133 146 133 146 133 214 c 2,18,-1
 133 302 l 2,19,20
 133 370 133 370 169 413.5 c 128,-1,21
 205 457 205 457 277 457 c 0,22,23
 373 457 373 457 403 373 c 1,24,-1
 470 408 l 1,25,26
 420 528 420 528 277 528 c 0,27,28
 169 528 169 528 108 455.5 c 128,-1,29
 47 383 47 383 47 258 c 0,30,31
 47 143 47 143 99.5 71.5 c 128,-1,32
 152 0 152 0 249 -11 c 1,33,-1
 236 -77 l 1,34,-1
 264 -81 l 2,35,36
 306 -87 306 -87 319 -97.5 c 128,-1,37
 332 -108 332 -108 332 -122 c 0,38,39
 332 -138 332 -138 319.5 -145.5 c 128,-1,40
 307 -153 307 -153 288 -153 c 0,41,42
 249 -153 249 -153 227 -125 c 1,43,-1
 189 -166 l 1,44,45
 219 -207 219 -207 288 -207 c 0,0,1
EndSplineSet
EndChar

StartChar: ccircumflex
Encoding: 265 265 206
Width: 503
Flags: W
LayerCount: 2
Fore
SplineSet
277 -12 m 0,0,1
 351 -12 351 -12 400.5 20.5 c 128,-1,2
 450 53 450 53 475 110 c 1,3,-1
 417 149 l 1,4,5
 375 59 375 59 277 59 c 0,6,7
 206 59 206 59 169.5 102.5 c 128,-1,8
 133 146 133 146 133 214 c 2,9,-1
 133 302 l 2,10,11
 133 370 133 370 169 413.5 c 128,-1,12
 205 457 205 457 277 457 c 0,13,14
 373 457 373 457 403 373 c 1,15,-1
 470 407 l 1,16,17
 420 528 420 528 277 528 c 0,18,19
 169 528 169 528 108 455.5 c 128,-1,20
 47 383 47 383 47 258 c 0,21,22
 47 134 47 134 108 61 c 128,-1,23
 169 -12 169 -12 277 -12 c 0,0,1
394 591 m 1,24,-1
 438 622 l 1,25,-1
 327 765 l 1,26,-1
 227 765 l 1,27,-1
 116 622 l 1,28,-1
 160 591 l 1,29,-1
 277 708 l 1,30,-1
 394 591 l 1,24,-1
EndSplineSet
EndChar

StartChar: cdot
Encoding: 267 267 207
Width: 503
Flags: W
LayerCount: 2
Fore
SplineSet
277 -12 m 0,0,1
 351 -12 351 -12 400.5 20.5 c 128,-1,2
 450 53 450 53 475 110 c 1,3,-1
 417 149 l 1,4,5
 375 59 375 59 277 59 c 0,6,7
 206 59 206 59 169.5 102.5 c 128,-1,8
 133 146 133 146 133 214 c 2,9,-1
 133 302 l 2,10,11
 133 370 133 370 169 413.5 c 128,-1,12
 205 457 205 457 277 457 c 0,13,14
 373 457 373 457 403 373 c 1,15,-1
 470 407 l 1,16,17
 420 528 420 528 277 528 c 0,18,19
 169 528 169 528 108 455.5 c 128,-1,20
 47 383 47 383 47 258 c 0,21,22
 47 134 47 134 108 61 c 128,-1,23
 169 -12 169 -12 277 -12 c 0,0,1
277 616 m 256,24,25
 328 616 328 616 328 662 c 2,26,-1
 328 673 l 2,27,28
 328 719 328 719 277 719 c 256,29,30
 226 719 226 719 226 673 c 2,31,-1
 226 662 l 2,32,33
 226 616 226 616 277 616 c 256,24,25
EndSplineSet
EndChar

StartChar: d
Encoding: 100 100 208
Width: 580
Flags: W
LayerCount: 2
Fore
SplineSet
260 -12 m 0,0,1
 364 -12 364 -12 411 84 c 1,2,-1
 415 84 l 1,3,-1
 415 0 l 1,4,-1
 495 0 l 1,5,-1
 495 740 l 1,6,-1
 415 740 l 1,7,-1
 415 432 l 1,8,-1
 411 432 l 1,9,10
 368 528 368 528 260 528 c 0,11,12
 164 528 164 528 107 455.5 c 128,-1,13
 50 383 50 383 50 258 c 0,14,15
 50 134 50 134 107 61 c 128,-1,16
 164 -12 164 -12 260 -12 c 0,0,1
282 60 m 0,17,18
 214 60 214 60 175 102.5 c 128,-1,19
 136 145 136 145 136 214 c 2,20,-1
 136 302 l 2,21,22
 136 371 136 371 175 413.5 c 128,-1,23
 214 456 214 456 282 456 c 0,24,25
 336 456 336 456 375.5 427.5 c 128,-1,26
 415 399 415 399 415 357 c 2,27,-1
 415 165 l 2,28,29
 415 116 415 116 375.5 88 c 128,-1,30
 336 60 336 60 282 60 c 0,17,18
EndSplineSet
EndChar

StartChar: dcaron
Encoding: 271 271 209
Width: 603
Flags: W
LayerCount: 2
Fore
SplineSet
604 555 m 1,0,-1
 656 740 l 1,1,-1
 563 740 l 1,2,-1
 551 555 l 1,3,-1
 604 555 l 1,0,-1
260 -12 m 0,4,5
 364 -12 364 -12 411 84 c 1,6,-1
 415 84 l 1,7,-1
 415 0 l 1,8,-1
 495 0 l 1,9,-1
 495 740 l 1,10,-1
 415 740 l 1,11,-1
 415 432 l 1,12,-1
 411 432 l 1,13,14
 368 528 368 528 260 528 c 0,15,16
 164 528 164 528 107 455.5 c 128,-1,17
 50 383 50 383 50 258 c 0,18,19
 50 134 50 134 107 61 c 128,-1,20
 164 -12 164 -12 260 -12 c 0,4,5
282 60 m 0,21,22
 214 60 214 60 175 102.5 c 128,-1,23
 136 145 136 145 136 214 c 2,24,-1
 136 302 l 2,25,26
 136 371 136 371 175 413.5 c 128,-1,27
 214 456 214 456 282 456 c 0,28,29
 336 456 336 456 375.5 427.5 c 128,-1,30
 415 399 415 399 415 357 c 2,31,-1
 415 165 l 2,32,33
 415 116 415 116 375.5 88 c 128,-1,34
 336 60 336 60 282 60 c 0,21,22
EndSplineSet
EndChar

StartChar: e
Encoding: 101 101 210
Width: 549
Flags: W
LayerCount: 2
Fore
SplineSet
279 -12 m 0,0,1
 352 -12 352 -12 405 20 c 128,-1,2
 458 52 458 52 483 106 c 1,3,-1
 426 147 l 1,4,5
 382 58 382 58 284 58 c 0,6,7
 212 58 212 58 171.5 103 c 128,-1,8
 131 148 131 148 131 214 c 2,9,-1
 131 238 l 1,10,-1
 502 238 l 1,11,-1
 502 276 l 2,12,13
 502 386 502 386 442 457 c 0,14,15
 380 528 380 528 279 528 c 0,16,17
 173 528 173 528 110 454 c 128,-1,18
 47 380 47 380 47 258 c 0,19,20
 47 134 47 134 111 62 c 0,21,22
 173 -12 173 -12 279 -12 c 0,0,1
416 298 m 1,23,-1
 131 298 l 1,24,-1
 131 305 l 2,25,26
 131 373 131 373 172 417 c 128,-1,27
 213 461 213 461 279 461 c 0,28,29
 341 461 341 461 378.5 419.5 c 128,-1,30
 416 378 416 378 416 309 c 2,31,-1
 416 298 l 1,23,-1
EndSplineSet
EndChar

StartChar: eacute
Encoding: 233 233 211
Width: 549
Flags: W
LayerCount: 2
Fore
SplineSet
279 -12 m 0,0,1
 352 -12 352 -12 405 20 c 128,-1,2
 458 52 458 52 483 106 c 1,3,-1
 426 147 l 1,4,5
 382 58 382 58 284 58 c 0,6,7
 212 58 212 58 171.5 103 c 128,-1,8
 131 148 131 148 131 214 c 2,9,-1
 131 238 l 1,10,-1
 502 238 l 1,11,-1
 502 276 l 2,12,13
 502 386 502 386 442 457 c 0,14,15
 380 528 380 528 279 528 c 0,16,17
 173 528 173 528 110 454 c 128,-1,18
 47 380 47 380 47 258 c 0,19,20
 47 134 47 134 111 62 c 0,21,22
 173 -12 173 -12 279 -12 c 0,0,1
416 298 m 1,23,-1
 131 298 l 1,24,-1
 131 305 l 2,25,26
 131 373 131 373 172 417 c 128,-1,27
 213 461 213 461 279 461 c 0,28,29
 341 461 341 461 378.5 419.5 c 128,-1,30
 416 378 416 378 416 309 c 2,31,-1
 416 298 l 1,23,-1
287 585 m 1,32,-1
 393 744 l 1,33,-1
 320 779 l 1,34,-1
 235 609 l 1,35,-1
 287 585 l 1,32,-1
EndSplineSet
EndChar

StartChar: ebreve
Encoding: 277 277 212
Width: 549
Flags: W
LayerCount: 2
Fore
SplineSet
279 -12 m 0,0,1
 352 -12 352 -12 405 20 c 128,-1,2
 458 52 458 52 483 106 c 1,3,-1
 426 147 l 1,4,5
 382 58 382 58 284 58 c 0,6,7
 212 58 212 58 171.5 103 c 128,-1,8
 131 148 131 148 131 214 c 2,9,-1
 131 238 l 1,10,-1
 502 238 l 1,11,-1
 502 276 l 2,12,13
 502 386 502 386 442 457 c 0,14,15
 380 528 380 528 279 528 c 0,16,17
 173 528 173 528 110 454 c 128,-1,18
 47 380 47 380 47 258 c 0,19,20
 47 134 47 134 111 62 c 0,21,22
 173 -12 173 -12 279 -12 c 0,0,1
416 298 m 1,23,-1
 131 298 l 1,24,-1
 131 305 l 2,25,26
 131 373 131 373 172 417 c 128,-1,27
 213 461 213 461 279 461 c 0,28,29
 341 461 341 461 378.5 419.5 c 128,-1,30
 416 378 416 378 416 309 c 2,31,-1
 416 298 l 1,23,-1
280 596 m 0,32,33
 353 596 353 596 390 638 c 0,34,35
 421 677 421 677 432 721 c 1,36,-1
 387 743 l 1,37,-1
 366 710 l 2,38,39
 353 687 353 687 335.5 673 c 128,-1,40
 318 659 318 659 280 659 c 256,41,42
 242 659 242 659 224 673.5 c 128,-1,43
 206 688 206 688 194 710 c 2,44,-1
 173 743 l 1,45,-1
 128 721 l 1,46,47
 161 596 161 596 280 596 c 0,32,33
EndSplineSet
EndChar

StartChar: ecaron
Encoding: 283 283 213
Width: 549
Flags: W
LayerCount: 2
Fore
SplineSet
279 -12 m 0,0,1
 352 -12 352 -12 405 20 c 128,-1,2
 458 52 458 52 483 106 c 1,3,-1
 426 147 l 1,4,5
 382 58 382 58 284 58 c 0,6,7
 212 58 212 58 171.5 103 c 128,-1,8
 131 148 131 148 131 214 c 2,9,-1
 131 238 l 1,10,-1
 502 238 l 1,11,-1
 502 276 l 2,12,13
 502 386 502 386 442 457 c 0,14,15
 380 528 380 528 279 528 c 0,16,17
 173 528 173 528 110 454 c 128,-1,18
 47 380 47 380 47 258 c 0,19,20
 47 134 47 134 111 62 c 0,21,22
 173 -12 173 -12 279 -12 c 0,0,1
416 298 m 1,23,-1
 131 298 l 1,24,-1
 131 305 l 2,25,26
 131 373 131 373 172 417 c 128,-1,27
 213 461 213 461 279 461 c 0,28,29
 341 461 341 461 378.5 419.5 c 128,-1,30
 416 378 416 378 416 309 c 2,31,-1
 416 298 l 1,23,-1
330 599 m 1,32,-1
 441 742 l 1,33,-1
 397 773 l 1,34,-1
 280 656 l 1,35,-1
 163 773 l 1,36,-1
 119 742 l 1,37,-1
 230 599 l 1,38,-1
 330 599 l 1,32,-1
EndSplineSet
EndChar

StartChar: ecircumflex
Encoding: 234 234 214
Width: 549
Flags: W
LayerCount: 2
Fore
SplineSet
279 -12 m 0,0,1
 352 -12 352 -12 405 20 c 128,-1,2
 458 52 458 52 483 106 c 1,3,-1
 426 147 l 1,4,5
 382 58 382 58 284 58 c 0,6,7
 212 58 212 58 171.5 103 c 128,-1,8
 131 148 131 148 131 214 c 2,9,-1
 131 238 l 1,10,-1
 502 238 l 1,11,-1
 502 276 l 2,12,13
 502 386 502 386 442 457 c 0,14,15
 380 528 380 528 279 528 c 0,16,17
 173 528 173 528 110 454 c 128,-1,18
 47 380 47 380 47 258 c 0,19,20
 47 134 47 134 111 62 c 0,21,22
 173 -12 173 -12 279 -12 c 0,0,1
416 298 m 1,23,-1
 131 298 l 1,24,-1
 131 305 l 2,25,26
 131 373 131 373 172 417 c 128,-1,27
 213 461 213 461 279 461 c 0,28,29
 341 461 341 461 378.5 419.5 c 128,-1,30
 416 378 416 378 416 309 c 2,31,-1
 416 298 l 1,23,-1
397 591 m 1,32,-1
 441 622 l 1,33,-1
 330 765 l 1,34,-1
 230 765 l 1,35,-1
 119 622 l 1,36,-1
 163 591 l 1,37,-1
 280 708 l 1,38,-1
 397 591 l 1,32,-1
EndSplineSet
EndChar

StartChar: ecircumflexacute
Encoding: 7871 7871 215
Width: 549
Flags: W
LayerCount: 2
Fore
SplineSet
279 -12 m 0,0,1
 352 -12 352 -12 405 20 c 128,-1,2
 458 52 458 52 483 106 c 1,3,-1
 426 147 l 1,4,5
 382 58 382 58 284 58 c 0,6,7
 212 58 212 58 171.5 103 c 128,-1,8
 131 148 131 148 131 214 c 2,9,-1
 131 238 l 1,10,-1
 502 238 l 1,11,-1
 502 276 l 2,12,13
 502 386 502 386 442 457 c 0,14,15
 380 528 380 528 279 528 c 0,16,17
 173 528 173 528 110 454 c 128,-1,18
 47 380 47 380 47 258 c 0,19,20
 47 134 47 134 111 62 c 0,21,22
 173 -12 173 -12 279 -12 c 0,0,1
416 298 m 1,23,-1
 131 298 l 1,24,-1
 131 305 l 2,25,26
 131 373 131 373 172 417 c 128,-1,27
 213 461 213 461 279 461 c 0,28,29
 341 461 341 461 378.5 419.5 c 128,-1,30
 416 378 416 378 416 309 c 2,31,-1
 416 298 l 1,23,-1
433 698 m 1,32,-1
 539 857 l 1,33,-1
 469 891 l 1,34,-1
 384 721 l 1,35,-1
 433 698 l 1,32,-1
398 581 m 1,36,-1
 439 611 l 1,37,-1
 329 745 l 1,38,-1
 229 745 l 1,39,-1
 119 611 l 1,40,-1
 160 581 l 1,41,-1
 279 693 l 1,42,-1
 398 581 l 1,36,-1
EndSplineSet
EndChar

StartChar: ecircumflexdotbelow
Encoding: 7879 7879 216
Width: 549
Flags: W
LayerCount: 2
Fore
SplineSet
279 -12 m 0,0,1
 352 -12 352 -12 405 20 c 128,-1,2
 458 52 458 52 483 106 c 1,3,-1
 426 147 l 1,4,5
 382 58 382 58 284 58 c 0,6,7
 212 58 212 58 171.5 103 c 128,-1,8
 131 148 131 148 131 214 c 2,9,-1
 131 238 l 1,10,-1
 502 238 l 1,11,-1
 502 276 l 2,12,13
 502 386 502 386 442 457 c 0,14,15
 380 528 380 528 279 528 c 0,16,17
 173 528 173 528 110 454 c 128,-1,18
 47 380 47 380 47 258 c 0,19,20
 47 134 47 134 111 62 c 0,21,22
 173 -12 173 -12 279 -12 c 0,0,1
416 298 m 1,23,-1
 131 298 l 1,24,-1
 131 305 l 2,25,26
 131 373 131 373 172 417 c 128,-1,27
 213 461 213 461 279 461 c 0,28,29
 341 461 341 461 378.5 419.5 c 128,-1,30
 416 378 416 378 416 309 c 2,31,-1
 416 298 l 1,23,-1
397 591 m 1,32,-1
 441 622 l 1,33,-1
 330 765 l 1,34,-1
 230 765 l 1,35,-1
 119 622 l 1,36,-1
 163 591 l 1,37,-1
 280 708 l 1,38,-1
 397 591 l 1,32,-1
283 -169 m 256,39,40
 334 -169 334 -169 334 -123 c 2,41,-1
 334 -112 l 2,42,43
 334 -66 334 -66 283 -66 c 256,44,45
 232 -66 232 -66 232 -112 c 2,46,-1
 232 -123 l 2,47,48
 232 -169 232 -169 283 -169 c 256,39,40
EndSplineSet
EndChar

StartChar: ecircumflexgrave
Encoding: 7873 7873 217
Width: 549
Flags: W
LayerCount: 2
Fore
SplineSet
279 -12 m 0,0,1
 352 -12 352 -12 405 20 c 128,-1,2
 458 52 458 52 483 106 c 1,3,-1
 426 147 l 1,4,5
 382 58 382 58 284 58 c 0,6,7
 212 58 212 58 171.5 103 c 128,-1,8
 131 148 131 148 131 214 c 2,9,-1
 131 238 l 1,10,-1
 502 238 l 1,11,-1
 502 276 l 2,12,13
 502 386 502 386 442 457 c 0,14,15
 380 528 380 528 279 528 c 0,16,17
 173 528 173 528 110 454 c 128,-1,18
 47 380 47 380 47 258 c 0,19,20
 47 134 47 134 111 62 c 0,21,22
 173 -12 173 -12 279 -12 c 0,0,1
416 298 m 1,23,-1
 131 298 l 1,24,-1
 131 305 l 2,25,26
 131 373 131 373 172 417 c 128,-1,27
 213 461 213 461 279 461 c 0,28,29
 341 461 341 461 378.5 419.5 c 128,-1,30
 416 378 416 378 416 309 c 2,31,-1
 416 298 l 1,23,-1
125 698 m 1,32,-1
 174 721 l 1,33,-1
 89 891 l 1,34,-1
 19 857 l 1,35,-1
 125 698 l 1,32,-1
398 581 m 1,36,-1
 439 611 l 1,37,-1
 329 745 l 1,38,-1
 229 745 l 1,39,-1
 119 611 l 1,40,-1
 160 581 l 1,41,-1
 279 693 l 1,42,-1
 398 581 l 1,36,-1
EndSplineSet
EndChar

StartChar: ecircumflexhookabove
Encoding: 7875 7875 218
Width: 549
Flags: W
LayerCount: 2
Fore
SplineSet
279 -12 m 0,0,1
 352 -12 352 -12 405 20 c 128,-1,2
 458 52 458 52 483 106 c 1,3,-1
 426 147 l 1,4,5
 382 58 382 58 284 58 c 0,6,7
 212 58 212 58 171.5 103 c 128,-1,8
 131 148 131 148 131 214 c 2,9,-1
 131 238 l 1,10,-1
 502 238 l 1,11,-1
 502 276 l 2,12,13
 502 386 502 386 442 457 c 0,14,15
 380 528 380 528 279 528 c 0,16,17
 173 528 173 528 110 454 c 128,-1,18
 47 380 47 380 47 258 c 0,19,20
 47 134 47 134 111 62 c 0,21,22
 173 -12 173 -12 279 -12 c 0,0,1
416 298 m 1,23,-1
 131 298 l 1,24,-1
 131 305 l 2,25,26
 131 373 131 373 172 417 c 128,-1,27
 213 461 213 461 279 461 c 0,28,29
 341 461 341 461 378.5 419.5 c 128,-1,30
 416 378 416 378 416 309 c 2,31,-1
 416 298 l 1,23,-1
435 692 m 1,32,-1
 459 722 l 2,33,34
 508 782 508 782 508 825 c 0,35,36
 508 880 508 880 438 880 c 2,37,-1
 329 880 l 1,38,-1
 329 822 l 1,39,-1
 451 822 l 1,40,-1
 391 715 l 1,41,-1
 435 692 l 1,32,-1
398 581 m 1,42,-1
 439 611 l 1,43,-1
 329 745 l 1,44,-1
 229 745 l 1,45,-1
 119 611 l 1,46,-1
 160 581 l 1,47,-1
 279 693 l 1,48,-1
 398 581 l 1,42,-1
EndSplineSet
EndChar

StartChar: ecircumflextilde
Encoding: 7877 7877 219
Width: 549
Flags: W
LayerCount: 2
Fore
SplineSet
279 -12 m 0,0,1
 352 -12 352 -12 405 20 c 128,-1,2
 458 52 458 52 483 106 c 1,3,-1
 426 147 l 1,4,5
 382 58 382 58 284 58 c 0,6,7
 212 58 212 58 171.5 103 c 128,-1,8
 131 148 131 148 131 214 c 2,9,-1
 131 238 l 1,10,-1
 502 238 l 1,11,-1
 502 276 l 2,12,13
 502 386 502 386 442 457 c 0,14,15
 380 528 380 528 279 528 c 0,16,17
 173 528 173 528 110 454 c 128,-1,18
 47 380 47 380 47 258 c 0,19,20
 47 134 47 134 111 62 c 0,21,22
 173 -12 173 -12 279 -12 c 0,0,1
416 298 m 1,23,-1
 131 298 l 1,24,-1
 131 305 l 2,25,26
 131 373 131 373 172 417 c 128,-1,27
 213 461 213 461 279 461 c 0,28,29
 341 461 341 461 378.5 419.5 c 128,-1,30
 416 378 416 378 416 309 c 2,31,-1
 416 298 l 1,23,-1
351 772 m 0,32,33
 411 772 411 772 446 825 c 1,34,-1
 415 861 l 1,35,36
 400 848 400 848 387 841 c 128,-1,37
 374 834 374 834 357 834 c 0,38,39
 330 834 330 834 280 861 c 0,40,41
 266 870 266 870 248.5 877 c 128,-1,42
 231 884 231 884 207 884 c 0,43,44
 147 884 147 884 112 831 c 1,45,-1
 143 795 l 1,46,47
 158 808 158 808 171 815 c 128,-1,48
 184 822 184 822 201 822 c 0,49,50
 228 822 228 822 278 795 c 0,51,52
 292 786 292 786 309.5 779 c 128,-1,53
 327 772 327 772 351 772 c 0,32,33
398 581 m 1,54,-1
 439 611 l 1,55,-1
 329 745 l 1,56,-1
 229 745 l 1,57,-1
 119 611 l 1,58,-1
 160 581 l 1,59,-1
 279 693 l 1,60,-1
 398 581 l 1,54,-1
EndSplineSet
EndChar

StartChar: edieresis
Encoding: 235 235 220
Width: 549
Flags: W
LayerCount: 2
Fore
SplineSet
279 -12 m 0,0,1
 352 -12 352 -12 405 20 c 128,-1,2
 458 52 458 52 483 106 c 1,3,-1
 426 147 l 1,4,5
 382 58 382 58 284 58 c 0,6,7
 212 58 212 58 171.5 103 c 128,-1,8
 131 148 131 148 131 214 c 2,9,-1
 131 238 l 1,10,-1
 502 238 l 1,11,-1
 502 276 l 2,12,13
 502 386 502 386 442 457 c 0,14,15
 380 528 380 528 279 528 c 0,16,17
 173 528 173 528 110 454 c 128,-1,18
 47 380 47 380 47 258 c 0,19,20
 47 134 47 134 111 62 c 0,21,22
 173 -12 173 -12 279 -12 c 0,0,1
416 298 m 1,23,-1
 131 298 l 1,24,-1
 131 305 l 2,25,26
 131 373 131 373 172 417 c 128,-1,27
 213 461 213 461 279 461 c 0,28,29
 341 461 341 461 378.5 419.5 c 128,-1,30
 416 378 416 378 416 309 c 2,31,-1
 416 298 l 1,23,-1
187 618 m 256,32,33
 236 618 236 618 236 664 c 2,34,-1
 236 675 l 2,35,36
 236 721 236 721 187 721 c 256,37,38
 138 721 138 721 138 675 c 2,39,-1
 138 664 l 2,40,41
 138 618 138 618 187 618 c 256,32,33
373 618 m 256,42,43
 422 618 422 618 422 664 c 2,44,-1
 422 675 l 2,45,46
 422 721 422 721 373 721 c 256,47,48
 324 721 324 721 324 675 c 2,49,-1
 324 664 l 2,50,51
 324 618 324 618 373 618 c 256,42,43
EndSplineSet
EndChar

StartChar: edot
Encoding: 279 279 221
Width: 549
Flags: W
LayerCount: 2
Fore
SplineSet
279 -12 m 0,0,1
 352 -12 352 -12 405 20 c 128,-1,2
 458 52 458 52 483 106 c 1,3,-1
 426 147 l 1,4,5
 382 58 382 58 284 58 c 0,6,7
 212 58 212 58 171.5 103 c 128,-1,8
 131 148 131 148 131 214 c 2,9,-1
 131 238 l 1,10,-1
 502 238 l 1,11,-1
 502 276 l 2,12,13
 502 386 502 386 442 457 c 0,14,15
 380 528 380 528 279 528 c 0,16,17
 173 528 173 528 110 454 c 128,-1,18
 47 380 47 380 47 258 c 0,19,20
 47 134 47 134 111 62 c 0,21,22
 173 -12 173 -12 279 -12 c 0,0,1
416 298 m 1,23,-1
 131 298 l 1,24,-1
 131 305 l 2,25,26
 131 373 131 373 172 417 c 128,-1,27
 213 461 213 461 279 461 c 0,28,29
 341 461 341 461 378.5 419.5 c 128,-1,30
 416 378 416 378 416 309 c 2,31,-1
 416 298 l 1,23,-1
280 616 m 256,32,33
 331 616 331 616 331 662 c 2,34,-1
 331 673 l 2,35,36
 331 719 331 719 280 719 c 256,37,38
 229 719 229 719 229 673 c 2,39,-1
 229 662 l 2,40,41
 229 616 229 616 280 616 c 256,32,33
EndSplineSet
EndChar

StartChar: edotbelow
Encoding: 7865 7865 222
Width: 549
Flags: W
LayerCount: 2
Fore
SplineSet
279 -12 m 0,0,1
 352 -12 352 -12 405 20 c 128,-1,2
 458 52 458 52 483 106 c 1,3,-1
 426 147 l 1,4,5
 382 58 382 58 284 58 c 0,6,7
 212 58 212 58 171.5 103 c 128,-1,8
 131 148 131 148 131 214 c 2,9,-1
 131 238 l 1,10,-1
 502 238 l 1,11,-1
 502 276 l 2,12,13
 502 386 502 386 442 457 c 0,14,15
 380 528 380 528 279 528 c 0,16,17
 173 528 173 528 110 454 c 128,-1,18
 47 380 47 380 47 258 c 0,19,20
 47 134 47 134 111 62 c 0,21,22
 173 -12 173 -12 279 -12 c 0,0,1
416 298 m 1,23,-1
 131 298 l 1,24,-1
 131 305 l 2,25,26
 131 373 131 373 172 417 c 128,-1,27
 213 461 213 461 279 461 c 0,28,29
 341 461 341 461 378.5 419.5 c 128,-1,30
 416 378 416 378 416 309 c 2,31,-1
 416 298 l 1,23,-1
283 -169 m 256,32,33
 334 -169 334 -169 334 -123 c 2,34,-1
 334 -112 l 2,35,36
 334 -66 334 -66 283 -66 c 256,37,38
 232 -66 232 -66 232 -112 c 2,39,-1
 232 -123 l 2,40,41
 232 -169 232 -169 283 -169 c 256,32,33
EndSplineSet
EndChar

StartChar: egrave
Encoding: 232 232 223
Width: 549
Flags: W
LayerCount: 2
Fore
SplineSet
279 -12 m 0,0,1
 352 -12 352 -12 405 20 c 128,-1,2
 458 52 458 52 483 106 c 1,3,-1
 426 147 l 1,4,5
 382 58 382 58 284 58 c 0,6,7
 212 58 212 58 171.5 103 c 128,-1,8
 131 148 131 148 131 214 c 2,9,-1
 131 238 l 1,10,-1
 502 238 l 1,11,-1
 502 276 l 2,12,13
 502 386 502 386 442 457 c 0,14,15
 380 528 380 528 279 528 c 0,16,17
 173 528 173 528 110 454 c 128,-1,18
 47 380 47 380 47 258 c 0,19,20
 47 134 47 134 111 62 c 0,21,22
 173 -12 173 -12 279 -12 c 0,0,1
416 298 m 1,23,-1
 131 298 l 1,24,-1
 131 305 l 2,25,26
 131 373 131 373 172 417 c 128,-1,27
 213 461 213 461 279 461 c 0,28,29
 341 461 341 461 378.5 419.5 c 128,-1,30
 416 378 416 378 416 309 c 2,31,-1
 416 298 l 1,23,-1
273 585 m 1,32,-1
 325 609 l 1,33,-1
 240 779 l 1,34,-1
 167 744 l 1,35,-1
 273 585 l 1,32,-1
EndSplineSet
EndChar

StartChar: ehookabove
Encoding: 7867 7867 224
Width: 549
Flags: W
LayerCount: 2
Fore
SplineSet
279 -12 m 0,0,1
 352 -12 352 -12 405 20 c 128,-1,2
 458 52 458 52 483 106 c 1,3,-1
 426 147 l 1,4,5
 382 58 382 58 284 58 c 0,6,7
 212 58 212 58 171.5 103 c 128,-1,8
 131 148 131 148 131 214 c 2,9,-1
 131 238 l 1,10,-1
 502 238 l 1,11,-1
 502 276 l 2,12,13
 502 386 502 386 442 457 c 0,14,15
 380 528 380 528 279 528 c 0,16,17
 173 528 173 528 110 454 c 128,-1,18
 47 380 47 380 47 258 c 0,19,20
 47 134 47 134 111 62 c 0,21,22
 173 -12 173 -12 279 -12 c 0,0,1
416 298 m 1,23,-1
 131 298 l 1,24,-1
 131 305 l 2,25,26
 131 373 131 373 172 417 c 128,-1,27
 213 461 213 461 279 461 c 0,28,29
 341 461 341 461 378.5 419.5 c 128,-1,30
 416 378 416 378 416 309 c 2,31,-1
 416 298 l 1,23,-1
301 577 m 1,32,-1
 325 607 l 2,33,34
 374 667 374 667 374 710 c 0,35,36
 374 765 374 765 304 765 c 2,37,-1
 195 765 l 1,38,-1
 195 704 l 1,39,-1
 313 704 l 1,40,-1
 255 600 l 1,41,-1
 301 577 l 1,32,-1
EndSplineSet
EndChar

StartChar: emacron
Encoding: 275 275 225
Width: 549
Flags: W
LayerCount: 2
Fore
SplineSet
279 -12 m 0,0,1
 352 -12 352 -12 405 20 c 128,-1,2
 458 52 458 52 483 106 c 1,3,-1
 426 147 l 1,4,5
 382 58 382 58 284 58 c 0,6,7
 212 58 212 58 171.5 103 c 128,-1,8
 131 148 131 148 131 214 c 2,9,-1
 131 238 l 1,10,-1
 502 238 l 1,11,-1
 502 276 l 2,12,13
 502 386 502 386 442 457 c 0,14,15
 380 528 380 528 279 528 c 0,16,17
 173 528 173 528 110 454 c 128,-1,18
 47 380 47 380 47 258 c 0,19,20
 47 134 47 134 111 62 c 0,21,22
 173 -12 173 -12 279 -12 c 0,0,1
416 298 m 1,23,-1
 131 298 l 1,24,-1
 131 305 l 2,25,26
 131 373 131 373 172 417 c 128,-1,27
 213 461 213 461 279 461 c 0,28,29
 341 461 341 461 378.5 419.5 c 128,-1,30
 416 378 416 378 416 309 c 2,31,-1
 416 298 l 1,23,-1
420 637 m 1,32,-1
 420 705 l 1,33,-1
 140 705 l 1,34,-1
 140 637 l 1,35,-1
 420 637 l 1,32,-1
EndSplineSet
EndChar

StartChar: eogonek
Encoding: 281 281 226
Width: 549
Flags: W
LayerCount: 2
Fore
SplineSet
356 -207 m 0,0,1
 391 -207 391 -207 413 -195.5 c 128,-1,2
 435 -184 435 -184 444 -168 c 1,3,-1
 405 -129 l 1,4,5
 386 -153 386 -153 357 -153 c 0,6,7
 326 -153 326 -153 326 -122 c 0,8,9
 326 -99 326 -99 340 -76 c 0,10,11
 369 -29 369 -29 413 13 c 0,12,13
 462 61 462 61 483 106 c 1,14,-1
 426 147 l 1,15,16
 382 58 382 58 284 58 c 0,17,18
 212 58 212 58 171.5 103 c 128,-1,19
 131 148 131 148 131 214 c 2,20,-1
 131 238 l 1,21,-1
 502 238 l 1,22,-1
 502 276 l 2,23,24
 502 386 502 386 442 457 c 0,25,26
 380 528 380 528 279 528 c 0,27,28
 173 528 173 528 110 454 c 128,-1,29
 47 380 47 380 47 258 c 0,30,31
 47 134 47 134 111 62 c 0,32,33
 173 -12 173 -12 279 -12 c 0,34,35
 329 -12 329 -12 360 5 c 1,36,-1
 364 0 l 1,37,38
 327 -23 327 -23 294.5 -54.5 c 128,-1,39
 262 -86 262 -86 262 -130 c 0,40,41
 262 -171 262 -171 289.5 -189 c 128,-1,42
 317 -207 317 -207 356 -207 c 0,0,1
416 298 m 1,43,-1
 131 298 l 1,44,-1
 131 305 l 2,45,46
 131 373 131 373 172 417 c 128,-1,47
 213 461 213 461 279 461 c 0,48,49
 341 461 341 461 378.5 419.5 c 128,-1,50
 416 378 416 378 416 309 c 2,51,-1
 416 298 l 1,43,-1
EndSplineSet
EndChar

StartChar: etilde
Encoding: 7869 7869 227
Width: 549
Flags: W
LayerCount: 2
Fore
SplineSet
279 -12 m 0,0,1
 352 -12 352 -12 405 20 c 128,-1,2
 458 52 458 52 483 106 c 1,3,-1
 426 147 l 1,4,5
 382 58 382 58 284 58 c 0,6,7
 212 58 212 58 171.5 103 c 128,-1,8
 131 148 131 148 131 214 c 2,9,-1
 131 238 l 1,10,-1
 502 238 l 1,11,-1
 502 276 l 2,12,13
 502 386 502 386 442 457 c 0,14,15
 380 528 380 528 279 528 c 0,16,17
 173 528 173 528 110 454 c 128,-1,18
 47 380 47 380 47 258 c 0,19,20
 47 134 47 134 111 62 c 0,21,22
 173 -12 173 -12 279 -12 c 0,0,1
416 298 m 1,23,-1
 131 298 l 1,24,-1
 131 305 l 2,25,26
 131 373 131 373 172 417 c 128,-1,27
 213 461 213 461 279 461 c 0,28,29
 341 461 341 461 378.5 419.5 c 128,-1,30
 416 378 416 378 416 309 c 2,31,-1
 416 298 l 1,23,-1
353 612 m 0,32,33
 413 612 413 612 448 665 c 1,34,-1
 415 705 l 1,35,36
 400 692 400 692 387 685 c 128,-1,37
 374 678 374 678 357 678 c 0,38,39
 330 678 330 678 280 705 c 0,40,41
 266 714 266 714 248.5 721 c 128,-1,42
 231 728 231 728 207 728 c 0,43,44
 147 728 147 728 112 675 c 1,45,-1
 145 635 l 1,46,47
 160 648 160 648 173 655 c 128,-1,48
 186 662 186 662 203 662 c 0,49,50
 230 662 230 662 280 635 c 0,51,52
 294 626 294 626 311.5 619 c 128,-1,53
 329 612 329 612 353 612 c 0,32,33
EndSplineSet
EndChar

StartChar: f
Encoding: 102 102 228
Width: 324
Flags: W
LayerCount: 2
Fore
SplineSet
193 0 m 1,0,-1
 193 446 l 1,1,-1
 304 446 l 1,2,-1
 304 516 l 1,3,-1
 193 516 l 1,4,-1
 193 670 l 1,5,-1
 304 670 l 1,6,-1
 304 740 l 1,7,-1
 226 740 l 2,8,9
 169 740 169 740 141 707 c 128,-1,10
 113 674 113 674 113 620 c 2,11,-1
 113 516 l 1,12,-1
 29 516 l 1,13,-1
 29 446 l 1,14,-1
 113 446 l 1,15,-1
 113 0 l 1,16,-1
 193 0 l 1,0,-1
EndSplineSet
EndChar

StartChar: g
Encoding: 103 103 229
Width: 531
Flags: W
LayerCount: 2
Fore
SplineSet
270 -212 m 0,0,1
 149 -212 149 -212 96 -179 c 128,-1,2
 43 -146 43 -146 43 -85 c 0,3,4
 43 -9 43 -9 125 15 c 1,5,-1
 125 26 l 1,6,7
 79 48 79 48 79 98 c 0,8,9
 79 137 79 137 104 157.5 c 128,-1,10
 129 178 129 178 168 188 c 1,11,-1
 168 192 l 1,12,13
 122 214 122 214 96.5 255 c 128,-1,14
 71 296 71 296 71 350 c 0,15,16
 71 429 71 429 124.5 478.5 c 128,-1,17
 178 528 178 528 265 528 c 0,18,19
 308 528 308 528 343 516 c 1,20,-1
 504 516 l 1,21,-1
 504 452 l 1,22,-1
 424 452 l 1,23,24
 461 408 461 408 461 350 c 0,25,26
 461 271 461 271 407.5 221.5 c 128,-1,27
 354 172 354 172 266 172 c 0,28,29
 241 172 241 172 216 177 c 1,30,31
 148 159 148 159 148 119 c 0,32,33
 148 96 148 96 170 88 c 128,-1,34
 192 80 192 80 227 80 c 2,35,-1
 337 80 l 2,36,37
 520 80 520 80 520 -57 c 0,38,39
 520 -137 520 -137 457.5 -174.5 c 128,-1,40
 395 -212 395 -212 270 -212 c 0,0,1
266 236 m 256,41,42
 317 236 317 236 347 260.5 c 128,-1,43
 377 285 377 285 377 336 c 2,44,-1
 377 364 l 2,45,46
 377 415 377 415 347 439.5 c 128,-1,47
 317 464 317 464 266 464 c 256,48,49
 215 464 215 464 185 439.5 c 128,-1,50
 155 415 155 415 155 364 c 2,51,-1
 155 336 l 2,52,53
 155 285 155 285 185 260.5 c 128,-1,54
 215 236 215 236 266 236 c 256,41,42
304 -147 m 2,55,56
 371 -147 371 -147 408 -126 c 128,-1,57
 445 -105 445 -105 445 -63 c 0,58,59
 445 -32 445 -32 421.5 -13.5 c 128,-1,60
 398 5 398 5 338 5 c 2,61,-1
 166 5 l 1,62,63
 118 -17 118 -17 118 -65 c 0,64,65
 118 -99 118 -99 143.5 -123 c 128,-1,66
 169 -147 169 -147 230 -147 c 2,67,-1
 304 -147 l 2,55,56
EndSplineSet
EndChar

StartChar: h
Encoding: 104 104 234
Width: 568
Flags: W
LayerCount: 2
Fore
SplineSet
488 0 m 1,0,-1
 488 331 l 2,1,2
 488 425 488 425 441.5 476.5 c 128,-1,3
 395 528 395 528 315 528 c 0,4,5
 208 528 208 528 169 432 c 1,6,-1
 165 432 l 1,7,-1
 165 740 l 1,8,-1
 85 740 l 1,9,-1
 85 0 l 1,10,-1
 165 0 l 1,11,-1
 165 358 l 2,12,13
 165 408 165 408 204 432 c 128,-1,14
 243 456 243 456 291 456 c 0,15,16
 408 456 408 456 408 317 c 2,17,-1
 408 0 l 1,18,-1
 488 0 l 1,0,-1
EndSplineSet
EndChar

StartChar: hcircumflex
Encoding: 293 293 235
Width: 568
Flags: W
LayerCount: 2
Fore
SplineSet
488 0 m 1,0,-1
 488 331 l 2,1,2
 488 425 488 425 441.5 476.5 c 128,-1,3
 395 528 395 528 315 528 c 0,4,5
 208 528 208 528 169 432 c 1,6,-1
 165 432 l 1,7,-1
 165 740 l 1,8,-1
 85 740 l 1,9,-1
 85 0 l 1,10,-1
 165 0 l 1,11,-1
 165 358 l 2,12,13
 165 408 165 408 204 432 c 128,-1,14
 243 456 243 456 291 456 c 0,15,16
 408 456 408 456 408 317 c 2,17,-1
 408 0 l 1,18,-1
 488 0 l 1,0,-1
245 749 m 1,19,-1
 289 780 l 1,20,-1
 178 923 l 1,21,-1
 78 923 l 1,22,-1
 -33 780 l 1,23,-1
 11 749 l 1,24,-1
 128 866 l 1,25,-1
 245 749 l 1,19,-1
EndSplineSet
EndChar

StartChar: i
Encoding: 105 105 236
Width: 250
Flags: W
LayerCount: 2
Fore
SplineSet
125 637 m 256,0,1
 174 637 174 637 174 682 c 2,2,-1
 174 695 l 2,3,4
 174 740 174 740 125 740 c 256,5,6
 76 740 76 740 76 695 c 2,7,-1
 76 682 l 2,8,9
 76 637 76 637 125 637 c 256,0,1
165 0 m 1,10,-1
 165 516 l 1,11,-1
 85 516 l 1,12,-1
 85 0 l 1,13,-1
 165 0 l 1,10,-1
EndSplineSet
EndChar

StartChar: iacute
Encoding: 237 237 237
Width: 250
Flags: W
LayerCount: 2
Fore
SplineSet
165 0 m 1,0,-1
 165 516 l 1,1,-1
 85 516 l 1,2,-1
 85 0 l 1,3,-1
 165 0 l 1,0,-1
133 585 m 1,4,-1
 239 744 l 1,5,-1
 166 779 l 1,6,-1
 81 609 l 1,7,-1
 133 585 l 1,4,-1
EndSplineSet
EndChar

StartChar: ibreve
Encoding: 301 301 238
Width: 250
Flags: W
LayerCount: 2
Fore
SplineSet
165 0 m 1,0,-1
 165 516 l 1,1,-1
 85 516 l 1,2,-1
 85 0 l 1,3,-1
 165 0 l 1,0,-1
126 596 m 0,4,5
 199 596 199 596 236 638 c 0,6,7
 267 677 267 677 278 721 c 1,8,-1
 233 743 l 1,9,-1
 212 710 l 2,10,11
 199 687 199 687 181.5 673 c 128,-1,12
 164 659 164 659 126 659 c 256,13,14
 88 659 88 659 70 673.5 c 128,-1,15
 52 688 52 688 40 710 c 2,16,-1
 19 743 l 1,17,-1
 -26 721 l 1,18,19
 7 596 7 596 126 596 c 0,4,5
EndSplineSet
EndChar

StartChar: icircumflex
Encoding: 238 238 239
Width: 250
Flags: W
LayerCount: 2
Fore
SplineSet
165 0 m 1,0,-1
 165 516 l 1,1,-1
 85 516 l 1,2,-1
 85 0 l 1,3,-1
 165 0 l 1,0,-1
243 591 m 1,4,-1
 287 622 l 1,5,-1
 176 765 l 1,6,-1
 76 765 l 1,7,-1
 -35 622 l 1,8,-1
 9 591 l 1,9,-1
 126 708 l 1,10,-1
 243 591 l 1,4,-1
EndSplineSet
EndChar

StartChar: idieresis
Encoding: 239 239 240
Width: 250
Flags: W
LayerCount: 2
Fore
SplineSet
165 0 m 1,0,-1
 165 516 l 1,1,-1
 85 516 l 1,2,-1
 85 0 l 1,3,-1
 165 0 l 1,0,-1
33 618 m 256,4,5
 82 618 82 618 82 664 c 2,6,-1
 82 675 l 2,7,8
 82 721 82 721 33 721 c 256,9,10
 -16 721 -16 721 -16 675 c 2,11,-1
 -16 664 l 2,12,13
 -16 618 -16 618 33 618 c 256,4,5
219 618 m 256,14,15
 268 618 268 618 268 664 c 2,16,-1
 268 675 l 2,17,18
 268 721 268 721 219 721 c 256,19,20
 170 721 170 721 170 675 c 2,21,-1
 170 664 l 2,22,23
 170 618 170 618 219 618 c 256,14,15
EndSplineSet
EndChar

StartChar: idotbelow
Encoding: 7883 7883 241
Width: 250
Flags: W
LayerCount: 2
Fore
SplineSet
125 637 m 256,0,1
 174 637 174 637 174 682 c 2,2,-1
 174 695 l 2,3,4
 174 740 174 740 125 740 c 256,5,6
 76 740 76 740 76 695 c 2,7,-1
 76 682 l 2,8,9
 76 637 76 637 125 637 c 256,0,1
165 0 m 1,10,-1
 165 516 l 1,11,-1
 85 516 l 1,12,-1
 85 0 l 1,13,-1
 165 0 l 1,10,-1
125 -169 m 256,14,15
 176 -169 176 -169 176 -123 c 2,16,-1
 176 -112 l 2,17,18
 176 -66 176 -66 125 -66 c 256,19,20
 74 -66 74 -66 74 -112 c 2,21,-1
 74 -123 l 2,22,23
 74 -169 74 -169 125 -169 c 256,14,15
EndSplineSet
EndChar

StartChar: igrave
Encoding: 236 236 242
Width: 250
Flags: W
LayerCount: 2
Fore
SplineSet
165 0 m 1,0,-1
 165 516 l 1,1,-1
 85 516 l 1,2,-1
 85 0 l 1,3,-1
 165 0 l 1,0,-1
119 585 m 1,4,-1
 171 609 l 1,5,-1
 86 779 l 1,6,-1
 13 744 l 1,7,-1
 119 585 l 1,4,-1
EndSplineSet
EndChar

StartChar: ihookabove
Encoding: 7881 7881 243
Width: 250
Flags: W
LayerCount: 2
Fore
SplineSet
165 0 m 1,0,-1
 165 516 l 1,1,-1
 85 516 l 1,2,-1
 85 0 l 1,3,-1
 165 0 l 1,0,-1
147 577 m 1,4,-1
 171 607 l 2,5,6
 220 667 220 667 220 710 c 0,7,8
 220 765 220 765 150 765 c 2,9,-1
 41 765 l 1,10,-1
 41 704 l 1,11,-1
 159 704 l 1,12,-1
 101 600 l 1,13,-1
 147 577 l 1,4,-1
EndSplineSet
EndChar

StartChar: imacron
Encoding: 299 299 244
Width: 250
Flags: W
LayerCount: 2
Fore
SplineSet
165 0 m 1,0,-1
 165 516 l 1,1,-1
 85 516 l 1,2,-1
 85 0 l 1,3,-1
 165 0 l 1,0,-1
266 637 m 1,4,-1
 266 705 l 1,5,-1
 -14 705 l 1,6,-1
 -14 637 l 1,7,-1
 266 637 l 1,4,-1
EndSplineSet
EndChar

StartChar: iogonek
Encoding: 303 303 245
Width: 250
Flags: W
LayerCount: 2
Fore
SplineSet
98 -207 m 0,0,1
 133 -207 133 -207 155 -195.5 c 128,-1,2
 177 -184 177 -184 186 -168 c 1,3,-1
 146 -129 l 1,4,5
 127 -153 127 -153 98 -153 c 0,6,7
 67 -153 67 -153 67 -123 c 0,8,9
 67 -106 67 -106 85 -81.5 c 128,-1,10
 103 -57 103 -57 165 0 c 1,11,-1
 165 516 l 1,12,-1
 85 516 l 1,13,-1
 85 0 l 1,14,-1
 103 0 l 1,15,-1
 105 -4 l 1,16,17
 64 -33 64 -33 33.5 -63 c 128,-1,18
 3 -93 3 -93 3 -131 c 0,19,20
 3 -171 3 -171 31 -189 c 128,-1,21
 59 -207 59 -207 98 -207 c 0,0,1
125 637 m 256,22,23
 174 637 174 637 174 682 c 2,24,-1
 174 695 l 2,25,26
 174 740 174 740 125 740 c 256,27,28
 76 740 76 740 76 695 c 2,29,-1
 76 682 l 2,30,31
 76 637 76 637 125 637 c 256,22,23
EndSplineSet
EndChar

StartChar: itilde
Encoding: 297 297 246
Width: 250
Flags: W
LayerCount: 2
Fore
SplineSet
165 0 m 1,0,-1
 165 516 l 1,1,-1
 85 516 l 1,2,-1
 85 0 l 1,3,-1
 165 0 l 1,0,-1
199 612 m 0,4,5
 259 612 259 612 294 665 c 1,6,-1
 261 705 l 1,7,8
 246 692 246 692 233 685 c 128,-1,9
 220 678 220 678 203 678 c 0,10,11
 176 678 176 678 126 705 c 0,12,13
 112 714 112 714 94.5 721 c 128,-1,14
 77 728 77 728 53 728 c 0,15,16
 -7 728 -7 728 -42 675 c 1,17,-1
 -9 635 l 1,18,19
 6 648 6 648 19 655 c 128,-1,20
 32 662 32 662 49 662 c 0,21,22
 76 662 76 662 126 635 c 0,23,24
 140 626 140 626 157.5 619 c 128,-1,25
 175 612 175 612 199 612 c 0,4,5
EndSplineSet
EndChar

StartChar: j
Encoding: 106 106 247
Width: 250
Flags: W
LayerCount: 2
Fore
SplineSet
53 -200 m 2,0,1
 111 -200 111 -200 138 -167 c 128,-1,2
 165 -134 165 -134 165 -80 c 2,3,-1
 165 516 l 1,4,-1
 85 516 l 1,5,-1
 85 -130 l 1,6,-1
 1 -130 l 1,7,-1
 1 -200 l 1,8,-1
 53 -200 l 2,0,1
125 637 m 256,9,10
 174 637 174 637 174 682 c 2,11,-1
 174 695 l 2,12,13
 174 740 174 740 125 740 c 256,14,15
 76 740 76 740 76 695 c 2,16,-1
 76 682 l 2,17,18
 76 637 76 637 125 637 c 256,9,10
EndSplineSet
EndChar

StartChar: jcircumflex
Encoding: 309 309 248
Width: 250
Flags: W
LayerCount: 2
Fore
SplineSet
53 -200 m 2,0,1
 111 -200 111 -200 138 -167 c 128,-1,2
 165 -134 165 -134 165 -80 c 2,3,-1
 165 516 l 1,4,-1
 85 516 l 1,5,-1
 85 -130 l 1,6,-1
 1 -130 l 1,7,-1
 1 -200 l 1,8,-1
 53 -200 l 2,0,1
243 591 m 1,9,-1
 287 622 l 1,10,-1
 176 765 l 1,11,-1
 76 765 l 1,12,-1
 -35 622 l 1,13,-1
 9 591 l 1,14,-1
 126 708 l 1,15,-1
 243 591 l 1,9,-1
EndSplineSet
EndChar

StartChar: k
Encoding: 107 107 249
Width: 527
Flags: W
LayerCount: 2
Fore
SplineSet
510 0 m 1,0,-1
 300 312 l 1,1,-1
 491 516 l 1,2,-1
 394 516 l 1,3,4
 280 394 280 394 169 271 c 1,5,-1
 165 271 l 1,6,-1
 165 740 l 1,7,-1
 85 740 l 1,8,-1
 85 0 l 1,9,-1
 165 0 l 1,10,-1
 165 184 l 1,11,-1
 242 263 l 1,12,-1
 413 0 l 1,13,-1
 510 0 l 1,0,-1
EndSplineSet
EndChar

StartChar: kcedilla
Encoding: 311 311 250
Width: 527
Flags: W
LayerCount: 2
Fore
SplineSet
510 0 m 1,0,-1
 300 312 l 1,1,-1
 491 516 l 1,2,-1
 394 516 l 1,3,4
 280 394 280 394 169 271 c 1,5,-1
 165 271 l 1,6,-1
 165 740 l 1,7,-1
 85 740 l 1,8,-1
 85 0 l 1,9,-1
 165 0 l 1,10,-1
 165 184 l 1,11,-1
 242 263 l 1,12,-1
 413 0 l 1,13,-1
 510 0 l 1,0,-1
283 -245 m 1,14,15
 343 -188 343 -188 343 -124 c 2,16,-1
 343 -113 l 2,17,18
 343 -69 343 -69 292 -66 c 0,19,20
 243 -66 243 -66 241 -113 c 2,21,-1
 241 -123 l 2,22,23
 241 -157 241 -157 276 -167 c 1,24,25
 269 -190 269 -190 257 -207.5 c 128,-1,26
 245 -225 245 -225 225 -245 c 1,27,-1
 283 -245 l 1,14,15
EndSplineSet
EndChar

StartChar: l
Encoding: 108 108 251
Width: 272
Flags: W
LayerCount: 2
Fore
SplineSet
241 0 m 1,0,-1
 241 70 l 1,1,-1
 165 70 l 1,2,-1
 165 740 l 1,3,-1
 85 740 l 1,4,-1
 85 83 l 2,5,6
 85 47 85 47 106.5 23.5 c 128,-1,7
 128 0 128 0 170 0 c 2,8,-1
 241 0 l 1,0,-1
EndSplineSet
EndChar

StartChar: lacute
Encoding: 314 314 252
Width: 272
Flags: W
LayerCount: 2
Fore
SplineSet
133 785 m 1,0,-1
 239 944 l 1,1,-1
 166 979 l 1,2,-1
 81 809 l 1,3,-1
 133 785 l 1,0,-1
241 0 m 1,4,-1
 241 70 l 1,5,-1
 165 70 l 1,6,-1
 165 740 l 1,7,-1
 85 740 l 1,8,-1
 85 83 l 2,9,10
 85 47 85 47 106.5 23.5 c 128,-1,11
 128 0 128 0 170 0 c 2,12,-1
 241 0 l 1,4,-1
EndSplineSet
EndChar

StartChar: lcaron
Encoding: 318 318 253
Width: 274
Flags: W
LayerCount: 2
Fore
SplineSet
274 555 m 1,0,-1
 326 740 l 1,1,-1
 233 740 l 1,2,-1
 221 555 l 1,3,-1
 274 555 l 1,0,-1
241 0 m 1,4,-1
 241 70 l 1,5,-1
 165 70 l 1,6,-1
 165 740 l 1,7,-1
 85 740 l 1,8,-1
 85 83 l 2,9,10
 85 47 85 47 106.5 23.5 c 128,-1,11
 128 0 128 0 170 0 c 2,12,-1
 241 0 l 1,4,-1
EndSplineSet
EndChar

StartChar: lcedilla
Encoding: 316 316 254
Width: 272
Flags: W
LayerCount: 2
Fore
SplineSet
155 -245 m 1,0,-1
 97 -245 l 1,1,2
 117 -225 117 -225 129 -207.5 c 128,-1,3
 141 -190 141 -190 148 -167 c 1,4,5
 113 -156 113 -156 113 -123 c 2,6,-1
 113 -113 l 2,7,8
 113 -69 113 -69 164 -66 c 0,9,10
 214 -66 214 -66 215 -113 c 2,11,-1
 215 -124 l 2,12,13
 215 -159 215 -159 197.5 -190.5 c 128,-1,14
 180 -222 180 -222 155 -245 c 1,0,-1
241 0 m 1,15,-1
 170 0 l 2,16,17
 129 0 129 0 107 23.5 c 128,-1,18
 85 47 85 47 85 83 c 2,19,-1
 85 740 l 1,20,-1
 165 740 l 1,21,-1
 165 70 l 1,22,-1
 241 70 l 1,23,-1
 241 0 l 1,15,-1
EndSplineSet
EndChar

StartChar: m
Encoding: 109 109 255
Width: 873
Flags: W
LayerCount: 2
Fore
SplineSet
793 0 m 1,0,-1
 793 331 l 2,1,2
 793 425 793 425 748.5 476.5 c 128,-1,3
 704 528 704 528 625 528 c 0,4,5
 559 528 559 528 520.5 497 c 128,-1,6
 482 466 482 466 468 423 c 1,7,-1
 466 423 l 1,8,9
 444 479 444 479 401.5 503.5 c 128,-1,10
 359 528 359 528 308 528 c 0,11,12
 208 528 208 528 169 432 c 1,13,-1
 165 432 l 1,14,-1
 165 516 l 1,15,-1
 85 516 l 1,16,-1
 85 0 l 1,17,-1
 165 0 l 1,18,-1
 165 358 l 2,19,20
 165 408 165 408 202.5 432 c 128,-1,21
 240 456 240 456 288 456 c 0,22,23
 399 456 399 456 399 324 c 2,24,-1
 399 0 l 1,25,-1
 479 0 l 1,26,-1
 479 358 l 2,27,28
 479 408 479 408 515.5 432 c 128,-1,29
 552 456 552 456 600 456 c 0,30,31
 659 456 659 456 686 421 c 128,-1,32
 713 386 713 386 713 317 c 2,33,-1
 713 0 l 1,34,-1
 793 0 l 1,0,-1
EndSplineSet
EndChar

StartChar: n
Encoding: 110 110 256
Width: 568
Flags: W
LayerCount: 2
Fore
SplineSet
488 0 m 1,0,-1
 488 331 l 2,1,2
 488 425 488 425 441.5 476.5 c 128,-1,3
 395 528 395 528 315 528 c 0,4,5
 208 528 208 528 169 432 c 1,6,-1
 165 432 l 1,7,-1
 165 516 l 1,8,-1
 85 516 l 1,9,-1
 85 0 l 1,10,-1
 165 0 l 1,11,-1
 165 358 l 2,12,13
 165 408 165 408 204 432 c 128,-1,14
 243 456 243 456 291 456 c 0,15,16
 408 456 408 456 408 317 c 2,17,-1
 408 0 l 1,18,-1
 488 0 l 1,0,-1
EndSplineSet
EndChar

StartChar: nacute
Encoding: 324 324 257
Width: 568
Flags: W
LayerCount: 2
Fore
SplineSet
488 0 m 1,0,-1
 488 331 l 2,1,2
 488 425 488 425 441.5 476.5 c 128,-1,3
 395 528 395 528 315 528 c 0,4,5
 208 528 208 528 169 432 c 1,6,-1
 165 432 l 1,7,-1
 165 516 l 1,8,-1
 85 516 l 1,9,-1
 85 0 l 1,10,-1
 165 0 l 1,11,-1
 165 358 l 2,12,13
 165 408 165 408 204 432 c 128,-1,14
 243 456 243 456 291 456 c 0,15,16
 408 456 408 456 408 317 c 2,17,-1
 408 0 l 1,18,-1
 488 0 l 1,0,-1
296 585 m 1,19,-1
 402 744 l 1,20,-1
 329 779 l 1,21,-1
 244 609 l 1,22,-1
 296 585 l 1,19,-1
EndSplineSet
EndChar

StartChar: ncaron
Encoding: 328 328 258
Width: 568
Flags: W
LayerCount: 2
Fore
SplineSet
488 0 m 1,0,-1
 488 331 l 2,1,2
 488 425 488 425 441.5 476.5 c 128,-1,3
 395 528 395 528 315 528 c 0,4,5
 208 528 208 528 169 432 c 1,6,-1
 165 432 l 1,7,-1
 165 516 l 1,8,-1
 85 516 l 1,9,-1
 85 0 l 1,10,-1
 165 0 l 1,11,-1
 165 358 l 2,12,13
 165 408 165 408 204 432 c 128,-1,14
 243 456 243 456 291 456 c 0,15,16
 408 456 408 456 408 317 c 2,17,-1
 408 0 l 1,18,-1
 488 0 l 1,0,-1
339 599 m 1,19,-1
 450 742 l 1,20,-1
 406 773 l 1,21,-1
 289 656 l 1,22,-1
 172 773 l 1,23,-1
 128 742 l 1,24,-1
 239 599 l 1,25,-1
 339 599 l 1,19,-1
EndSplineSet
EndChar

StartChar: ncedilla
Encoding: 326 326 259
Width: 568
Flags: W
LayerCount: 2
Fore
SplineSet
488 0 m 1,0,-1
 488 331 l 2,1,2
 488 425 488 425 441.5 476.5 c 128,-1,3
 395 528 395 528 315 528 c 0,4,5
 208 528 208 528 169 432 c 1,6,-1
 165 432 l 1,7,-1
 165 516 l 1,8,-1
 85 516 l 1,9,-1
 85 0 l 1,10,-1
 165 0 l 1,11,-1
 165 358 l 2,12,13
 165 408 165 408 204 432 c 128,-1,14
 243 456 243 456 291 456 c 0,15,16
 408 456 408 456 408 317 c 2,17,-1
 408 0 l 1,18,-1
 488 0 l 1,0,-1
278 -245 m 1,19,20
 338 -188 338 -188 338 -124 c 2,21,-1
 338 -113 l 2,22,23
 338 -69 338 -69 287 -66 c 0,24,25
 238 -66 238 -66 236 -113 c 2,26,-1
 236 -123 l 2,27,28
 236 -157 236 -157 271 -167 c 1,29,30
 264 -190 264 -190 252 -207.5 c 128,-1,31
 240 -225 240 -225 220 -245 c 1,32,-1
 278 -245 l 1,19,20
EndSplineSet
EndChar

StartChar: ntilde
Encoding: 241 241 260
Width: 568
Flags: W
LayerCount: 2
Fore
SplineSet
488 0 m 1,0,-1
 488 331 l 2,1,2
 488 425 488 425 441.5 476.5 c 128,-1,3
 395 528 395 528 315 528 c 0,4,5
 208 528 208 528 169 432 c 1,6,-1
 165 432 l 1,7,-1
 165 516 l 1,8,-1
 85 516 l 1,9,-1
 85 0 l 1,10,-1
 165 0 l 1,11,-1
 165 358 l 2,12,13
 165 408 165 408 204 432 c 128,-1,14
 243 456 243 456 291 456 c 0,15,16
 408 456 408 456 408 317 c 2,17,-1
 408 0 l 1,18,-1
 488 0 l 1,0,-1
362 612 m 0,19,20
 422 612 422 612 457 665 c 1,21,-1
 424 705 l 1,22,23
 409 692 409 692 396 685 c 128,-1,24
 383 678 383 678 366 678 c 0,25,26
 339 678 339 678 289 705 c 0,27,28
 275 714 275 714 257.5 721 c 128,-1,29
 240 728 240 728 216 728 c 0,30,31
 156 728 156 728 121 675 c 1,32,-1
 154 635 l 1,33,34
 169 648 169 648 182 655 c 128,-1,35
 195 662 195 662 212 662 c 0,36,37
 239 662 239 662 289 635 c 0,38,39
 303 626 303 626 320.5 619 c 128,-1,40
 338 612 338 612 362 612 c 0,19,20
EndSplineSet
EndChar

StartChar: o
Encoding: 111 111 261
Width: 560
Flags: W
LayerCount: 2
Fore
SplineSet
280 -12 m 0,0,1
 384 -12 384 -12 448 62 c 0,2,3
 513 134 513 134 513 258 c 0,4,5
 513 380 513 380 448.5 454 c 128,-1,6
 384 528 384 528 280 528 c 0,7,8
 177 528 177 528 112 454 c 128,-1,9
 47 380 47 380 47 258 c 0,10,11
 47 134 47 134 112 62 c 0,12,13
 177 -12 177 -12 280 -12 c 0,0,1
280 59 m 256,14,15
 215 59 215 59 174 99 c 128,-1,16
 133 139 133 139 133 221 c 2,17,-1
 133 295 l 2,18,19
 133 377 133 377 174 417 c 128,-1,20
 215 457 215 457 280 457 c 256,21,22
 345 457 345 457 386 417 c 128,-1,23
 427 377 427 377 427 295 c 2,24,-1
 427 221 l 2,25,26
 427 139 427 139 386 99 c 128,-1,27
 345 59 345 59 280 59 c 256,14,15
EndSplineSet
EndChar

StartChar: oacute
Encoding: 243 243 262
Width: 560
Flags: W
LayerCount: 2
Fore
SplineSet
280 -12 m 0,0,1
 384 -12 384 -12 448 62 c 0,2,3
 513 134 513 134 513 258 c 0,4,5
 513 380 513 380 448.5 454 c 128,-1,6
 384 528 384 528 280 528 c 0,7,8
 177 528 177 528 112 454 c 128,-1,9
 47 380 47 380 47 258 c 0,10,11
 47 134 47 134 112 62 c 0,12,13
 177 -12 177 -12 280 -12 c 0,0,1
280 59 m 256,14,15
 215 59 215 59 174 99 c 128,-1,16
 133 139 133 139 133 221 c 2,17,-1
 133 295 l 2,18,19
 133 377 133 377 174 417 c 128,-1,20
 215 457 215 457 280 457 c 256,21,22
 345 457 345 457 386 417 c 128,-1,23
 427 377 427 377 427 295 c 2,24,-1
 427 221 l 2,25,26
 427 139 427 139 386 99 c 128,-1,27
 345 59 345 59 280 59 c 256,14,15
288 585 m 1,28,-1
 394 744 l 1,29,-1
 321 779 l 1,30,-1
 236 609 l 1,31,-1
 288 585 l 1,28,-1
EndSplineSet
EndChar

StartChar: obreve
Encoding: 335 335 263
Width: 560
Flags: W
LayerCount: 2
Fore
SplineSet
280 -12 m 0,0,1
 384 -12 384 -12 448 62 c 0,2,3
 513 134 513 134 513 258 c 0,4,5
 513 380 513 380 448.5 454 c 128,-1,6
 384 528 384 528 280 528 c 0,7,8
 177 528 177 528 112 454 c 128,-1,9
 47 380 47 380 47 258 c 0,10,11
 47 134 47 134 112 62 c 0,12,13
 177 -12 177 -12 280 -12 c 0,0,1
280 59 m 256,14,15
 215 59 215 59 174 99 c 128,-1,16
 133 139 133 139 133 221 c 2,17,-1
 133 295 l 2,18,19
 133 377 133 377 174 417 c 128,-1,20
 215 457 215 457 280 457 c 256,21,22
 345 457 345 457 386 417 c 128,-1,23
 427 377 427 377 427 295 c 2,24,-1
 427 221 l 2,25,26
 427 139 427 139 386 99 c 128,-1,27
 345 59 345 59 280 59 c 256,14,15
281 596 m 0,28,29
 354 596 354 596 391 638 c 0,30,31
 422 677 422 677 433 721 c 1,32,-1
 388 743 l 1,33,-1
 367 710 l 2,34,35
 354 687 354 687 336.5 673 c 128,-1,36
 319 659 319 659 281 659 c 256,37,38
 243 659 243 659 225 673.5 c 128,-1,39
 207 688 207 688 195 710 c 2,40,-1
 174 743 l 1,41,-1
 129 721 l 1,42,43
 162 596 162 596 281 596 c 0,28,29
EndSplineSet
EndChar

StartChar: ocircumflex
Encoding: 244 244 264
Width: 560
Flags: W
LayerCount: 2
Fore
SplineSet
280 -12 m 0,0,1
 384 -12 384 -12 448 62 c 0,2,3
 513 134 513 134 513 258 c 0,4,5
 513 380 513 380 448.5 454 c 128,-1,6
 384 528 384 528 280 528 c 0,7,8
 177 528 177 528 112 454 c 128,-1,9
 47 380 47 380 47 258 c 0,10,11
 47 134 47 134 112 62 c 0,12,13
 177 -12 177 -12 280 -12 c 0,0,1
280 59 m 256,14,15
 215 59 215 59 174 99 c 128,-1,16
 133 139 133 139 133 221 c 2,17,-1
 133 295 l 2,18,19
 133 377 133 377 174 417 c 128,-1,20
 215 457 215 457 280 457 c 256,21,22
 345 457 345 457 386 417 c 128,-1,23
 427 377 427 377 427 295 c 2,24,-1
 427 221 l 2,25,26
 427 139 427 139 386 99 c 128,-1,27
 345 59 345 59 280 59 c 256,14,15
398 591 m 1,28,-1
 442 622 l 1,29,-1
 331 765 l 1,30,-1
 231 765 l 1,31,-1
 120 622 l 1,32,-1
 164 591 l 1,33,-1
 281 708 l 1,34,-1
 398 591 l 1,28,-1
EndSplineSet
EndChar

